<svg width="18" height="25" viewBox="0 0 18 25" fill="none" xmlns="http://www.w3.org/2000/svg">
<path d="M17.6719 5.42188L13.0781 0.828125C12.8438 0.640625 12.5625 0.5 12.2812 0.5H12V6.5H18V6.21875C18 5.9375 17.8594 5.65625 17.6719 5.42188ZM10.5 6.875V0.5H1.125C0.46875 0.5 0 1.01562 0 1.625V23.375C0 24.0312 0.46875 24.5 1.125 24.5H16.875C17.4844 24.5 18 24.0312 18 23.375V8H11.625C10.9688 8 10.5 7.53125 10.5 6.875ZM3 3.875C3 3.6875 3.14062 3.5 3.375 3.5H7.125C7.3125 3.5 7.5 3.6875 7.5 3.875V4.625C7.5 4.85938 7.3125 5 7.125 5H3.375C3.14062 5 3 4.85938 3 4.625V3.875ZM3 7.625V6.875C3 6.6875 3.14062 6.5 3.375 6.5H7.125C7.3125 6.5 7.5 6.6875 7.5 6.875V7.625C7.5 7.85938 7.3125 8 7.125 8H3.375C3.14062 8 3 7.85938 3 7.625ZM9.75 20V21.125C9.75 21.3594 9.5625 21.5 9.375 21.5H8.625C8.39062 21.5 8.25 21.3594 8.25 21.125V20C7.6875 20 7.17188 19.8125 6.75 19.4844C6.5625 19.3438 6.5625 19.0625 6.75 18.9219L7.26562 18.4062C7.40625 18.2656 7.59375 18.2656 7.73438 18.3594C7.92188 18.4531 8.15625 18.5 8.34375 18.5H9.65625C9.98438 18.5 10.2188 18.2656 10.2188 17.8906C10.2188 17.6094 10.0781 17.375 9.79688 17.3281L7.6875 16.6719C6.84375 16.3906 6.23438 15.5938 6.23438 14.6562C6.23438 13.4844 7.125 12.5469 8.20312 12.5469V11.375C8.20312 11.1875 8.39062 11 8.57812 11H9.32812C9.5625 11 9.70312 11.1875 9.70312 11.375V12.5469C10.2656 12.5469 10.7812 12.7344 11.2031 13.0625C11.3906 13.2031 11.3906 13.4844 11.2031 13.625L10.6875 14.1406C10.5469 14.2812 10.3594 14.2812 10.2188 14.1875C10.0312 14.0938 9.79688 14 9.60938 14H8.29688C7.96875 14 7.73438 14.2812 7.73438 14.6562C7.73438 14.9375 7.875 15.1719 8.15625 15.2188L10.2656 15.875C11.1094 16.1094 11.7188 16.9531 11.7188 17.8906C11.7188 19.0625 10.8281 20 9.75 20Z" fill="#00468C"/>
</svg>
