<svg width="28" height="38" viewBox="0 0 28 38" fill="none" xmlns="http://www.w3.org/2000/svg">
<path d="M22.0878 26.2185L22.9875 26.4296L25.9083 34.8212C26.0014 35.0885 25.7848 35.3618 25.5033 35.3323L21.4092 34.9036C21.2948 34.8916 21.1811 34.9312 21.0989 35.0116L18.1558 37.8897C17.9535 38.0876 17.614 38.0078 17.521 37.7405L14.5811 29.2941L15.0064 28.6707L22.0878 26.2185Z" fill="#FF4755"/>
<path d="M14.5811 29.294L13.9871 27.5874L22.3953 24.728L22.9876 26.4296C20.6 28.1333 17.709 29.1763 14.5811 29.294Z" fill="#FC2B3A"/>
<path d="M5.89914 26.2185L4.99946 26.4296L2.07866 34.8212C1.98559 35.0885 2.20216 35.3618 2.48367 35.3323L6.5778 34.9036C6.69217 34.8916 6.80587 34.9312 6.88803 35.0116L9.83118 37.8897C10.0335 38.0876 10.373 38.0078 10.466 37.7405L13.4059 29.2941L12.9805 28.6707L5.89914 26.2185Z" fill="#FF4755"/>
<path d="M13.406 29.294L14 27.5874L5.59178 24.728L4.99951 26.4296C7.38705 28.1333 10.2781 29.1763 13.406 29.294Z" fill="#FC2B3A"/>
<path d="M14 26.6154C0.223506 26.6154 0.212076 13.3288 0.223506 13.0985C0.585619 5.80346 6.61508 0 14 0C21.3849 0 27.4144 5.80346 27.7765 13.0985C27.7879 13.3288 27.7937 26.6154 14 26.6154Z" fill="#FFCB5B"/>
<path d="M14 26.1969C6.61509 26.1969 0.585854 20.3935 0.223666 13.0985C0.212236 13.3288 0.206299 13.5606 0.206299 13.7937C0.206299 21.4118 6.38197 27.5874 14 27.5874C21.618 27.5874 27.7937 21.4118 27.7937 13.7937C27.7937 13.5606 27.7878 13.3288 27.7763 13.0985C27.4142 20.3935 21.3849 26.1969 14 26.1969Z" fill="#F7B737"/>
<path d="M14 23.7522C3.15538 23.7522 3.14083 13.3284 3.15538 13.0985C3.51385 7.42104 8.23216 2.92725 14 2.92725C19.7678 2.92725 24.4861 7.42104 24.8446 13.0985C24.8592 13.3284 24.8665 23.7522 14 23.7522Z" fill="#FF9838"/>
<path d="M14.0001 23.2698C8.23223 23.2698 3.51488 18.7758 3.15633 13.0985C3.14178 13.3284 3.13354 13.5602 3.13354 13.7937C3.13354 19.7951 7.99866 24.6602 14.0001 24.6602C20.0015 24.6602 24.8666 19.7951 24.8666 13.7937C24.8666 13.5601 24.8583 13.3284 24.8438 13.0985C24.4852 18.7758 19.7678 23.2698 14.0001 23.2698Z" fill="#FF8709"/>
<path d="M14.9947 8.50046L16.0082 10.5539C16.1697 10.8813 16.4821 11.1083 16.8434 11.1608L19.1096 11.4901C20.0195 11.6223 20.3828 12.7404 19.7244 13.3823L18.0846 14.9807C17.8231 15.2355 17.7038 15.6027 17.7655 15.9626L18.1526 18.2196C18.1894 18.4336 18.0939 18.8138 18.0939 18.8138H16.5431L14 17.384L11.4569 18.8138L9.91875 18.8447C9.91875 18.8447 9.80838 18.4461 9.84727 18.2195L10.2344 15.9625C10.2961 15.6026 10.1768 15.2354 9.91533 14.9806L8.27554 13.3822C7.61715 12.7404 7.98045 11.6223 8.89037 11.49L11.1565 11.1607C11.5178 11.1082 11.8302 10.8813 11.9918 10.5539L13.0052 8.50039C13.4121 7.67597 14.5878 7.67597 14.9947 8.50046Z" fill="#FFF5F5"/>
<path d="M13.8202 16.756L9.90662 18.8136C10.1342 19.3895 10.8353 19.7158 11.4569 19.389L13.4838 18.3234C13.807 18.1535 14.193 18.1535 14.5163 18.3234L16.5432 19.389C17.1648 19.7158 17.8659 19.3895 18.0935 18.8136L14.1798 16.756C14.0672 16.6969 13.9328 16.6969 13.8202 16.756Z" fill="#EFE2DD"/>
</svg>
