<svg width="48" height="51" viewBox="0 0 48 51" fill="none" xmlns="http://www.w3.org/2000/svg">
<g clip-path="url(#clip0)">
<path d="M17.7629 4.96993C17.4067 4.61759 16.9236 4.41968 16.42 4.41968C15.9164 4.41968 15.4333 4.61759 15.0771 4.96993L1.05016 18.8534C0.86544 19.026 0.717589 19.2336 0.615351 19.4638C0.513113 19.6941 0.458566 19.9422 0.454936 20.1937C0.451307 20.4451 0.498669 20.6948 0.59422 20.9278C0.689771 21.1608 0.831571 21.3725 1.01123 21.5503C1.19089 21.7281 1.40476 21.8685 1.64018 21.963C1.8756 22.0576 2.1278 22.1045 2.38185 22.1009C2.6359 22.0973 2.88664 22.0433 3.11924 21.9421C3.35183 21.8409 3.56156 21.6946 3.73602 21.5118L17.7629 7.62832C18.1189 7.27569 18.3189 6.79761 18.3189 6.29912C18.3189 5.80064 18.1189 5.32255 17.7629 4.96993Z" fill="url(#paint0_linear)"/>
<path d="M39.2913 3.28072C38.935 2.92839 38.452 2.73047 37.9483 2.73047C37.4447 2.73047 36.9617 2.92839 36.6054 3.28072L22.5768 17.1642C22.2195 17.5167 22.0183 17.9953 22.0175 18.4946C22.0166 18.994 22.2163 19.4732 22.5725 19.8268C22.9286 20.1805 23.4121 20.3796 23.9166 20.3804C24.4212 20.3812 24.9053 20.1836 25.2626 19.8311L39.2913 5.94766C39.4688 5.7729 39.6097 5.56512 39.7059 5.33628C39.802 5.10743 39.8515 4.86203 39.8515 4.61419C39.8515 4.36634 39.802 4.12094 39.7059 3.8921C39.6097 3.66326 39.4688 3.45548 39.2913 3.28072Z" fill="url(#paint1_linear)"/>
<path d="M46.4109 16.7829C46.0546 16.4306 45.5716 16.2327 45.068 16.2327C44.5643 16.2327 44.0813 16.4306 43.725 16.7829L29.6981 30.6681C29.3586 31.0239 29.1726 31.4967 29.1797 31.9861C29.1867 32.4755 29.3863 32.9429 29.736 33.289C30.0856 33.6351 30.5578 33.8326 31.0523 33.8396C31.5467 33.8466 32.0245 33.6625 32.384 33.3265L46.4109 19.4413C46.7669 19.0887 46.9668 18.6106 46.9668 18.1121C46.9668 17.6136 46.7669 17.1355 46.4109 16.7829Z" fill="url(#paint2_linear)"/>
<path d="M17.2724 17.7661C16.9161 17.4137 16.4331 17.2158 15.9295 17.2158C15.4258 17.2158 14.9428 17.4137 14.5865 17.7661L0.55616 31.6512C0.222368 32.0081 0.0412319 32.4791 0.0507738 32.9653C0.0603156 33.4515 0.259793 33.9152 0.607334 34.2589C0.954875 34.6027 1.42345 34.7998 1.9147 34.809C2.40596 34.8181 2.88168 34.6385 3.24202 34.3079L17.2724 20.4245C17.6284 20.0718 17.8283 19.5937 17.8283 19.0953C17.8283 18.5968 17.6284 18.1187 17.2724 17.7661Z" fill="url(#paint3_linear)"/>
<path d="M8.85042 39.4296C8.49415 39.0773 8.01112 38.8794 7.50749 38.8794C7.00385 38.8794 6.52083 39.0773 6.16456 39.4296L4.46495 41.1119C4.27172 41.2823 4.1157 41.49 4.00646 41.7222C3.89723 41.9545 3.83708 42.2063 3.82972 42.4624C3.82235 42.7185 3.86792 42.9733 3.96363 43.2113C4.05934 43.4493 4.20317 43.6655 4.3863 43.8465C4.56943 44.0275 4.78799 44.1696 5.02859 44.264C5.26918 44.3584 5.52672 44.4032 5.78542 44.3956C6.04413 44.388 6.29853 44.3281 6.53302 44.2197C6.76751 44.1113 6.97716 43.9566 7.14909 43.7651L8.85042 42.0829C9.20481 41.7305 9.40377 41.2535 9.40377 40.7563C9.40377 40.259 9.20481 39.7821 8.85042 39.4296Z" fill="url(#paint4_linear)"/>
<path d="M28.5859 2.8398C28.2296 2.48747 27.7466 2.28955 27.2429 2.28955C26.7393 2.28955 26.2563 2.48747 25.9 2.8398L24.2004 4.52373C24.0129 4.69573 23.8625 4.9034 23.758 5.1343C23.6535 5.36521 23.5972 5.6146 23.5924 5.86756C23.5876 6.12052 23.6344 6.37183 23.7301 6.60646C23.8257 6.84108 23.9682 7.05419 24.149 7.23303C24.3298 7.41188 24.5452 7.55277 24.7823 7.64727C25.0194 7.74178 25.2734 7.78796 25.5289 7.78305C25.7845 7.77813 26.0364 7.72223 26.2697 7.61868C26.5029 7.51513 26.7126 7.36607 26.8863 7.18041L28.5859 5.49819C28.9418 5.14557 29.1418 4.66748 29.1418 4.169C29.1418 3.67051 28.9418 3.19243 28.5859 2.8398Z" fill="url(#paint5_linear)"/>
<path d="M40.1203 33.3369C39.7641 32.9845 39.281 32.7866 38.7774 32.7866C38.2738 32.7866 37.7907 32.9845 37.4345 33.3369L23.4076 47.2203C23.2228 47.393 23.075 47.6006 22.9727 47.8308C22.8705 48.061 22.816 48.3092 22.8123 48.5606C22.8087 48.8121 22.8561 49.0617 22.9516 49.2947C23.0472 49.5277 23.189 49.7394 23.3686 49.9172C23.5483 50.0951 23.7621 50.2354 23.9976 50.33C24.233 50.4246 24.4852 50.4714 24.7392 50.4678C24.9933 50.4643 25.244 50.4103 25.4766 50.3091C25.7092 50.2079 25.919 50.0615 26.0934 49.8787L40.1203 35.9953C40.4763 35.6426 40.6763 35.1645 40.6763 34.6661C40.6763 34.1676 40.4763 33.6895 40.1203 33.3369Z" fill="url(#paint6_linear)"/>
<path d="M47.4438 26.0797C47.0876 25.7279 46.605 25.5303 46.1017 25.5303C45.5985 25.5303 45.1159 25.7279 44.7597 26.0797L30.731 39.9648C30.5436 40.1368 30.3931 40.3445 30.2886 40.5754C30.1842 40.8063 30.1278 41.0557 30.123 41.3087C30.1182 41.5616 30.1651 41.8129 30.2607 42.0476C30.3563 42.2822 30.4988 42.4953 30.6796 42.6741C30.8604 42.853 31.0758 42.9939 31.313 43.0884C31.5501 43.1829 31.804 43.2291 32.0596 43.2242C32.3151 43.2192 32.5671 43.1633 32.8003 43.0598C33.0335 42.9562 33.2432 42.8072 33.4169 42.6215L47.4438 28.7381C47.7998 28.3854 47.9998 27.9073 47.9998 27.4089C47.9998 26.9104 47.7998 26.4323 47.4438 26.0797Z" fill="url(#paint7_linear)"/>
<path d="M45.8685 36.6413C45.5123 36.289 45.0293 36.0911 44.5256 36.0911C44.022 36.0911 43.539 36.289 43.1827 36.6413L35.9732 43.7771C35.7885 43.9497 35.6406 44.1573 35.5384 44.3875C35.4361 44.6178 35.3816 44.8659 35.378 45.1174C35.3743 45.3688 35.4217 45.6185 35.5173 45.8515C35.6128 46.0845 35.7546 46.2962 35.9343 46.474C36.1139 46.6518 36.3278 46.7922 36.5632 46.8867C36.7986 46.9813 37.0508 47.0282 37.3049 47.0246C37.5589 47.021 37.8097 46.967 38.0423 46.8658C38.2749 46.7646 38.4846 46.6183 38.6591 46.4355L45.8685 39.2997C46.2245 38.9471 46.4245 38.469 46.4245 37.9705C46.4245 37.472 46.2245 36.9939 45.8685 36.6413Z" fill="url(#paint8_linear)"/>
<path d="M33.2597 51.0001C34.3081 51.0001 35.158 50.1589 35.158 49.1213C35.158 48.0836 34.3081 47.2424 33.2597 47.2424C32.2114 47.2424 31.3615 48.0836 31.3615 49.1213C31.3615 50.1589 32.2114 51.0001 33.2597 51.0001Z" fill="url(#paint9_linear)"/>
<path d="M24.3541 36.703C23.9979 36.3512 23.5152 36.1536 23.012 36.1536C22.5088 36.1536 22.0261 36.3512 21.6699 36.703L14.4639 43.8387C14.2873 44.0133 14.1472 44.2205 14.0515 44.4487C13.9559 44.6768 13.9066 44.9214 13.9064 45.1684C13.9062 45.4154 13.9552 45.6601 14.0506 45.8883C14.146 46.1166 14.2858 46.324 14.4622 46.4988C14.6385 46.6736 14.8479 46.8123 15.0784 46.907C15.3089 47.0016 15.556 47.0504 15.8056 47.0506C16.0552 47.0508 16.3023 47.0023 16.5329 46.9079C16.7636 46.8135 16.9732 46.6751 17.1497 46.5005L24.3541 39.3614C24.71 39.0087 24.91 38.5306 24.91 38.0322C24.91 37.5337 24.71 37.0556 24.3541 36.703Z" fill="url(#paint10_linear)"/>
<path d="M14.6539 0.550619C14.2977 0.198806 13.815 0.0012207 13.3118 0.0012207C12.8086 0.0012207 12.326 0.198806 11.9698 0.550619L8.44274 4.03986C8.25802 4.21253 8.11017 4.42011 8.00793 4.65033C7.90569 4.88055 7.85114 5.12873 7.84751 5.38018C7.84388 5.63163 7.89125 5.88125 7.9868 6.11426C8.08235 6.34728 8.22415 6.55896 8.40381 6.73678C8.58347 6.9146 8.79733 7.05495 9.03276 7.14952C9.26818 7.24409 9.52038 7.29097 9.77443 7.28738C10.0285 7.28379 10.2792 7.2298 10.5118 7.12861C10.7444 7.02741 10.9541 6.88107 11.1286 6.69825L14.6539 3.20901C15.0099 2.85638 15.2098 2.37829 15.2098 1.87981C15.2098 1.38133 15.0099 0.903243 14.6539 0.550619Z" fill="url(#paint11_linear)"/>
<path d="M6.84332 10.9414C6.57767 11.2046 6.23913 11.3838 5.87053 11.4565C5.50193 11.5292 5.11984 11.492 4.77257 11.3498C4.42531 11.2075 4.12848 10.9664 3.91964 10.6571C3.7108 10.3479 3.59933 9.98422 3.59933 9.61222C3.59933 9.24022 3.7108 8.87658 3.91964 8.56729C4.12848 8.25801 4.42531 8.01698 4.77257 7.87469C5.11984 7.7324 5.50193 7.69525 5.87053 7.76794C6.23913 7.84062 6.57767 8.01988 6.84332 8.28303C7.1993 8.63565 7.39926 9.11374 7.39926 9.61222C7.39926 10.1107 7.1993 10.5888 6.84332 10.9414Z" fill="url(#paint12_linear)"/>
<path d="M24 45.3071C35.0522 45.3071 44.0118 36.4392 44.0118 25.5C44.0118 14.5608 35.0522 5.69287 24 5.69287C12.9477 5.69287 3.98816 14.5608 3.98816 25.5C3.98816 36.4392 12.9477 45.3071 24 45.3071Z" fill="url(#paint13_linear)"/>
<path d="M37.6476 39.0089C45.1854 31.5481 45.1854 19.4519 37.6476 11.9911C30.1097 4.53033 17.8884 4.53033 10.3505 11.9911C2.81267 19.4519 2.81267 31.5481 10.3505 39.0089C17.8884 46.4697 30.1097 46.4697 37.6476 39.0089Z" fill="url(#paint14_linear)"/>
<path d="M19.2847 13.2184H28.7154L29.351 7.146C25.8532 6.14404 22.14 6.14404 18.6422 7.146L19.2847 13.2184Z" fill="url(#paint15_linear)"/>
<path d="M36.4449 37.8289C43.3177 31.0265 43.3177 19.9975 36.4449 13.195C29.5721 6.39249 18.4292 6.39249 11.5564 13.195C4.68361 19.9975 4.68361 31.0265 11.5564 37.8289C18.4292 44.6314 29.5721 44.6314 36.4449 37.8289Z" fill="url(#paint16_linear)"/>
<path d="M14.4829 10.8593C20.0101 6.79218 28.0573 6.75628 33.6294 10.9311C27.546 7.54268 20.5421 7.54097 14.4829 10.8593Z" fill="#FFFCEF"/>
<path d="M25.587 41.4146C34.4591 40.5458 40.9399 32.7229 40.0621 23.9415C39.1844 15.1601 31.2806 8.74572 22.4085 9.61448C13.5364 10.4832 7.05566 18.3062 7.9334 27.0876C8.81113 35.8689 16.7149 42.2834 25.587 41.4146Z" fill="url(#paint17_linear)"/>
<path style="mix-blend-mode:multiply" d="M25.587 41.4146C34.4591 40.5458 40.9399 32.7229 40.0621 23.9415C39.1844 15.1601 31.2806 8.74572 22.4085 9.61448C13.5364 10.4832 7.05566 18.3062 7.9334 27.0876C8.81113 35.8689 16.7149 42.2834 25.587 41.4146Z" fill="url(#paint18_linear)"/>
<g style="mix-blend-mode:multiply">
<path d="M38.1254 24.0571C38.1255 23.3046 37.963 22.5607 37.6488 21.8755C37.3347 21.1902 36.8761 20.5793 36.3039 20.0838C35.7318 19.5882 35.0592 19.2195 34.3312 19.0023C33.6033 18.7851 32.8368 18.7244 32.0833 18.8244C31.3297 18.9243 30.6065 19.1826 29.962 19.5818C29.3175 19.981 28.7667 20.512 28.3465 21.1392C27.9263 21.7663 27.6465 22.4752 27.5257 23.2181C27.4049 23.9611 27.446 24.721 27.6462 25.447C27.6708 25.5689 27.7042 25.6889 27.7464 25.806L29.0298 29.2969C28.9199 30.244 28.6397 31.1641 28.2024 32.0135L24.2695 21.3218C24.1426 20.9768 23.9483 20.66 23.6976 20.3894C23.447 20.1188 23.145 19.8996 22.8088 19.7445C22.4727 19.5894 22.1089 19.5014 21.7384 19.4854C21.3678 19.4695 20.9977 19.5259 20.6492 19.6515C20.3007 19.7771 19.9806 19.9695 19.7071 20.2175C19.4337 20.4656 19.2123 20.7645 19.0556 21.0972C18.8989 21.43 18.81 21.79 18.7939 22.1568C18.7777 22.5235 18.8348 22.8898 18.9617 23.2348L20.3435 26.9959C20.3832 29.3893 19.9548 30.974 19.3883 32.0117L15.4588 21.3218C15.1919 20.6391 14.6652 20.0872 13.9918 19.7846C13.3184 19.482 12.5519 19.4527 11.857 19.7031C11.162 19.9535 10.5939 20.4636 10.2746 21.1239C9.95537 21.7842 9.91037 22.542 10.1493 23.2348L14.1219 34.0376C14.2623 34.4229 14.4867 34.7728 14.7793 35.0625C15.0718 35.3521 15.4252 35.5744 15.8144 35.7135C16.2037 35.8526 16.6191 35.905 17.0311 35.8671C17.4431 35.8292 17.8416 35.7018 18.1982 35.4941C18.9192 35.1893 19.5624 34.729 20.0809 34.147C20.8599 33.2922 21.4178 32.1861 21.7615 30.8475L22.9343 34.0376C23.0612 34.3834 23.2557 34.701 23.5068 34.9722C23.7579 35.2434 24.0606 35.4629 24.3976 35.618C24.7346 35.7732 25.0992 35.861 25.4705 35.8764C25.8419 35.8918 26.2126 35.8345 26.5615 35.7078C26.7189 35.6498 26.8709 35.5783 27.0158 35.4941C27.7368 35.1893 28.3799 34.729 28.8985 34.147C29.4062 33.5771 29.8148 32.9278 30.1076 32.2254L30.8675 34.2923C31.2873 35.4326 32.41 36.0754 33.3755 35.7284C34.341 35.3813 34.7832 34.1744 34.3635 33.0341L33.0024 29.3311C34.3794 29.2777 35.682 28.6986 36.6371 27.7154C37.5922 26.7321 38.1256 25.4211 38.1254 24.0571Z" fill="#BA7000"/>
</g>
<path d="M38.1254 22.3476C38.1255 21.5951 37.963 20.8513 37.6488 20.166C37.3347 19.4807 36.8761 18.8698 36.3039 18.3743C35.7318 17.8788 35.0592 17.51 34.3312 17.2928C33.6033 17.0756 32.8368 17.0149 32.0833 17.1149C31.3297 17.2148 30.6065 17.4731 29.962 17.8723C29.3175 18.2716 28.7667 18.8026 28.3465 19.4297C27.9263 20.0569 27.6465 20.7657 27.5257 21.5087C27.4049 22.2516 27.446 23.0116 27.6462 23.7375C27.6708 23.8594 27.7042 23.9794 27.7464 24.0965L29.0298 27.5875C28.9199 28.5346 28.6397 29.4546 28.2024 30.304L24.2695 19.6123C24.1426 19.2674 23.9483 18.9505 23.6976 18.6799C23.447 18.4093 23.145 18.1902 22.8088 18.0351C22.4727 17.88 22.1089 17.7919 21.7384 17.776C21.3678 17.76 20.9977 17.8164 20.6492 17.9421C20.3007 18.0677 19.9806 18.26 19.7071 18.508C19.4337 18.7561 19.2123 19.055 19.0556 19.3878C18.8989 19.7205 18.81 20.0805 18.7939 20.4473C18.7777 20.8141 18.8348 21.1804 18.9617 21.5253L20.3435 25.2864C20.3832 27.6798 19.9548 29.2646 19.3883 30.3023L15.4588 19.6123C15.1919 18.9296 14.6652 18.3778 13.9918 18.0751C13.3184 17.7725 12.5519 17.7432 11.857 17.9936C11.162 18.244 10.5939 18.7541 10.2746 19.4144C9.95537 20.0747 9.91037 20.8326 10.1493 21.5253L14.1219 32.3281C14.2623 32.7134 14.4867 33.0633 14.7793 33.353C15.0718 33.6427 15.4252 33.8649 15.8144 34.004C16.2037 34.1431 16.6191 34.1955 17.0311 34.1576C17.4431 34.1197 17.8416 33.9924 18.1982 33.7847C18.9192 33.4798 19.5624 33.0196 20.0809 32.4375C20.8599 31.5827 21.4178 30.4767 21.7615 29.1381L22.9343 32.3281C23.0612 32.6739 23.2557 32.9915 23.5068 33.2627C23.7579 33.5339 24.0606 33.7534 24.3976 33.9086C24.7346 34.0637 25.0992 34.1515 25.4705 34.167C25.8419 34.1824 26.2126 34.1251 26.5615 33.9984C26.7189 33.9404 26.8709 33.8688 27.0158 33.7847C27.7368 33.4798 28.3799 33.0196 28.8985 32.4375C29.4062 31.8677 29.8148 31.2183 30.1076 30.516L30.8675 32.5828C31.2873 33.7231 32.41 34.3659 33.3755 34.0189C34.341 33.6718 34.7832 32.4649 34.3635 31.3246L33.0024 27.6217C34.3794 27.5682 35.682 26.9891 36.6371 26.0059C37.5922 25.0226 38.1256 23.7116 38.1254 22.3476Z" fill="url(#paint19_linear)"/>
<path d="M32.7916 18.7781C34.0564 18.7782 35.2801 19.2232 36.2441 20.0336C37.2081 20.844 37.8497 21.9671 38.0545 23.2025C38.1743 22.4825 38.1419 21.7459 37.9595 21.0389C37.7771 20.332 37.4487 19.6701 36.9948 19.0951C36.541 18.5202 35.9717 18.0445 35.3228 17.6983C34.674 17.352 33.9596 17.1426 33.2249 17.0834C32.4902 17.0241 31.751 17.1162 31.054 17.3539C30.3571 17.5916 29.7175 17.9697 29.1756 18.4644C28.6337 18.959 28.2013 19.5595 27.9056 20.2279C27.61 20.8963 27.4576 21.6181 27.4579 22.3477C27.4583 22.634 27.482 22.9199 27.5287 23.2025C27.7339 21.9673 28.3756 20.8444 29.3396 20.034C30.3035 19.2236 31.5269 18.7786 32.7916 18.7781Z" fill="white"/>
<path d="M20.6492 19.6602C20.9981 19.5335 21.3689 19.4763 21.7402 19.4917C22.1115 19.5071 22.4761 19.5949 22.8131 19.7501C23.1501 19.9052 23.4528 20.1247 23.7039 20.3959C23.955 20.6671 24.1495 20.9847 24.2764 21.3305L28.2093 32.0222C28.6466 31.1728 28.9268 30.2528 29.0366 29.3057V27.5961C28.8726 28.2355 28.4442 29.8801 28.2093 30.3126L24.2764 19.6209C24.0338 18.92 23.5199 18.3431 22.8476 18.0172C22.1753 17.6913 21.3997 17.6431 20.6915 17.8831C19.9833 18.1232 19.4004 18.6319 19.0712 19.2973C18.7419 19.9628 18.6932 20.7304 18.9358 21.4314C19.0661 21.0264 19.2882 20.6563 19.5852 20.3494C19.8822 20.0424 20.2461 19.8067 20.6492 19.6602Z" fill="white"/>
<path d="M11.8385 19.6602C12.1874 19.5335 12.5582 19.4763 12.9295 19.4917C13.3008 19.5071 13.6654 19.5949 14.0024 19.7501C14.3394 19.9052 14.6421 20.1247 14.8932 20.3959C15.1443 20.6671 15.3389 20.9847 15.4657 21.3305L19.3969 32.0222C19.9634 30.9845 20.3918 29.4065 20.3521 27.0063L20.3037 26.8764C20.1776 28.415 19.8287 29.5228 19.3969 30.3126L15.4588 19.6124C15.2162 18.9114 14.7023 18.3345 14.03 18.0086C13.3577 17.6827 12.5821 17.6345 11.8739 17.8746C11.1657 18.1147 10.5828 18.6234 10.2536 19.2888C9.92431 19.9542 9.8756 20.7219 10.1182 21.4228C10.2503 21.0187 10.474 20.6499 10.7722 20.3444C11.0703 20.039 11.4351 19.805 11.8385 19.6602Z" fill="white"/>
<path d="M33.0023 27.6216C32.801 27.6528 32.598 27.6727 32.3943 27.6814L34.3617 33.0307C34.5743 32.4802 34.5743 31.8715 34.3617 31.3211L33.0023 27.6216Z" fill="white"/>
</g>
<defs>
<linearGradient id="paint0_linear" x1="17.8746" y1="4.8589" x2="1.26105" y2="21.6442" gradientUnits="userSpaceOnUse">
<stop stop-color="#FADB8A"/>
<stop offset="0.82" stop-color="#EBB036"/>
<stop offset="1" stop-color="#E8A623"/>
</linearGradient>
<linearGradient id="paint1_linear" x1="2956.26" y1="23298.2" x2="2956.26" y2="25724" gradientUnits="userSpaceOnUse">
<stop stop-color="#FADB8A"/>
<stop offset="0.82" stop-color="#EBB036"/>
<stop offset="1" stop-color="#E8A623"/>
</linearGradient>
<linearGradient id="paint2_linear" x1="4467.66" y1="23725.3" x2="4467.66" y2="26145.2" gradientUnits="userSpaceOnUse">
<stop stop-color="#FADB8A"/>
<stop offset="0.82" stop-color="#EBB036"/>
<stop offset="1" stop-color="#E8A623"/>
</linearGradient>
<linearGradient id="paint3_linear" x1="2387.45" y1="25878.4" x2="2387.45" y2="28296.4" gradientUnits="userSpaceOnUse">
<stop stop-color="#FADB8A"/>
<stop offset="0.82" stop-color="#EBB036"/>
<stop offset="1" stop-color="#E8A623"/>
</linearGradient>
<linearGradient id="paint4_linear" x1="1059.87" y1="8836.85" x2="1059.87" y2="9035.8" gradientUnits="userSpaceOnUse">
<stop stop-color="#FADB8A"/>
<stop offset="0.82" stop-color="#EBB036"/>
<stop offset="1" stop-color="#E8A623"/>
</linearGradient>
<linearGradient id="paint5_linear" x1="683.344" y1="7487.94" x2="683.344" y2="7686.05" gradientUnits="userSpaceOnUse">
<stop stop-color="#FADB8A"/>
<stop offset="0.82" stop-color="#EBB036"/>
<stop offset="1" stop-color="#E8A623"/>
</linearGradient>
<linearGradient id="paint6_linear" x1="5242.89" y1="25507.3" x2="5242.89" y2="27937.4" gradientUnits="userSpaceOnUse">
<stop stop-color="#FADB8A"/>
<stop offset="0.82" stop-color="#EBB036"/>
<stop offset="1" stop-color="#E8A623"/>
</linearGradient>
<linearGradient id="paint7_linear" x1="5253.97" y1="24457.4" x2="5253.97" y2="26889.3" gradientUnits="userSpaceOnUse">
<stop stop-color="#FADB8A"/>
<stop offset="0.82" stop-color="#EBB036"/>
<stop offset="1" stop-color="#E8A623"/>
</linearGradient>
<linearGradient id="paint8_linear" x1="3674.72" y1="15685.4" x2="3674.72" y2="16575.2" gradientUnits="userSpaceOnUse">
<stop stop-color="#FADB8A"/>
<stop offset="0.82" stop-color="#EBB036"/>
<stop offset="1" stop-color="#E8A623"/>
</linearGradient>
<linearGradient id="paint9_linear" x1="1282.11" y1="5773.67" x2="1282.11" y2="5856.64" gradientUnits="userSpaceOnUse">
<stop stop-color="#FADB8A"/>
<stop offset="0.82" stop-color="#EBB036"/>
<stop offset="1" stop-color="#E8A623"/>
</linearGradient>
<linearGradient id="paint10_linear" x1="2672.92" y1="16595.3" x2="2672.92" y2="17482.1" gradientUnits="userSpaceOnUse">
<stop stop-color="#FADB8A"/>
<stop offset="0.82" stop-color="#EBB036"/>
<stop offset="1" stop-color="#E8A623"/>
</linearGradient>
<linearGradient id="paint11_linear" x1="393.496" y1="10273.8" x2="393.496" y2="10646" gradientUnits="userSpaceOnUse">
<stop stop-color="#FADB8A"/>
<stop offset="0.82" stop-color="#EBB036"/>
<stop offset="1" stop-color="#E8A623"/>
</linearGradient>
<linearGradient id="paint12_linear" x1="202.64" y1="5552.14" x2="202.64" y2="5635.22" gradientUnits="userSpaceOnUse">
<stop stop-color="#FADB8A"/>
<stop offset="0.82" stop-color="#EBB036"/>
<stop offset="1" stop-color="#E8A623"/>
</linearGradient>
<linearGradient id="paint13_linear" x1="24" y1="5.61252" x2="24" y2="45.2934" gradientUnits="userSpaceOnUse">
<stop stop-color="white"/>
<stop offset="0.47" stop-color="#E0BA93"/>
<stop offset="1" stop-color="#BF6E1D"/>
</linearGradient>
<linearGradient id="paint14_linear" x1="5368.7" y1="1425.48" x2="5368.7" y2="9849.79" gradientUnits="userSpaceOnUse">
<stop stop-color="#FADB8A"/>
<stop offset="0.82" stop-color="#EBB036"/>
<stop offset="1" stop-color="#E8A623"/>
</linearGradient>
<linearGradient id="paint15_linear" x1="18.7959" y1="9.80781" x2="29.1662" y2="9.80781" gradientUnits="userSpaceOnUse">
<stop stop-color="#F9D884"/>
<stop offset="0.5" stop-color="white"/>
<stop offset="0.61" stop-color="#FDF3D8"/>
<stop offset="0.72" stop-color="#FBE8B4"/>
<stop offset="0.83" stop-color="#FAE09B"/>
<stop offset="0.92" stop-color="#F9DB8B"/>
<stop offset="1" stop-color="#F9D986"/>
</linearGradient>
<linearGradient id="paint16_linear" x1="24" y1="8.02219" x2="24" y2="42.918" gradientUnits="userSpaceOnUse">
<stop stop-color="#E8A623"/>
<stop offset="0.18" stop-color="#EBB036"/>
<stop offset="1" stop-color="#FADB8A"/>
</linearGradient>
<linearGradient id="paint17_linear" x1="23.9997" y1="9.46909" x2="23.9997" y2="41.4792" gradientUnits="userSpaceOnUse">
<stop stop-color="#FFD026"/>
<stop offset="0.43" stop-color="#F8BC23"/>
<stop offset="1" stop-color="#ED9A1D"/>
</linearGradient>
<linearGradient id="paint18_linear" x1="23.9997" y1="9.46909" x2="23.9997" y2="41.4792" gradientUnits="userSpaceOnUse">
<stop stop-color="#FFD026"/>
<stop offset="0.43" stop-color="#F8BC23"/>
<stop offset="1" stop-color="#ED9A1D"/>
</linearGradient>
<linearGradient id="paint19_linear" x1="24.0518" y1="16.7573" x2="24.0518" y2="34.9814" gradientUnits="userSpaceOnUse">
<stop stop-color="#FFEEB3"/>
<stop offset="0.69" stop-color="#FFDC5F"/>
<stop offset="1" stop-color="#FFD438"/>
</linearGradient>
<clipPath id="clip0">
<rect width="48" height="51" fill="white"/>
</clipPath>
</defs>
</svg>
