<svg width="118" height="38" viewBox="0 0 118 38" fill="none" xmlns="http://www.w3.org/2000/svg">
<rect x="28" y="8" width="90" height="22" rx="8" fill="#00468C"/>
<path d="M54.0568 14.2727V23H55.0455V16.3693H55.1307L57.858 23H58.8125L61.5398 16.3693H61.625V23H62.6136V14.2727H61.3523L58.3864 21.517H58.2841L55.3182 14.2727H54.0568ZM67.0906 23.1364C68.4201 23.1364 69.3917 22.4716 69.6985 21.483L68.7269 21.2102C68.4712 21.892 67.8789 22.233 67.0906 22.233C65.9102 22.233 65.0962 21.4702 65.0494 20.0682H69.8008V19.642C69.8008 17.2045 68.3519 16.3693 66.9883 16.3693C65.2156 16.3693 64.0394 17.767 64.0394 19.7784C64.0394 21.7898 65.1985 23.1364 67.0906 23.1364ZM65.0494 19.1989C65.1175 18.1804 65.8377 17.2727 66.9883 17.2727C68.0792 17.2727 68.7781 18.0909 68.7781 19.1989H65.0494ZM75.717 17.9205C75.4016 16.9915 74.6942 16.3693 73.3988 16.3693C72.0181 16.3693 70.9954 17.1534 70.9954 18.2614C70.9954 19.1648 71.5323 19.7699 72.734 20.0511L73.8249 20.3068C74.4854 20.4602 74.7965 20.7756 74.7965 21.2273C74.7965 21.7898 74.1999 22.25 73.2624 22.25C72.44 22.25 71.9244 21.8963 71.7454 21.1932L70.7908 21.4318C71.0252 22.544 71.9414 23.1364 73.2795 23.1364C74.8008 23.1364 75.8363 22.3054 75.8363 21.1761C75.8363 20.2642 75.2653 19.6889 74.0977 19.4034L73.1261 19.1648C72.3505 18.973 72.0011 18.7131 72.0011 18.2102C72.0011 17.6477 72.5977 17.2386 73.3988 17.2386C74.2766 17.2386 74.6388 17.7244 74.8136 18.1761L75.717 17.9205ZM81.7365 17.9205C81.4212 16.9915 80.7138 16.3693 79.4183 16.3693C78.0376 16.3693 77.0149 17.1534 77.0149 18.2614C77.0149 19.1648 77.5518 19.7699 78.7536 20.0511L79.8445 20.3068C80.505 20.4602 80.8161 20.7756 80.8161 21.2273C80.8161 21.7898 80.2195 22.25 79.282 22.25C78.4595 22.25 77.9439 21.8963 77.7649 21.1932L76.8104 21.4318C77.0447 22.544 77.9609 23.1364 79.299 23.1364C80.8203 23.1364 81.8558 22.3054 81.8558 21.1761C81.8558 20.2642 81.2848 19.6889 80.1172 19.4034L79.1456 19.1648C78.37 18.973 78.0206 18.7131 78.0206 18.2102C78.0206 17.6477 78.6172 17.2386 79.4183 17.2386C80.2962 17.2386 80.6584 17.7244 80.8331 18.1761L81.7365 17.9205ZM85.0458 23.1534C86.1879 23.1534 86.7844 22.5398 86.989 22.1136H87.0401V23H88.0458V18.6875C88.0458 16.608 86.4606 16.3693 85.6254 16.3693C84.6367 16.3693 83.5117 16.7102 83.0004 17.9034L83.9549 18.2443C84.1765 17.767 84.7006 17.2557 85.6594 17.2557C86.5842 17.2557 87.0401 17.7457 87.0401 18.5852V18.6193C87.0401 19.1051 86.5458 19.0625 85.3526 19.2159C84.1381 19.3736 82.8129 19.642 82.8129 21.142C82.8129 22.4205 83.8015 23.1534 85.0458 23.1534ZM85.1992 22.25C84.3981 22.25 83.8185 21.892 83.8185 21.1932C83.8185 20.4261 84.5174 20.1875 85.3015 20.0852C85.7276 20.0341 86.8697 19.9148 87.0401 19.7102V20.6307C87.0401 21.4489 86.3924 22.25 85.1992 22.25ZM92.2734 25.5909C93.8416 25.5909 95.103 24.875 95.103 23.1875V16.4545H94.1314V17.4943H94.0291C93.8075 17.1534 93.3984 16.3693 92.12 16.3693C90.4666 16.3693 89.3246 17.6818 89.3246 19.6932C89.3246 21.7386 90.5178 22.8977 92.103 22.8977C93.3814 22.8977 93.7905 22.1477 94.0121 21.7898H94.0973V23.1193C94.0973 24.2102 93.3303 24.7045 92.2734 24.7045C91.0845 24.7045 90.6669 24.0781 90.3984 23.7159L89.5973 24.2784C90.0064 24.9645 90.8118 25.5909 92.2734 25.5909ZM92.2393 21.9943C90.978 21.9943 90.3303 21.0398 90.3303 19.6761C90.3303 18.3466 90.9609 17.2727 92.2393 17.2727C93.4666 17.2727 94.1143 18.2614 94.1143 19.6761C94.1143 21.125 93.4496 21.9943 92.2393 21.9943ZM99.4382 23.1364C100.768 23.1364 101.739 22.4716 102.046 21.483L101.075 21.2102C100.819 21.892 100.227 22.233 99.4382 22.233C98.2578 22.233 97.4439 21.4702 97.397 20.0682H102.148V19.642C102.148 17.2045 100.7 16.3693 99.3359 16.3693C97.5632 16.3693 96.3871 17.767 96.3871 19.7784C96.3871 21.7898 97.5462 23.1364 99.4382 23.1364ZM97.397 19.1989C97.4652 18.1804 98.1854 17.2727 99.3359 17.2727C100.427 17.2727 101.126 18.0909 101.126 19.1989H97.397ZM108.065 17.9205C107.749 16.9915 107.042 16.3693 105.746 16.3693C104.366 16.3693 103.343 17.1534 103.343 18.2614C103.343 19.1648 103.88 19.7699 105.082 20.0511L106.173 20.3068C106.833 20.4602 107.144 20.7756 107.144 21.2273C107.144 21.7898 106.548 22.25 105.61 22.25C104.788 22.25 104.272 21.8963 104.093 21.1932L103.138 21.4318C103.373 22.544 104.289 23.1364 105.627 23.1364C107.148 23.1364 108.184 22.3054 108.184 21.1761C108.184 20.2642 107.613 19.6889 106.445 19.4034L105.474 19.1648C104.698 18.973 104.349 18.7131 104.349 18.2102C104.349 17.6477 104.945 17.2386 105.746 17.2386C106.624 17.2386 106.987 17.7244 107.161 18.1761L108.065 17.9205Z" fill="white"/>
<mask id="path-3-inside-1" fill="white">
<path fill-rule="evenodd" clip-rule="evenodd" d="M26.8452 37.973C18.4608 37.4902 11.8114 30.5831 11.8114 22.1333C11.8114 13.3703 18.9626 6.2666 27.7841 6.2666C36.3808 6.2666 43.3913 13.0129 43.743 21.4666H43.7576V38H26.8452V37.973Z"/>
</mask>
<path fill-rule="evenodd" clip-rule="evenodd" d="M26.8452 37.973C18.4608 37.4902 11.8114 30.5831 11.8114 22.1333C11.8114 13.3703 18.9626 6.2666 27.7841 6.2666C36.3808 6.2666 43.3913 13.0129 43.743 21.4666H43.7576V38H26.8452V37.973Z" fill="#FF9C00"/>
<path d="M26.8452 37.973L26.9602 35.9763L28.8452 36.0848V37.973H26.8452ZM43.743 21.4666V23.4666H41.8245L41.7448 21.5498L43.743 21.4666ZM43.7576 21.4666V19.4666H45.7576V21.4666H43.7576ZM43.7576 38H45.7576V40H43.7576V38ZM26.8452 38V40H24.8452V38H26.8452ZM13.8114 22.1333C13.8114 29.5055 19.6162 35.5534 26.9602 35.9763L26.7303 39.9697C17.3053 39.427 9.81138 31.6607 9.81138 22.1333H13.8114ZM27.7841 8.2666C20.0546 8.2666 13.8114 14.4875 13.8114 22.1333H9.81138C9.81138 12.2532 17.8706 4.2666 27.7841 4.2666V8.2666ZM41.7448 21.5498C41.4379 14.1746 35.3159 8.2666 27.7841 8.2666V4.2666C37.4457 4.2666 45.3447 11.8511 45.7413 21.3835L41.7448 21.5498ZM43.7576 23.4666H43.743V19.4666H43.7576V23.4666ZM41.7576 38V21.4666H45.7576V38H41.7576ZM26.8452 36H43.7576V40H26.8452V36ZM28.8452 37.973V38H24.8452V37.973H28.8452Z" fill="#FAFAFA" mask="url(#path-3-inside-1)"/>
<mask id="path-5-inside-2" fill="white">
<path fill-rule="evenodd" clip-rule="evenodd" d="M16.9123 31.7064C25.2966 31.2234 31.9458 24.3164 31.9458 15.8667C31.9458 7.10375 24.7946 0 15.9731 0C7.37639 0 0.365915 6.74628 0.0141739 15.2H0V31.7334H16.9123V31.7064Z"/>
</mask>
<path fill-rule="evenodd" clip-rule="evenodd" d="M16.9123 31.7064C25.2966 31.2234 31.9458 24.3164 31.9458 15.8667C31.9458 7.10375 24.7946 0 15.9731 0C7.37639 0 0.365915 6.74628 0.0141739 15.2H0V31.7334H16.9123V31.7064Z" fill="#0066FF"/>
<path d="M16.9123 31.7064L16.7973 29.7097L14.9123 29.8182V31.7064H16.9123ZM0.0141739 15.2V17.2H1.93269L2.01244 15.2832L0.0141739 15.2ZM0 15.2V13.2H-2V15.2H0ZM0 31.7334H-2V33.7334H0V31.7334ZM16.9123 31.7334V33.7334H18.9123V31.7334H16.9123ZM29.9458 15.8667C29.9458 23.2388 24.1412 29.2866 16.7973 29.7097L17.0273 33.703C26.4521 33.1602 33.9458 25.3939 33.9458 15.8667H29.9458ZM15.9731 2C23.7026 2 29.9458 8.22086 29.9458 15.8667H33.9458C33.9458 5.98664 25.8866 -2 15.9731 -2V2ZM2.01244 15.2832C2.31931 7.90804 8.44129 2 15.9731 2V-2C6.31149 -2 -1.58748 5.58453 -1.9841 15.1169L2.01244 15.2832ZM0 17.2H0.0141739V13.2H0V17.2ZM2 31.7334V15.2H-2V31.7334H2ZM16.9123 29.7334H0V33.7334H16.9123V29.7334ZM14.9123 31.7064V31.7334H18.9123V31.7064H14.9123Z" fill="#FAFAFA" mask="url(#path-5-inside-2)"/>
<ellipse cx="9.52993" cy="15.8666" rx="2.28182" ry="2.26667" fill="#59BAD9"/>
<ellipse cx="15.9726" cy="15.8666" rx="2.28182" ry="2.26667" fill="#59BAD9"/>
<ellipse cx="22.4156" cy="15.8666" rx="2.28182" ry="2.26667" fill="#59BAD9"/>
<ellipse cx="34.63" cy="22.1334" rx="2.28182" ry="2.26667" fill="#FAC505"/>
</svg>
