<svg width="24" height="19" viewBox="0 0 24 19" fill="none" xmlns="http://www.w3.org/2000/svg">
<path d="M22.875 0.5H22.5V1.4375C22.5 1.76562 22.2188 2 21.9375 2H20.0625C19.7344 2 19.5 1.76562 19.5 1.4375V0.5H4.5V1.4375C4.5 1.76562 4.21875 2 3.9375 2H2.0625C1.73438 2 1.5 1.76562 1.5 1.4375V0.5H1.125C0.46875 0.5 0 1.01562 0 1.625V17.375C0 18.0312 0.46875 18.5 1.125 18.5H1.5V17.5625C1.5 17.2812 1.73438 17 2.0625 17H3.9375C4.21875 17 4.5 17.2812 4.5 17.5625V18.5H19.5V17.5625C19.5 17.2812 19.7344 17 20.0625 17H21.9375C22.2188 17 22.5 17.2812 22.5 17.5625V18.5H22.875C23.4844 18.5 24 18.0312 24 17.375V1.625C24 1.01562 23.4844 0.5 22.875 0.5ZM4.5 14.9375C4.5 15.2656 4.21875 15.5 3.9375 15.5H2.0625C1.73438 15.5 1.5 15.2656 1.5 14.9375V13.0625C1.5 12.7812 1.73438 12.5 2.0625 12.5H3.9375C4.21875 12.5 4.5 12.7812 4.5 13.0625V14.9375ZM4.5 10.4375C4.5 10.7656 4.21875 11 3.9375 11H2.0625C1.73438 11 1.5 10.7656 1.5 10.4375V8.5625C1.5 8.28125 1.73438 8 2.0625 8H3.9375C4.21875 8 4.5 8.28125 4.5 8.5625V10.4375ZM4.5 5.9375C4.5 6.26562 4.21875 6.5 3.9375 6.5H2.0625C1.73438 6.5 1.5 6.26562 1.5 5.9375V4.0625C1.5 3.78125 1.73438 3.5 2.0625 3.5H3.9375C4.21875 3.5 4.5 3.78125 4.5 4.0625V5.9375ZM17.25 15.6875C17.25 16.0156 16.9688 16.25 16.6875 16.25H7.3125C6.98438 16.25 6.75 16.0156 6.75 15.6875V11.1875C6.75 10.9062 6.98438 10.625 7.3125 10.625H16.6875C16.9688 10.625 17.25 10.9062 17.25 11.1875V15.6875ZM17.25 7.8125C17.25 8.14062 16.9688 8.375 16.6875 8.375H7.3125C6.98438 8.375 6.75 8.14062 6.75 7.8125V3.3125C6.75 3.03125 6.98438 2.75 7.3125 2.75H16.6875C16.9688 2.75 17.25 3.03125 17.25 3.3125V7.8125ZM22.5 14.9375C22.5 15.2656 22.2188 15.5 21.9375 15.5H20.0625C19.7344 15.5 19.5 15.2656 19.5 14.9375V13.0625C19.5 12.7812 19.7344 12.5 20.0625 12.5H21.9375C22.2188 12.5 22.5 12.7812 22.5 13.0625V14.9375ZM22.5 10.4375C22.5 10.7656 22.2188 11 21.9375 11H20.0625C19.7344 11 19.5 10.7656 19.5 10.4375V8.5625C19.5 8.28125 19.7344 8 20.0625 8H21.9375C22.2188 8 22.5 8.28125 22.5 8.5625V10.4375ZM22.5 5.9375C22.5 6.26562 22.2188 6.5 21.9375 6.5H20.0625C19.7344 6.5 19.5 6.26562 19.5 5.9375V4.0625C19.5 3.78125 19.7344 3.5 20.0625 3.5H21.9375C22.2188 3.5 22.5 3.78125 22.5 4.0625V5.9375Z" fill="#00468C"/>
</svg>
