<svg width="23" height="19" viewBox="0 0 23 19" fill="none" xmlns="http://www.w3.org/2000/svg">
<path d="M21.4453 13.3984C21.5508 12.9062 21.5508 12.3789 21.4453 11.8867L22.3594 11.3594C22.4648 11.3242 22.5 11.1836 22.4648 11.0781C22.2188 10.3047 21.832 9.63672 21.3047 9.03906C21.2344 8.96875 21.0938 8.93359 20.9883 9.00391L20.0742 9.53125C19.6875 9.21484 19.2656 8.93359 18.7734 8.79297V7.73828C18.7734 7.59766 18.7031 7.49219 18.5977 7.49219C17.7891 7.31641 17.0156 7.31641 16.2422 7.49219C16.1367 7.49219 16.0664 7.59766 16.0664 7.73828V8.79297C15.5742 8.93359 15.1523 9.21484 14.7656 9.53125L13.8516 9.00391C13.7461 8.93359 13.6055 8.96875 13.5352 9.03906C13.0078 9.63672 12.5859 10.3047 12.375 11.0781C12.3398 11.1836 12.375 11.3242 12.4805 11.3594L13.3945 11.8867C13.2891 12.3789 13.2891 12.9062 13.3945 13.3984L12.4805 13.9258C12.375 13.9609 12.3398 14.1016 12.375 14.207C12.5859 14.9805 13.0078 15.6484 13.5352 16.2461C13.6055 16.3164 13.7461 16.3516 13.8516 16.2812L14.7656 15.7539C15.1523 16.0703 15.5742 16.3516 16.0664 16.4922V17.5469C16.0664 17.6875 16.1367 17.793 16.2422 17.793C17.0508 17.9688 17.8242 17.9688 18.5977 17.793C18.7031 17.793 18.7734 17.6875 18.7734 17.5469V16.4922C19.2656 16.3516 19.6875 16.0703 20.0742 15.7539L20.9883 16.2812C21.0938 16.3516 21.2344 16.3164 21.3047 16.2461C21.832 15.6484 22.2188 14.9805 22.4648 14.207C22.5 14.1016 22.4648 13.9609 22.3594 13.9258L21.4453 13.3984ZM17.4375 14.3477C16.4883 14.3477 15.7148 13.5742 15.7148 12.625C15.7148 11.7109 16.4883 10.9375 17.4375 10.9375C18.3516 10.9375 19.125 11.7109 19.125 12.625C19.125 13.5742 18.3516 14.3477 17.4375 14.3477ZM7.875 9.25C10.3359 9.25 12.375 7.24609 12.375 4.75C12.375 2.28906 10.3359 0.25 7.875 0.25C5.37891 0.25 3.375 2.28906 3.375 4.75C3.375 7.24609 5.37891 9.25 7.875 9.25ZM14.9414 17.2305C14.8359 17.1953 14.7656 17.125 14.6953 17.0898L14.4141 17.2656C14.2031 17.3711 13.957 17.4414 13.7109 17.4414C13.3594 17.4414 12.9727 17.2656 12.7266 16.9844C12.0586 16.3164 11.5664 15.4375 11.2852 14.5586C11.1094 13.9258 11.3555 13.2578 11.918 12.9414L12.1992 12.7656C12.1992 12.6953 12.1992 12.5898 12.1992 12.5195L11.918 12.3438C11.3555 12.0273 11.1094 11.3594 11.2852 10.7266C11.3203 10.6211 11.3906 10.5508 11.4258 10.4453C11.2852 10.4102 11.1445 10.375 11.0039 10.375H10.4062C9.63281 10.7617 8.78906 10.9375 7.875 10.9375C6.96094 10.9375 6.08203 10.7617 5.30859 10.375H4.71094C2.10938 10.375 0 12.5195 0 15.1211V16.5625C0 17.5117 0.738281 18.25 1.6875 18.25H14.0625C14.4141 18.25 14.7305 18.1445 15.0117 17.9688C14.9766 17.8281 14.9414 17.6875 14.9414 17.5469V17.2305Z" fill="#00468C"/>
</svg>
