<svg width="18" height="25" viewBox="0 0 18 25" fill="none" xmlns="http://www.w3.org/2000/svg">
<path d="M16.7812 0.6875L15 2.75L12.4219 0.6875C12.2812 0.59375 12.1406 0.5 12 0.5C11.8125 0.5 11.6719 0.59375 11.5312 0.6875L9 2.75L6.42188 0.6875C6.28125 0.59375 6.14062 0.5 6 0.5C5.8125 0.5 5.67188 0.59375 5.53125 0.6875L3 2.75L1.17188 0.6875C0.703125 0.3125 0 0.640625 0 1.25V23.75C0 24.4062 0.703125 24.7344 1.17188 24.3594L3 22.25L5.53125 24.3594C5.67188 24.4531 5.8125 24.5469 5.95312 24.5469C6.14062 24.5469 6.28125 24.4531 6.42188 24.3594L9 22.25L11.5312 24.3594C11.6719 24.4531 11.8125 24.5469 11.9531 24.5469C12.1406 24.5469 12.2812 24.4531 12.4219 24.3594L15 22.25L16.7812 24.3594C17.25 24.7344 18 24.4062 18 23.75V1.25C18 0.640625 17.2969 0.3125 16.7812 0.6875ZM15 17.375C15 17.6094 14.8125 17.75 14.625 17.75H3.375C3.14062 17.75 3 17.6094 3 17.375V16.625C3 16.4375 3.14062 16.25 3.375 16.25H14.625C14.8125 16.25 15 16.4375 15 16.625V17.375ZM15 12.875C15 13.1094 14.8125 13.25 14.625 13.25H3.375C3.14062 13.25 3 13.1094 3 12.875V12.125C3 11.9375 3.14062 11.75 3.375 11.75H14.625C14.8125 11.75 15 11.9375 15 12.125V12.875ZM15 8.375C15 8.60938 14.8125 8.75 14.625 8.75H3.375C3.14062 8.75 3 8.60938 3 8.375V7.625C3 7.4375 3.14062 7.25 3.375 7.25H14.625C14.8125 7.25 15 7.4375 15 7.625V8.375Z" fill="#00468C"/>
</svg>
