<svg width="30" height="16" viewBox="0 0 30 16" fill="none" xmlns="http://www.w3.org/2000/svg">
<path d="M22.5 0H7.5C3.32812 0 0 3.375 0 7.5C0 11.6719 3.32812 15 7.5 15C9.5625 15 11.4844 14.1562 12.8438 12.75H17.1094C18.4688 14.1562 20.3906 15.0469 22.5 15.0469C26.625 15.0469 30 11.6719 30 7.54688C30 3.375 26.625 0.046875 22.5 0ZM11.625 8.0625C11.625 8.39062 11.3438 8.625 11.0625 8.625H8.625V11.0625C8.625 11.3906 8.34375 11.625 8.0625 11.625H6.9375C6.60938 11.625 6.375 11.3906 6.375 11.0625V8.625H3.9375C3.60938 8.625 3.375 8.39062 3.375 8.0625V6.9375C3.375 6.65625 3.60938 6.375 3.9375 6.375H6.375V3.9375C6.375 3.65625 6.60938 3.375 6.9375 3.375H8.0625C8.34375 3.375 8.625 3.65625 8.625 3.9375V6.375H11.0625C11.3438 6.375 11.625 6.65625 11.625 6.9375V8.0625ZM21.75 11.625C20.6719 11.625 19.875 10.8281 19.875 9.75C19.875 8.71875 20.6719 7.875 21.75 7.875C22.7812 7.875 23.625 8.71875 23.625 9.75C23.625 10.8281 22.7812 11.625 21.75 11.625ZM24.75 7.125C23.6719 7.125 22.875 6.32812 22.875 5.25C22.875 4.21875 23.6719 3.375 24.75 3.375C25.7812 3.375 26.625 4.21875 26.625 5.25C26.625 6.32812 25.7812 7.125 24.75 7.125Z" fill="#00468C"/>
</svg>
