<svg width="107" height="32" viewBox="0 0 107 32" fill="none" xmlns="http://www.w3.org/2000/svg">
<g clip-path="url(#clip0_2716:177)">
<path d="M47.0336 7.06735C47.2115 7.06421 47.3875 7.10127 47.5451 7.17508C47.7026 7.24889 47.8367 7.35704 47.9347 7.48947C48.0412 7.61671 48.1092 7.7662 48.1323 7.92362C48.1553 8.08104 48.1326 8.24109 48.0662 8.38842L45.6545 14.3508C45.537 14.6589 45.3109 14.9249 45.01 15.1091C44.7106 15.2954 44.3534 15.3938 43.9883 15.3905H43.962C43.5679 15.3934 43.1843 15.2779 42.8728 15.0627C42.5614 14.8475 42.3403 14.5451 42.2453 14.2043L41.2455 10.7159L40.2414 14.2043C40.1435 14.5438 39.9218 14.8446 39.6109 15.0594C39.3001 15.2742 38.918 15.3907 38.5247 15.3905H38.5072C38.1435 15.3929 37.788 15.2946 37.4899 15.1091C37.1858 14.925 36.9554 14.6594 36.8321 14.3508L34.4117 8.39233C34.3482 8.24297 34.3286 8.08165 34.3547 7.92365C34.3808 7.76565 34.4517 7.61621 34.5607 7.48947C34.6574 7.35725 34.7903 7.24913 34.9468 7.17528C35.1032 7.10144 35.2782 7.0643 35.4553 7.06735H35.4838C35.7211 7.06635 35.9523 7.13503 36.1415 7.26278C36.328 7.38449 36.4656 7.55647 36.534 7.75329L37.5644 10.6241C37.9357 11.652 38.2397 12.633 38.4765 13.5672H38.5181C38.657 12.9835 39.1561 11.1022 40.0156 7.92331C40.0773 7.67851 40.2323 7.46031 40.454 7.30577C40.6748 7.14998 40.9486 7.06588 41.2302 7.06735H41.2521C41.5339 7.06461 41.8081 7.14885 42.0282 7.30577C42.248 7.46191 42.4025 7.67943 42.4667 7.92331C43.3349 11.1022 43.8363 12.9835 43.9707 13.5672H44.0124C44.2492 12.6291 44.551 11.6481 44.9179 10.6241L45.9615 7.75329C46.031 7.55489 46.1696 7.3814 46.3573 7.25804C46.545 7.13469 46.7719 7.06789 47.0051 7.06735H47.0336Z" fill="#FFEEB3"/>
<path d="M48.77 12.3008C48.7609 11.8967 48.8418 11.4949 49.0082 11.1189C49.1745 10.7428 49.423 10.4 49.7391 10.1101C50.034 9.82021 50.3947 9.58946 50.7973 9.43314C51.1998 9.27681 51.635 9.19849 52.074 9.20336C52.414 9.18346 52.7522 9.26064 53.0396 9.42369C53.327 9.58675 53.5486 9.82719 53.6723 10.1101C53.6735 9.92196 53.758 9.74183 53.9075 9.60896C54.057 9.47609 54.2593 9.40125 54.4704 9.40074H55.0338C55.2475 9.40124 55.4522 9.47685 55.6037 9.61113C55.7552 9.74541 55.8411 9.92753 55.8429 10.1179V15.0036C55.844 15.055 55.8331 15.1061 55.8108 15.1535C55.7885 15.201 55.7554 15.2437 55.7135 15.2791C55.6316 15.3525 55.5205 15.394 55.4044 15.3944H54.4967C54.3608 15.3944 54.1744 15.283 53.942 15.0583C53.8477 14.9681 53.7215 14.9095 53.5846 14.8922C53.4473 14.8758 53.3079 14.9043 53.1922 14.9723C52.7069 15.2537 52.3342 15.3944 52.074 15.3944C51.6352 15.3993 51.2002 15.3211 50.7977 15.1652C50.3952 15.0092 50.0344 14.779 49.7391 14.4896C49.423 14.2001 49.1746 13.8576 49.0083 13.4818C48.8419 13.1061 48.7609 12.7047 48.77 12.3008ZM50.8309 12.252C50.8189 12.6727 50.9639 13.0851 51.2431 13.4245C51.355 13.5717 51.5051 13.6927 51.6807 13.777C51.8563 13.8614 52.0522 13.9067 52.2516 13.9092C52.4872 13.941 52.7279 13.9215 52.9532 13.8525C53.418 13.7098 53.6592 13.3854 53.6723 12.8754V11.3569C53.6014 11.2166 53.4973 11.0915 53.3671 10.9903C53.2369 10.8891 53.0838 10.8142 52.9181 10.7707C52.6977 10.6915 52.4607 10.6559 52.2233 10.6664C51.986 10.6768 51.754 10.7331 51.5435 10.8312C51.3035 10.9457 51.1164 11.1318 51.0151 11.3569C50.8894 11.6159 50.8266 11.8956 50.8309 12.1777V12.252Z" fill="#FFEEB3"/>
<path d="M63.9242 14.4915C63.923 14.7405 63.8111 14.9789 63.613 15.1544C63.4149 15.3299 63.1467 15.4281 62.8674 15.4276H62.8433C62.5648 15.4271 62.2977 15.3284 62.1006 15.153C61.9034 14.9776 61.7921 14.7398 61.7909 14.4915V12.1836C61.7909 11.4944 61.5761 11.056 61.1464 10.8684C60.9228 10.772 60.6743 10.7307 60.4267 10.7489C60.1792 10.7672 59.9416 10.8442 59.7388 10.9719C59.3237 11.2065 59.0825 11.4618 59.0153 11.738C59.0054 11.7865 58.9988 11.8354 58.9956 11.8846V14.4915C58.9944 14.7398 58.8831 14.9776 58.6859 15.153C58.4888 15.3284 58.2218 15.4271 57.9432 15.4276H57.9103C57.6318 15.4271 57.3648 15.3284 57.1676 15.153C56.9704 14.9776 56.8591 14.7398 56.8579 14.4915V9.97528C56.8564 9.89439 56.8733 9.81406 56.9076 9.73915C56.9419 9.66424 56.9929 9.59632 57.0575 9.53949C57.1218 9.48058 57.1989 9.43393 57.2841 9.40236C57.3692 9.37078 57.4607 9.35494 57.553 9.35579H58.3422C58.4322 9.35483 58.5214 9.37069 58.6041 9.40233C58.6868 9.43396 58.7612 9.48069 58.8224 9.53949C58.8865 9.59499 58.9373 9.66157 58.9716 9.73516C59.0059 9.80874 59.023 9.88779 59.0219 9.96747C59.8872 9.51408 60.4229 9.26915 60.6289 9.23267C61.6769 9.04115 62.5079 9.28804 63.1217 9.97333C63.6523 10.5726 63.9198 11.3498 63.9242 12.3047V14.4915Z" fill="#FFEEB3"/>
<path d="M72.0078 14.4915C72.0066 14.7398 71.8953 14.9776 71.6981 15.153C71.501 15.3284 71.234 15.4271 70.9554 15.4276H70.9357C70.6575 15.4266 70.3911 15.3276 70.1944 15.1523C69.9977 14.977 69.8866 14.7395 69.8855 14.4915V12.1836C69.8855 11.4944 69.6662 11.056 69.2278 10.8684C69.0042 10.772 68.7557 10.7307 68.5081 10.7489C68.2606 10.7672 68.023 10.8442 67.8202 10.9719C67.3949 11.2052 67.1522 11.4605 67.0923 11.738C67.0824 11.7865 67.0758 11.8354 67.0726 11.8846V14.4915C67.0714 14.7398 66.9601 14.9776 66.7629 15.153C66.5658 15.3284 66.2988 15.4271 66.0202 15.4276H65.9851C65.707 15.4266 65.4405 15.3276 65.2438 15.1523C65.0471 14.977 64.9361 14.7395 64.9349 14.4915V9.97528C64.9326 9.8943 64.9491 9.81376 64.9835 9.73875C65.0178 9.66375 65.0692 9.5959 65.1345 9.53949C65.1982 9.48046 65.2749 9.4337 65.3598 9.40211C65.4446 9.37051 65.5358 9.35475 65.6278 9.35579H66.417C66.507 9.35483 66.5962 9.37069 66.6789 9.40233C66.7616 9.43396 66.836 9.48069 66.8972 9.53949C66.9613 9.59499 67.0121 9.66157 67.0464 9.73516C67.0807 9.80874 67.0978 9.88779 67.0967 9.96747C67.962 9.51408 68.4977 9.26915 68.7038 9.23267C69.7517 9.04115 70.5827 9.28804 71.1966 9.97333C71.7271 10.5726 71.9954 11.3498 72.0012 12.3047L72.0078 14.4915Z" fill="#FFEEB3"/>
<path d="M72.7554 12.3008C72.7463 11.8967 72.8272 11.495 72.9936 11.1189C73.1599 10.7428 73.4083 10.4 73.7245 10.1101C74.0191 9.82037 74.3794 9.58969 74.7816 9.43337C75.1837 9.27705 75.6185 9.19865 76.0572 9.20336C76.3975 9.18335 76.736 9.26045 77.0238 9.42349C77.3116 9.58653 77.5336 9.82704 77.6577 10.1101C77.6589 9.92197 77.7434 9.74184 77.8929 9.60897C78.0423 9.4761 78.2447 9.40125 78.4558 9.40074H79.017C79.231 9.40073 79.4364 9.47611 79.5883 9.61045C79.7403 9.74478 79.8265 9.9272 79.8282 10.1179V15.0036C79.8294 15.0552 79.8183 15.1064 79.7956 15.1539C79.7729 15.2014 79.7392 15.2441 79.6967 15.2791C79.657 15.3159 79.6093 15.3451 79.5566 15.365C79.5038 15.3848 79.447 15.3948 79.3897 15.3944H78.4821C78.3439 15.3944 78.1598 15.283 77.9252 15.0583C77.8316 14.9683 77.7063 14.9096 77.57 14.8922C77.4326 14.8758 77.2933 14.9043 77.1776 14.9723C76.693 15.2537 76.3181 15.3944 76.0572 15.3944C75.6188 15.399 75.1842 15.3207 74.7821 15.1648C74.38 15.0088 74.0195 14.7787 73.7245 14.4896C73.4084 14.2001 73.16 13.8576 72.9936 13.4819C72.8273 13.1061 72.7463 12.7047 72.7554 12.3008ZM74.8163 12.252C74.8043 12.6727 74.9493 13.0851 75.2285 13.4245C75.3404 13.5717 75.4905 13.6927 75.6661 13.777C75.8417 13.8614 76.0375 13.9068 76.237 13.9092C76.4718 13.941 76.7118 13.9215 76.9364 13.8525C77.4027 13.7105 77.6431 13.3848 77.6577 12.8754V11.3569C77.5865 11.2167 77.4823 11.0918 77.3522 10.9906C77.2221 10.8895 77.069 10.8145 76.9035 10.7707C76.6831 10.6915 76.446 10.6559 76.2087 10.6664C75.9714 10.6769 75.7394 10.7331 75.5288 10.8312C75.2889 10.9457 75.1018 11.1318 75.0005 11.3569C74.8748 11.6159 74.812 11.8956 74.8163 12.1777V12.252Z" fill="#FFEEB3"/>
<path d="M86.673 12.4533V14.431C86.673 14.6901 86.5576 14.9386 86.352 15.1219C86.1464 15.3051 85.8676 15.4081 85.5768 15.4081H85.5571C85.2664 15.4081 84.9875 15.3051 84.7819 15.1219C84.5764 14.9386 84.4609 14.6901 84.4609 14.431V8.00149C84.4583 7.87174 84.4855 7.7429 84.5409 7.62291C84.5964 7.50292 84.6788 7.39432 84.7832 7.30382C84.8875 7.21255 85.0113 7.14081 85.1472 7.09282C85.2831 7.04482 85.4285 7.02155 85.5746 7.02437H88.1771C88.3149 7.02486 88.4526 7.03335 88.5892 7.04977L88.6506 7.0615C89.3651 7.15492 90.0172 7.47645 90.4857 7.96631C90.9685 8.45061 91.2325 9.07731 91.2268 9.72514C91.2155 10.3043 91.0151 10.8679 90.6501 11.3472C90.4213 11.6883 90.0944 11.9688 89.7031 12.1595C89.3119 12.3502 88.8705 12.4442 88.4248 12.4318L86.673 12.4533ZM86.673 10.9544H87.7561C87.9365 10.9569 88.1153 10.9248 88.2806 10.8604C88.4459 10.796 88.5938 10.7008 88.7142 10.5811C88.8436 10.4616 88.9452 10.3205 89.0133 10.1659C89.0814 10.0113 89.1146 9.84624 89.1111 9.68019C89.1169 9.3462 88.9742 9.02373 88.7142 8.78319C88.5944 8.66334 88.4469 8.56796 88.282 8.50354C88.117 8.43912 87.9384 8.40719 87.7583 8.40993H86.6752L86.673 10.9544Z" fill="#FFEEB3"/>
<path d="M92.084 12.3008C92.0754 11.8968 92.1566 11.4951 92.3229 11.1191C92.4892 10.7431 92.7374 10.4002 93.0531 10.1101C93.3481 9.82022 93.7087 9.58946 94.1113 9.43314C94.5138 9.27682 94.949 9.1985 95.3881 9.20336C95.7283 9.18335 96.0669 9.26045 96.3546 9.42349C96.6424 9.58653 96.8644 9.82704 96.9885 10.1101C96.9891 9.92215 97.0732 9.74201 97.2223 9.60909C97.3714 9.47616 97.5735 9.40126 97.7844 9.40074H98.3479C98.5617 9.40074 98.7668 9.47618 98.9184 9.61057C99.07 9.74496 99.1557 9.92738 99.1569 10.1179V15.0036C99.158 15.055 99.1471 15.1061 99.1248 15.1535C99.1026 15.201 99.0694 15.2437 99.0275 15.2791C98.9457 15.3525 98.8345 15.394 98.7184 15.3944H97.8107C97.6748 15.3944 97.4884 15.283 97.256 15.0583C97.162 14.9678 97.0357 14.909 96.8986 14.8922C96.7613 14.876 96.622 14.9044 96.5062 14.9723C96.0209 15.2537 95.6482 15.3944 95.3881 15.3944C94.9492 15.3993 94.5142 15.3211 94.1117 15.1652C93.7092 15.0092 93.3484 14.779 93.0531 14.4896C92.7374 14.1999 92.4893 13.8573 92.323 13.4816C92.1566 13.1059 92.0754 12.7046 92.084 12.3008ZM94.1449 12.252C94.1339 12.6726 94.2788 13.0847 94.5571 13.4245C94.6693 13.5715 94.8195 13.6922 94.995 13.7766C95.1705 13.861 95.3662 13.9064 95.5656 13.9092C95.8012 13.941 96.0419 13.9215 96.2672 13.8525C96.7342 13.7099 96.9732 13.3854 96.9885 12.8754V11.3569C96.9171 11.2165 96.8126 11.0915 96.6821 10.9903C96.5515 10.8891 96.3981 10.8142 96.2321 10.7707C96.0121 10.6915 95.7754 10.656 95.5384 10.6664C95.3015 10.6769 95.0699 10.7331 94.8597 10.8312C94.6192 10.9451 94.432 11.1314 94.3313 11.3569C94.2038 11.6154 94.1403 11.8954 94.1449 12.1777V12.252Z" fill="#FFEEB3"/>
<path d="M105.158 9.36946C105.313 9.36754 105.467 9.39928 105.606 9.46198C105.745 9.52467 105.864 9.61644 105.955 9.72942C106.045 9.8424 106.103 9.97322 106.124 10.1107C106.146 10.2481 106.129 10.3881 106.076 10.5186C104.696 14.0518 103.988 15.8719 103.95 15.9787C103.746 16.6137 103.302 17.1663 102.693 17.5421C102.371 17.7413 102.005 17.878 101.619 17.9433C101.234 18.0086 100.837 18.0011 100.455 17.9212C100.335 17.8984 100.218 17.8636 100.106 17.8177C99.9559 17.7672 99.8275 17.6755 99.7396 17.5557C99.6517 17.4359 99.6089 17.2942 99.6173 17.1513V17.1474C99.6155 17.0529 99.6354 16.9591 99.6757 16.8717C99.7161 16.7843 99.776 16.7052 99.8519 16.6392C99.9235 16.5708 100.011 16.5164 100.107 16.4797C100.204 16.443 100.308 16.4248 100.413 16.4262C100.609 16.4218 100.801 16.3798 100.977 16.3031C101.415 16.1077 101.634 15.6758 101.634 14.9879V14.9566C101.471 14.2062 100.844 12.7496 99.7532 10.5869C99.6801 10.4564 99.6478 10.3108 99.6598 10.1653C99.6717 10.0198 99.7275 9.87991 99.8212 9.7603C99.9065 9.63646 100.027 9.53502 100.171 9.46635C100.314 9.39768 100.476 9.36424 100.639 9.36946H100.81C101.015 9.36776 101.215 9.42536 101.38 9.53361C101.547 9.63744 101.671 9.78808 101.731 9.96159L103.068 13.5789C103.206 13.0278 103.591 11.8285 104.224 9.98113C104.282 9.80387 104.405 9.6487 104.572 9.53947C104.739 9.42856 104.941 9.36889 105.149 9.36946H105.158Z" fill="#FFEEB3"/>
<path d="M40.6263 23.5522C40.6574 23.6213 40.6683 23.6963 40.6578 23.7702C40.6474 23.844 40.616 23.9143 40.5667 23.9744C40.5196 24.0361 40.456 24.0864 40.3817 24.1207C40.3073 24.155 40.2245 24.1723 40.1407 24.1708C40.0336 24.1699 39.9295 24.1393 39.8429 24.0832C39.7542 24.0255 39.6893 23.9434 39.6582 23.8496L39.4288 23.2867H38.0259L37.8293 23.8522C37.8012 23.948 37.7357 24.0318 37.6446 24.0885C37.5585 24.1459 37.4542 24.1775 37.3467 24.1788H37.2931C37.2075 24.1819 37.1224 24.1659 37.0455 24.1322C36.9686 24.0986 36.9024 24.0484 36.8527 23.9862C36.803 23.924 36.7715 23.8518 36.761 23.776C36.7506 23.7002 36.7615 23.6233 36.7927 23.5522L37.8501 20.7936C37.9081 20.6404 38.0181 20.507 38.1648 20.4119C38.3116 20.3167 38.4878 20.2646 38.6693 20.2626C38.8487 20.2603 39.0242 20.3097 39.1697 20.4033C39.3169 20.4928 39.4276 20.6222 39.4854 20.7724L40.6263 23.5522ZM39.1548 22.5114C38.982 22.0335 38.8569 21.5742 38.7289 21.1361H38.711C38.6306 21.4839 38.4906 21.9326 38.2969 22.5194L39.1548 22.5114Z" fill="#FAB923"/>
<path d="M42.1811 23.7221C42.182 23.7827 42.1692 23.8428 42.1437 23.8988C42.1181 23.9549 42.0802 24.0059 42.0322 24.0487C41.9847 24.0923 41.9277 24.1269 41.8647 24.1501C41.8017 24.1734 41.734 24.185 41.6658 24.1841C41.5958 24.1874 41.5258 24.1778 41.4601 24.156C41.3944 24.1342 41.3344 24.1006 41.2839 24.0573C41.2334 24.014 41.1933 23.9619 41.1663 23.9043C41.1392 23.8466 41.1257 23.7846 41.1267 23.7221V20.7485C41.1259 20.6879 41.1386 20.6277 41.1642 20.5715C41.1898 20.5153 41.2277 20.4642 41.2756 20.4212C41.3236 20.3782 41.3807 20.3441 41.4436 20.321C41.5065 20.2979 41.5739 20.2862 41.642 20.2865H41.9398C42.0245 20.2839 42.1084 20.3011 42.1831 20.3366C42.2579 20.372 42.3209 20.4243 42.3658 20.4883L44.2185 22.8778V20.7485C44.2177 20.6879 44.2305 20.6277 44.2561 20.5715C44.2816 20.5153 44.3195 20.4642 44.3675 20.4212C44.4155 20.3782 44.4726 20.3441 44.5355 20.321C44.5984 20.2979 44.6658 20.2862 44.7338 20.2865C44.802 20.2856 44.8697 20.2972 44.9327 20.3205C44.9957 20.3438 45.0527 20.3783 45.1002 20.4219C45.1482 20.4648 45.1861 20.5157 45.2117 20.5718C45.2373 20.6279 45.25 20.688 45.2491 20.7485V23.4487C45.2528 23.5473 45.2332 23.6455 45.1916 23.737C45.1501 23.8284 45.0875 23.9111 45.0079 23.9797C44.9332 24.0489 44.8434 24.1037 44.744 24.1407C44.6446 24.1777 44.5377 24.1961 44.43 24.1947C44.289 24.1987 44.1494 24.1682 44.0265 24.1064C43.9036 24.0446 43.8021 23.9539 43.733 23.8443L42.1662 21.5742L42.1811 23.7221Z" fill="#FAB923"/>
<path d="M46.6789 22.9124L45.5619 20.937C45.5241 20.8685 45.5065 20.7926 45.5106 20.7163C45.5146 20.6401 45.5403 20.566 45.5853 20.501C45.6302 20.4361 45.6929 20.3823 45.7675 20.3448C45.842 20.3073 45.9261 20.2872 46.0117 20.2865H46.0713C46.1739 20.2811 46.2757 20.3063 46.3604 20.3583C46.4451 20.4102 46.5079 20.4859 46.5389 20.5733C46.95 21.5211 47.1853 22.0681 47.2508 22.2114L47.9776 20.5733C48.0097 20.4859 48.0732 20.4104 48.1583 20.3586C48.2434 20.3067 48.3453 20.2814 48.4483 20.2865C48.5357 20.284 48.6223 20.3029 48.6985 20.3413C48.7747 20.3797 48.8375 20.4361 48.8802 20.5042C48.926 20.5705 48.9503 20.6468 48.9503 20.7246C48.9503 20.8024 48.926 20.8787 48.8802 20.945L47.7274 22.8805V23.7168C47.7282 23.7782 47.7153 23.839 47.6894 23.8959C47.6635 23.9527 47.6252 24.0044 47.5767 24.0479C47.5282 24.0914 47.4704 24.1258 47.4068 24.1492C47.3432 24.1726 47.275 24.1845 47.2062 24.1841C47.1373 24.1841 47.0691 24.172 47.0055 24.1486C46.9419 24.1251 46.8841 24.0907 46.8355 24.0473C46.7868 24.0039 46.7482 23.9524 46.7218 23.8957C46.6955 23.839 46.6819 23.7782 46.6819 23.7168L46.6789 22.9124Z" fill="#FAB923"/>
<path d="M49.0916 20.6821C49.079 20.6351 49.0785 20.5861 49.0902 20.5389C49.1018 20.4917 49.1252 20.4474 49.1587 20.4094C49.1922 20.3713 49.2349 20.3406 49.2836 20.3193C49.3324 20.298 49.3858 20.2868 49.4401 20.2865H52.1477C52.2022 20.2856 52.2562 20.2964 52.3049 20.3181C52.3537 20.3399 52.3958 20.3719 52.4277 20.4113C52.4612 20.4479 52.4844 20.4911 52.4953 20.5373C52.5061 20.5835 52.5044 20.6313 52.4902 20.6768C52.4735 20.7474 52.4278 20.8099 52.3621 20.8521C52.3006 20.8962 52.2237 20.9197 52.1447 20.9184H51.3345V23.7089C51.3357 23.7715 51.3226 23.8337 51.2959 23.8917C51.2693 23.9496 51.2297 24.0022 51.1796 24.0461C51.1301 24.0905 51.0712 24.1256 51.0062 24.1493C50.9412 24.173 50.8715 24.1849 50.8013 24.1841C50.7307 24.1846 50.6607 24.1727 50.5952 24.149C50.5298 24.1253 50.4703 24.0903 50.4201 24.0461C50.3695 24.0023 50.3295 23.9498 50.3024 23.8919C50.2752 23.8339 50.2616 23.7717 50.2622 23.7089V20.9291H49.4401C49.3602 20.9303 49.2823 20.9068 49.2197 20.8627C49.1575 20.8181 49.1135 20.7565 49.0945 20.6874L49.0916 20.6821Z" fill="#FAB923"/>
<path d="M53.9617 23.6956C53.9625 23.757 53.9492 23.8179 53.9226 23.8745C53.8959 23.9312 53.8565 23.9823 53.8068 24.0248C53.7596 24.0697 53.7023 24.1051 53.6386 24.1289C53.575 24.1527 53.5064 24.1643 53.4375 24.1629C53.2984 24.1629 53.1651 24.1136 53.0668 24.026C52.9684 23.9384 52.9132 23.8195 52.9132 23.6956V20.7352C52.9124 20.6737 52.9254 20.6126 52.9515 20.5556C52.9776 20.4986 53.0161 20.4468 53.065 20.4032C53.1138 20.3597 53.1719 20.3253 53.2359 20.3021C53.2999 20.2788 53.3684 20.2672 53.4375 20.2679C53.5062 20.2667 53.5744 20.2781 53.6379 20.3014C53.7015 20.3247 53.759 20.3594 53.8068 20.4034C53.8566 20.4464 53.896 20.498 53.9227 20.555C53.9493 20.6121 53.9626 20.6734 53.9617 20.7352V23.6956Z" fill="#FAB923"/>
<path d="M55.3944 23.7487C55.3948 23.8034 55.383 23.8576 55.3596 23.9082C55.3362 23.9588 55.3017 24.0047 55.2582 24.0433C55.2146 24.0819 55.1629 24.1123 55.106 24.1328C55.0491 24.1534 54.9881 24.1636 54.9268 24.1629C54.8656 24.164 54.8049 24.1538 54.7484 24.1327C54.692 24.1117 54.6411 24.0804 54.5991 24.0407C54.5549 24.0031 54.52 23.9577 54.4964 23.9075C54.4728 23.8572 54.4611 23.8031 54.4621 23.7487V21.0326C54.4617 20.9321 54.4836 20.8325 54.5266 20.7395C54.5696 20.6466 54.6327 20.5622 54.7125 20.4911C54.7922 20.42 54.8869 20.3637 54.9912 20.3254C55.0955 20.2871 55.2072 20.2676 55.3199 20.2679C55.5063 20.2661 55.6878 20.3204 55.8353 20.4219C55.9832 20.52 56.0884 20.6607 56.1331 20.8202L56.8718 23.0876L57.5927 20.8228C57.6406 20.664 57.7452 20.5233 57.8905 20.4219C58.0388 20.3198 58.2215 20.2655 58.4088 20.2679C58.5241 20.264 58.639 20.2809 58.7468 20.3176C58.8545 20.3543 58.9528 20.41 59.0357 20.4814C59.1186 20.5529 59.1845 20.6385 59.2293 20.7332C59.2741 20.828 59.297 20.9298 59.2965 21.0326V23.7487C59.2957 23.8583 59.2465 23.9633 59.1595 24.0408C59.0725 24.1183 58.9548 24.1622 58.8318 24.1629C58.7707 24.1632 58.7101 24.1527 58.6535 24.1321C58.597 24.1114 58.5456 24.0809 58.5024 24.0423C58.4591 24.0038 58.4249 23.958 58.4017 23.9076C58.3785 23.8572 58.3667 23.8032 58.3671 23.7487V21.306L57.5986 23.6823C57.5569 23.8216 57.4621 23.9436 57.3306 24.0275C57.2041 24.1162 57.0476 24.1639 56.8867 24.1629C56.725 24.1635 56.5677 24.1158 56.4399 24.0275C56.3102 23.9426 56.2167 23.8208 56.1748 23.6823L55.4093 21.306L55.3944 23.7487Z" fill="#FAB923"/>
<path d="M62.2752 23.462C62.3273 23.4614 62.379 23.4703 62.4271 23.4881C62.4752 23.5059 62.5188 23.5322 62.5552 23.5655C62.5951 23.5995 62.6262 23.6409 62.6463 23.6868C62.6663 23.7327 62.6749 23.7819 62.6713 23.831C62.6713 23.9247 62.6296 24.0145 62.5553 24.0807C62.481 24.1469 62.3802 24.1841 62.2752 24.1841H60.3837C60.3008 24.1845 60.2187 24.1702 60.142 24.142C60.0654 24.1138 59.9958 24.0723 59.9374 24.0199C59.8789 23.9675 59.8327 23.9053 59.8014 23.8369C59.7701 23.7685 59.7544 23.6952 59.7552 23.6213V20.8494C59.7527 20.7754 59.7675 20.7017 59.7988 20.6331C59.8301 20.5646 59.8772 20.5026 59.9369 20.4511C59.9952 20.3984 60.0648 20.3567 60.1416 20.3284C60.2183 20.3001 60.3007 20.2859 60.3837 20.2865H62.1709C62.231 20.2855 62.2906 20.297 62.3449 20.32C62.3992 20.343 62.4467 20.377 62.4837 20.4193C62.5214 20.4607 62.5479 20.5093 62.5613 20.5613C62.5748 20.6133 62.5747 20.6673 62.5611 20.7193C62.5434 20.7995 62.4937 20.8712 62.4211 20.9211C62.3502 20.9718 62.2618 20.999 62.1709 20.9981H60.8126V21.5689H62.0935C62.1456 21.5682 62.1974 21.577 62.2455 21.5948C62.2937 21.6126 62.3372 21.6391 62.3735 21.6725C62.4119 21.7042 62.4424 21.7429 62.463 21.7859C62.4835 21.8289 62.4936 21.8753 62.4926 21.922C62.4931 21.9691 62.4828 22.0158 62.4623 22.0591C62.4418 22.1025 62.4116 22.1417 62.3735 22.1743C62.3372 22.2077 62.2937 22.2341 62.2455 22.2519C62.1974 22.2697 62.1456 22.2785 62.0935 22.2778H60.8126V23.4434L62.2752 23.462Z" fill="#FAB923"/>
<path d="M67.8244 22.6017C67.9181 22.5106 68.0445 22.4514 68.1818 22.4344C68.2846 22.4281 68.3861 22.4576 68.4648 22.5168C68.544 22.5711 68.5981 22.6496 68.6167 22.7371C68.6289 22.7824 68.6302 22.8295 68.6204 22.8753C68.6106 22.9211 68.5901 22.9645 68.5601 23.0026C68.4754 23.1296 68.3756 23.248 68.2623 23.3557L68.4052 23.4938C68.4613 23.5465 68.499 23.6127 68.5136 23.6842C68.5283 23.7557 68.5193 23.8294 68.4877 23.8964C68.4561 23.9634 68.4033 24.0208 68.3358 24.0615C68.2683 24.1022 68.1889 24.1245 68.1074 24.1257H68.0925C68.0204 24.1267 67.9488 24.1145 67.8822 24.0898C67.8156 24.0652 67.7554 24.0286 67.7053 23.9823L67.5623 23.8496C67.1868 24.0839 66.7366 24.204 66.2785 24.1921C65.8297 24.216 65.3866 24.0923 65.0334 23.8443C64.9084 23.7519 64.8082 23.6358 64.7402 23.5044C64.6721 23.373 64.638 23.2296 64.6402 23.0849C64.6402 22.5991 64.9381 22.2274 65.5338 21.9645V21.9486C65.3079 21.7466 65.1788 21.4744 65.1734 21.1892C65.173 21.057 65.2044 20.9263 65.2656 20.8058C65.3267 20.6853 65.4162 20.578 65.5278 20.491C65.8203 20.2614 66.2021 20.1432 66.5912 20.1617C66.9164 20.149 67.2367 20.2351 67.4997 20.406C67.6146 20.4843 67.7069 20.5858 67.769 20.7021C67.8312 20.8184 67.8614 20.9463 67.8572 21.0751C67.8572 21.4866 67.5593 21.8211 66.9338 22.0734V22.0973L67.2316 22.3628C67.3538 22.4822 67.4461 22.5725 67.5116 22.6283C67.5341 22.6509 67.5623 22.6686 67.5939 22.6796C67.6255 22.6907 67.6596 22.6949 67.6933 22.692C67.7273 22.6901 67.7603 22.6811 67.7898 22.6659C67.8192 22.6507 67.8443 22.6297 67.8631 22.6044L67.8244 22.6017ZM66.3023 23.5522C66.4318 23.5528 66.5598 23.5284 66.6776 23.4805C66.6995 23.4718 66.7184 23.4582 66.7325 23.441C66.7466 23.4237 66.7554 23.4035 66.758 23.3823C66.7631 23.3618 66.7616 23.3405 66.7537 23.3208C66.7458 23.3011 66.7318 23.2838 66.7134 23.2708C66.6478 23.2177 66.3887 22.9787 65.9359 22.5619C65.8437 22.6083 65.7661 22.6748 65.7104 22.7551C65.6546 22.8354 65.6226 22.9269 65.6172 23.0212C65.6161 23.0914 65.632 23.1609 65.6638 23.2251C65.6957 23.2893 65.7428 23.3465 65.8019 23.3929C65.939 23.5021 66.1186 23.5592 66.3023 23.5522ZM66.4959 20.7087C66.4391 20.7072 66.3826 20.7175 66.3309 20.7387C66.2793 20.7598 66.2338 20.7914 66.198 20.8308C66.1313 20.9064 66.0956 21.0001 66.0968 21.0963C66.1039 21.2698 66.1799 21.4354 66.3112 21.5636C66.3222 21.5789 66.3369 21.5918 66.3542 21.6014C66.3715 21.611 66.391 21.6171 66.4113 21.6191C66.4316 21.6212 66.4521 21.6191 66.4714 21.6132C66.4906 21.6073 66.5082 21.5976 66.5227 21.5848C66.6251 21.534 66.7122 21.4617 66.7765 21.3744C66.8408 21.287 66.8805 21.187 66.8921 21.083C66.8959 20.9873 66.8622 20.8935 66.7968 20.8175C66.7625 20.7766 66.7173 20.744 66.6653 20.7226C66.6133 20.7013 66.556 20.6919 66.4989 20.6954L66.4959 20.7087Z" fill="#FAB923"/>
<path d="M74.4877 23.5522C74.519 23.6214 74.5297 23.6967 74.5187 23.7706C74.5078 23.8446 74.4755 23.9148 74.4252 23.9744C74.379 24.0363 74.316 24.0867 74.242 24.1211C74.1681 24.1554 74.0856 24.1726 74.0022 24.1709C73.8951 24.17 73.791 24.1393 73.7043 24.0832C73.6158 24.0249 73.5501 23.9431 73.5167 23.8496L73.3082 23.2788H71.9082L71.7116 23.8443C71.6781 23.9429 71.6063 24.0276 71.5091 24.0832C71.4234 24.1414 71.3189 24.1731 71.2112 24.1735H71.1576C71.0717 24.178 70.986 24.1634 70.9081 24.1308C70.8303 24.0982 70.7628 24.0488 70.7119 23.987C70.661 23.9253 70.6282 23.8531 70.6166 23.7772C70.6049 23.7013 70.6148 23.6239 70.6453 23.5522L71.7116 20.7883C71.7689 20.6365 71.8796 20.5052 72.0273 20.414C72.1725 20.3172 72.3495 20.2658 72.5307 20.268C72.7093 20.2653 72.884 20.3147 73.0282 20.4087C73.1763 20.4978 73.2881 20.6273 73.3469 20.7777L74.4877 23.5522ZM72.9984 22.5115C72.8256 22.0336 72.6856 21.5742 72.5724 21.1362H72.5546C72.4712 21.484 72.3341 21.9327 72.1376 22.5194L72.9984 22.5115Z" fill="#FAB923"/>
<path d="M76.0336 23.7221C76.0336 23.7828 76.0202 23.8429 75.9942 23.8989C75.9681 23.955 75.93 24.0059 75.8818 24.0488C75.8337 24.0917 75.7766 24.1257 75.7137 24.1489C75.6508 24.1722 75.5834 24.1841 75.5154 24.1841C75.3779 24.1841 75.2461 24.1354 75.1489 24.0488C75.0517 23.9622 74.9971 23.8447 74.9971 23.7221V20.7485C74.9971 20.626 75.0517 20.5085 75.1489 20.4218C75.2461 20.3352 75.3779 20.2865 75.5154 20.2865H75.8132C75.8982 20.2839 75.9825 20.3012 76.0578 20.3366C76.133 20.372 76.1965 20.4243 76.2421 20.4883L78.0919 22.8778V20.7485C78.0909 20.6877 78.1039 20.6274 78.13 20.5712C78.1561 20.515 78.1948 20.4642 78.2438 20.4219C78.2916 20.3786 78.3487 20.3444 78.4116 20.3211C78.4745 20.2979 78.542 20.2861 78.6102 20.2865C78.6785 20.285 78.7464 20.2962 78.8095 20.3196C78.8726 20.3429 78.9295 20.3778 78.9765 20.4219C79.0255 20.4642 79.0642 20.515 79.0903 20.5712C79.1165 20.6274 79.1294 20.6877 79.1285 20.7485V23.4487C79.1285 23.6428 79.0424 23.8291 78.8889 23.9668C78.7355 24.1046 78.5271 24.1827 78.3093 24.1841H78.2944C78.1529 24.1886 78.0127 24.1582 77.8893 24.0964C77.7658 24.0346 77.6638 23.9437 77.5944 23.8336L76.0307 21.5636L76.0336 23.7221Z" fill="#FAB923"/>
<path d="M80.5284 22.9124L79.4144 20.937C79.3766 20.8685 79.359 20.7926 79.363 20.7163C79.3671 20.6401 79.3928 20.566 79.4378 20.501C79.4827 20.4361 79.5454 20.3823 79.6199 20.3448C79.6945 20.3073 79.7786 20.2872 79.8642 20.2865H79.9238C80.0264 20.2811 80.1282 20.3063 80.2129 20.3583C80.2976 20.4102 80.3604 20.4859 80.3914 20.5733C80.8005 21.5202 81.0378 22.0663 81.1033 22.2114L81.8182 20.5733C81.8502 20.4859 81.9137 20.4104 81.9988 20.3586C82.084 20.3067 82.1859 20.2814 82.2888 20.2865C82.3759 20.2839 82.4622 20.3028 82.5379 20.3412C82.6136 20.3797 82.6759 20.4361 82.7178 20.5042C82.7666 20.569 82.7938 20.6447 82.7965 20.7227C82.7991 20.8007 82.777 20.8777 82.7327 20.945L81.5769 22.8805V23.7168C81.5785 23.7781 81.5663 23.8391 81.5409 23.8961C81.5155 23.9531 81.4774 24.0049 81.4291 24.0485C81.3807 24.0922 81.323 24.1266 81.2593 24.1499C81.1957 24.1732 81.1274 24.1848 81.0586 24.1841H81.0408C80.9017 24.1841 80.7684 24.1349 80.6701 24.0473C80.5718 23.9596 80.5165 23.8408 80.5165 23.7168L80.5284 22.9124Z" fill="#FAB923"/>
<path d="M88.8418 20.2866C88.9255 20.2849 89.0083 20.3023 89.0823 20.3372C89.1564 20.372 89.2192 20.4231 89.2648 20.4857C89.3147 20.545 89.3466 20.6147 89.3575 20.6882C89.3685 20.7616 89.3581 20.8363 89.3274 20.9052L88.1895 23.6956C88.1355 23.8396 88.0311 23.9643 87.8917 24.0514C87.753 24.1383 87.5875 24.1846 87.418 24.1842C87.2331 24.1855 87.0533 24.1302 86.9087 24.0275C86.7593 23.9295 86.6537 23.7875 86.6108 23.6266L86.1402 21.9937L85.6725 23.6266C85.6289 23.7872 85.5235 23.929 85.3747 24.0275C85.2309 24.1298 85.0522 24.1851 84.8683 24.1842C84.6972 24.1845 84.5301 24.1378 84.3899 24.0504C84.2497 23.9629 84.1432 23.839 84.0849 23.6956L82.9351 20.8972C82.9044 20.8284 82.894 20.7536 82.905 20.6802C82.9159 20.6067 82.9478 20.537 82.9977 20.4777C83.0446 20.4162 83.1084 20.3664 83.1829 20.333C83.2574 20.2996 83.3403 20.2836 83.4236 20.2866C83.5329 20.2878 83.639 20.3194 83.7271 20.377C83.8153 20.4346 83.881 20.5153 83.9151 20.6078L84.4096 21.9592C84.5823 22.4407 84.7243 22.9 84.8355 23.3372H84.8564C84.9179 23.0611 85.1513 22.1761 85.5564 20.6822C85.5851 20.5674 85.6578 20.4651 85.7619 20.3928C85.8652 20.3197 85.9934 20.2804 86.1253 20.2812C86.2573 20.2795 86.3859 20.3189 86.4887 20.3928C86.5923 20.4659 86.6656 20.5677 86.6972 20.6822C87.0944 22.169 87.3277 23.054 87.3972 23.3372H87.418C87.5283 22.8991 87.6712 22.4398 87.841 21.9592L88.3265 20.6158C88.36 20.523 88.4257 20.4421 88.5142 20.3848C88.5999 20.3268 88.7044 20.2951 88.8121 20.2945L88.8418 20.2866Z" fill="#FAB923"/>
<path d="M90.7989 21.4415H92.2882V20.7352C92.2874 20.6737 92.3004 20.6126 92.3265 20.5556C92.3526 20.4986 92.3911 20.4468 92.44 20.4032C92.4888 20.3597 92.5469 20.3253 92.6109 20.3021C92.6749 20.2788 92.7434 20.2672 92.8125 20.2679C92.8811 20.267 92.9493 20.2785 93.0127 20.3018C93.0762 20.3251 93.1338 20.3596 93.1818 20.4034C93.2321 20.4461 93.2718 20.4976 93.2984 20.5548C93.3251 20.6119 93.3381 20.6734 93.3367 20.7352V23.6956C93.3352 23.8191 93.2794 23.9372 93.1814 24.0245C93.0835 24.1118 92.951 24.1615 92.8125 24.1629C92.6734 24.1629 92.5401 24.1137 92.4418 24.026C92.3435 23.9384 92.2882 23.8195 92.2882 23.6956V22.2247H90.7989V23.7089C90.7997 23.7703 90.7864 23.8312 90.7598 23.8878C90.7331 23.9444 90.6937 23.9956 90.644 24.0381C90.5968 24.0829 90.5394 24.1184 90.4758 24.1422C90.4122 24.166 90.3436 24.1776 90.2746 24.1762C90.1361 24.1748 90.0036 24.1251 89.9057 24.0378C89.8077 23.9504 89.7519 23.8324 89.7504 23.7089V20.7352C89.7504 20.6113 89.8056 20.4924 89.9039 20.4048C90.0023 20.3172 90.1356 20.2679 90.2746 20.2679C90.3433 20.2667 90.4116 20.2781 90.4751 20.3014C90.5387 20.3247 90.5962 20.3594 90.644 20.4034C90.6938 20.4464 90.7332 20.498 90.7599 20.555C90.7865 20.6121 90.7998 20.6734 90.7989 20.7352V21.4415Z" fill="#FAB923"/>
<path d="M96.2468 23.4619C96.2986 23.4611 96.3499 23.4699 96.3976 23.4877C96.4453 23.5055 96.4883 23.532 96.5239 23.5655C96.5648 23.5989 96.5968 23.6401 96.6175 23.6861C96.6381 23.7321 96.6468 23.7816 96.643 23.831C96.644 23.8781 96.634 23.9249 96.6134 23.9684C96.5929 24.0118 96.5624 24.0509 96.5239 24.0832C96.4883 24.1167 96.4453 24.1432 96.3976 24.161C96.3499 24.1788 96.2986 24.1876 96.2468 24.1868H94.3554C94.2725 24.1871 94.1904 24.1728 94.1137 24.1446C94.0371 24.1164 93.9675 24.0749 93.909 24.0225C93.8506 23.9702 93.8043 23.908 93.7731 23.8395C93.7418 23.7711 93.7261 23.6978 93.7269 23.6239V20.8494C93.7244 20.7754 93.7392 20.7017 93.7705 20.6331C93.8018 20.5646 93.8488 20.5026 93.9086 20.4511C93.9669 20.3984 94.0365 20.3567 94.1132 20.3284C94.19 20.3001 94.2723 20.2859 94.3554 20.2865H96.1426C96.2002 20.2875 96.2568 20.2999 96.3084 20.3229C96.3599 20.3459 96.405 20.3788 96.4405 20.4193C96.4781 20.4607 96.5047 20.5093 96.5181 20.5613C96.5315 20.6133 96.5315 20.6673 96.5179 20.7193C96.5002 20.7994 96.4505 20.8711 96.3779 20.9211C96.307 20.9717 96.2186 20.999 96.1277 20.9981H94.7694V21.5689H96.0503C96.1024 21.5682 96.1541 21.577 96.2023 21.5948C96.2504 21.6126 96.294 21.639 96.3302 21.6724C96.3687 21.7042 96.3992 21.7429 96.4197 21.7859C96.4403 21.8289 96.4504 21.8753 96.4494 21.922C96.4499 21.9691 96.4396 22.0157 96.4191 22.0591C96.3986 22.1025 96.3684 22.1417 96.3302 22.1743C96.294 22.2077 96.2504 22.2341 96.2023 22.2519C96.1541 22.2697 96.1024 22.2785 96.0503 22.2778H94.7694V23.4434L96.2468 23.4619Z" fill="#FAB923"/>
<path d="M100.369 23.5018C100.437 23.6039 100.456 23.7258 100.423 23.8407C100.391 23.9557 100.308 24.0543 100.194 24.1151C100.078 24.1742 99.941 24.1903 99.8122 24.16C99.6834 24.1297 99.5732 24.0554 99.5055 23.9531L98.734 22.7876H98.1383V23.7168C98.1383 23.8379 98.0843 23.9541 97.9882 24.0397C97.8922 24.1254 97.7618 24.1735 97.626 24.1735C97.4901 24.1728 97.3599 24.1245 97.2635 24.0391C97.1671 23.9537 97.1122 23.838 97.1107 23.7168V20.7193C97.1103 20.6582 97.1235 20.5976 97.1495 20.5411C97.1756 20.4845 97.214 20.4332 97.2625 20.3899C97.3109 20.3467 97.3686 20.3125 97.432 20.2893C97.4954 20.2661 97.5634 20.2543 97.6319 20.2546H98.8502C98.9151 20.2552 98.9799 20.2606 99.0438 20.2706H99.0706C99.4058 20.3178 99.7113 20.4699 99.9323 20.6995C100.153 20.929 100.275 21.2212 100.277 21.5238C100.272 21.7943 100.178 22.0575 100.006 22.2804C99.9402 22.3757 99.8565 22.4601 99.7587 22.53L100.369 23.5018ZM98.1204 22.0946H98.6149C98.699 22.0952 98.7823 22.0798 98.8593 22.0496C98.9364 22.0194 99.0053 21.975 99.0617 21.9194C99.1226 21.864 99.1706 21.7985 99.2028 21.7264C99.235 21.6544 99.2509 21.5774 99.2493 21.4999C99.2509 21.4219 99.2352 21.3445 99.2029 21.272C99.1707 21.1996 99.1227 21.1335 99.0617 21.0777C99.0059 21.0211 98.9371 20.9757 98.8601 20.9445C98.7831 20.9134 98.6995 20.8973 98.6149 20.8972H98.1085L98.1204 22.0946Z" fill="#FAB923"/>
<path d="M103.33 23.462C103.382 23.4611 103.433 23.4699 103.481 23.4877C103.529 23.5056 103.572 23.532 103.607 23.5655C103.648 23.5989 103.68 23.6402 103.701 23.6861C103.721 23.7321 103.73 23.7816 103.726 23.831C103.727 23.8781 103.717 23.9249 103.697 23.9684C103.676 24.0118 103.646 24.051 103.607 24.0832C103.572 24.1167 103.529 24.1432 103.481 24.161C103.433 24.1788 103.382 24.1876 103.33 24.1868H101.439C101.356 24.1871 101.274 24.1728 101.197 24.1446C101.12 24.1164 101.051 24.0749 100.992 24.0226C100.934 23.9702 100.888 23.908 100.856 23.8395C100.825 23.7711 100.809 23.6978 100.81 23.6239V20.8494C100.808 20.7754 100.822 20.7017 100.854 20.6331C100.885 20.5646 100.932 20.5026 100.992 20.4511C101.05 20.3984 101.12 20.3567 101.196 20.3284C101.273 20.3001 101.356 20.2859 101.439 20.2865H103.226C103.286 20.2855 103.346 20.297 103.4 20.32C103.454 20.343 103.502 20.377 103.539 20.4193C103.576 20.4607 103.603 20.5093 103.616 20.5613C103.63 20.6133 103.63 20.6673 103.616 20.7193C103.598 20.7995 103.549 20.8712 103.476 20.9211C103.405 20.9718 103.317 20.999 103.226 20.9981H101.868V21.5689H103.148C103.201 21.5682 103.252 21.577 103.3 21.5948C103.349 21.6126 103.392 21.6391 103.428 21.6725C103.467 21.7042 103.497 21.7429 103.518 21.7859C103.538 21.8289 103.549 21.8753 103.548 21.922C103.548 21.9691 103.538 22.0158 103.517 22.0591C103.497 22.1025 103.466 22.1417 103.428 22.1743C103.392 22.2077 103.349 22.2341 103.3 22.2519C103.252 22.2697 103.201 22.2785 103.148 22.2778H101.868V23.4434L103.33 23.462Z" fill="#FAB923"/>
</g>
<g clip-path="url(#clip1_2716:177)">
<path d="M10.9755 3.11827C10.7553 2.89719 10.4569 2.77301 10.1457 2.77301C9.8345 2.77301 9.53604 2.89719 9.31591 3.11827L0.648874 11.8294C0.53474 11.9378 0.443384 12.068 0.380213 12.2125C0.317042 12.3569 0.283338 12.5127 0.281095 12.6704C0.278852 12.8282 0.308117 12.9848 0.367157 13.131C0.426196 13.2772 0.513812 13.4101 0.624821 13.5216C0.735829 13.6332 0.867975 13.7213 1.01344 13.7806C1.1589 13.8399 1.31473 13.8694 1.47171 13.8671C1.62868 13.8649 1.78361 13.831 1.92733 13.7675C2.07105 13.704 2.20064 13.6122 2.30843 13.4975L10.9755 4.78627C11.1954 4.56502 11.319 4.26504 11.319 3.95227C11.319 3.6395 11.1954 3.33952 10.9755 3.11827Z" fill="url(#paint0_linear_2716:177)"/>
<path d="M24.2775 2.05842C24.0574 1.83735 23.7589 1.71317 23.4478 1.71317C23.1366 1.71317 22.8381 1.83735 22.618 2.05842L13.9499 10.7696C13.7291 10.9908 13.6048 11.2911 13.6043 11.6044C13.6038 11.9177 13.7271 12.2184 13.9472 12.4403C14.1673 12.6622 14.466 12.7871 14.7778 12.7876C15.0895 12.7881 15.3886 12.6642 15.6094 12.443L24.2775 3.73179C24.3872 3.62214 24.4743 3.49177 24.5337 3.34818C24.5931 3.20459 24.6237 3.05062 24.6237 2.89511C24.6237 2.7396 24.5931 2.58562 24.5337 2.44203C24.4743 2.29844 24.3872 2.16807 24.2775 2.05842Z" fill="url(#paint1_linear_2716:177)"/>
<path d="M28.6766 10.5304C28.4565 10.3093 28.158 10.1852 27.8469 10.1852C27.5357 10.1852 27.2372 10.3093 27.0171 10.5304L18.35 19.2427C18.1402 19.4659 18.0253 19.7626 18.0297 20.0697C18.0341 20.3768 18.1574 20.67 18.3734 20.8872C18.5895 21.1043 18.8812 21.2283 19.1868 21.2326C19.4923 21.237 19.7875 21.1215 20.0096 20.9107L28.6766 12.1984C28.8966 11.9772 29.0201 11.6772 29.0201 11.3644C29.0201 11.0516 28.8966 10.7517 28.6766 10.5304Z" fill="url(#paint2_linear_2716:177)"/>
<path d="M10.6724 11.1472C10.4522 10.9261 10.1538 10.8019 9.8426 10.8019C9.53141 10.8019 9.23296 10.9261 9.01282 11.1472L0.343651 19.8595C0.137406 20.0834 0.0254843 20.3789 0.0313801 20.684C0.0372758 20.989 0.16053 21.28 0.375271 21.4957C0.590012 21.7114 0.879539 21.8351 1.18308 21.8408C1.48661 21.8465 1.78056 21.7338 2.00321 21.5264L10.6724 12.8152C10.8923 12.594 11.0159 12.294 11.0159 11.9812C11.0159 11.6684 10.8923 11.3685 10.6724 11.1472Z" fill="url(#paint3_linear_2716:177)"/>
<path d="M5.46854 24.7401C5.24841 24.5191 4.94995 24.3949 4.63876 24.3949C4.32757 24.3949 4.02912 24.5191 3.80899 24.7401L2.75882 25.7956C2.63943 25.9026 2.54302 26.0329 2.47553 26.1786C2.40803 26.3243 2.37087 26.4824 2.36632 26.643C2.36177 26.8037 2.38993 26.9636 2.44906 27.1129C2.5082 27.2623 2.59707 27.3979 2.71022 27.5115C2.82338 27.6251 2.95842 27.7142 3.10708 27.7735C3.25574 27.8327 3.41488 27.8608 3.57472 27.856C3.73457 27.8512 3.89176 27.8137 4.03665 27.7457C4.18154 27.6776 4.31108 27.5806 4.41731 27.4604L5.46854 26.4049C5.68752 26.1838 5.81045 25.8845 5.81045 25.5725C5.81045 25.2605 5.68752 24.9612 5.46854 24.7401Z" fill="url(#paint4_linear_2716:177)"/>
<path d="M17.6628 1.78172C17.4427 1.56065 17.1442 1.43646 16.8331 1.43646C16.5219 1.43646 16.2234 1.56065 16.0033 1.78172L14.9531 2.8383C14.8373 2.94622 14.7443 3.07652 14.6798 3.2214C14.6152 3.36629 14.5804 3.52277 14.5774 3.68149C14.5745 3.84021 14.6034 3.99789 14.6625 4.14511C14.7216 4.29232 14.8096 4.42604 14.9214 4.53826C15.0331 4.65047 15.1662 4.73887 15.3127 4.79817C15.4592 4.85747 15.6161 4.88644 15.774 4.88336C15.9319 4.88028 16.0876 4.8452 16.2317 4.78023C16.3758 4.71526 16.5054 4.62173 16.6127 4.50524L17.6628 3.44973C17.8828 3.22847 18.0063 2.9285 18.0063 2.61572C18.0063 2.30295 17.8828 2.00297 17.6628 1.78172Z" fill="url(#paint5_linear_2716:177)"/>
<path d="M24.7898 20.9171C24.5696 20.6961 24.2712 20.5719 23.96 20.5719C23.6488 20.5719 23.3503 20.6961 23.1302 20.9171L14.4632 29.6283C14.349 29.7367 14.2577 29.8669 14.1945 30.0114C14.1313 30.1558 14.0976 30.3115 14.0954 30.4693C14.0932 30.6271 14.1224 30.7837 14.1815 30.9299C14.2405 31.0761 14.3281 31.2089 14.4391 31.3205C14.5501 31.4321 14.6823 31.5201 14.8277 31.5795C14.9732 31.6388 15.129 31.6682 15.286 31.666C15.443 31.6637 15.5979 31.6298 15.7416 31.5663C15.8853 31.5029 16.0149 31.411 16.1227 31.2963L24.7898 22.5851C25.0097 22.3639 25.1333 22.0639 25.1333 21.7511C25.1333 21.4384 25.0097 21.1384 24.7898 20.9171Z" fill="url(#paint6_linear_2716:177)"/>
<path d="M29.3148 16.3636C29.0947 16.1429 28.7965 16.0189 28.4856 16.0189C28.1747 16.0189 27.8764 16.1429 27.6563 16.3636L18.9882 25.0759C18.8724 25.1838 18.7794 25.3141 18.7149 25.459C18.6503 25.6039 18.6155 25.7603 18.6126 25.9191C18.6096 26.0778 18.6385 26.2355 18.6976 26.3827C18.7567 26.5299 18.8448 26.6636 18.9565 26.7758C19.0682 26.888 19.2013 26.9765 19.3478 27.0357C19.4943 27.095 19.6512 27.124 19.8091 27.1209C19.967 27.1179 20.1227 27.0828 20.2668 27.0178C20.4109 26.9528 20.5405 26.8593 20.6478 26.7428L29.3148 18.0316C29.5348 17.8104 29.6583 17.5104 29.6583 17.1976C29.6583 16.8848 29.5348 16.5849 29.3148 16.3636Z" fill="url(#paint7_linear_2716:177)"/>
<path d="M28.3415 22.9906C28.1214 22.7695 27.8229 22.6453 27.5117 22.6453C27.2005 22.6453 26.9021 22.7695 26.682 22.9906L22.2273 27.4679C22.1132 27.5763 22.0218 27.7065 21.9586 27.851C21.8955 27.9954 21.8618 28.1511 21.8595 28.3089C21.8573 28.4667 21.8865 28.6233 21.9456 28.7695C22.0046 28.9157 22.0922 29.0485 22.2033 29.1601C22.3143 29.2717 22.4464 29.3597 22.5919 29.4191C22.7373 29.4784 22.8932 29.5078 23.0501 29.5056C23.2071 29.5033 23.362 29.4695 23.5058 29.406C23.6495 29.3425 23.7791 29.2506 23.8869 29.1359L28.3415 24.6586C28.5615 24.4373 28.685 24.1374 28.685 23.8246C28.685 23.5118 28.5615 23.2118 28.3415 22.9906Z" fill="url(#paint8_linear_2716:177)"/>
<path d="M20.5507 32C21.1985 32 21.7236 31.4722 21.7236 30.8211C21.7236 30.17 21.1985 29.6422 20.5507 29.6422C19.903 29.6422 19.3778 30.17 19.3778 30.8211C19.3778 31.4722 19.903 32 20.5507 32Z" fill="url(#paint9_linear_2716:177)"/>
<path d="M15.048 23.0292C14.8279 22.8085 14.5297 22.6845 14.2188 22.6845C13.9078 22.6845 13.6096 22.8085 13.3895 23.0292L8.93702 27.5065C8.82791 27.6161 8.74133 27.7461 8.68223 27.8893C8.62313 28.0324 8.59266 28.1859 8.59256 28.3409C8.59246 28.4958 8.62274 28.6493 8.68165 28.7926C8.74057 28.9358 8.82698 29.066 8.93595 29.1756C9.04492 29.2853 9.17431 29.3723 9.31674 29.4317C9.45916 29.4911 9.61184 29.5217 9.76604 29.5218C9.92024 29.5219 10.073 29.4915 10.2155 29.4323C10.358 29.3731 10.4875 29.2862 10.5966 29.1767L15.048 24.6972C15.268 24.476 15.3915 24.176 15.3915 23.8632C15.3915 23.5504 15.268 23.2505 15.048 23.0292Z" fill="url(#paint10_linear_2716:177)"/>
<path d="M9.05444 0.345392C8.83435 0.124646 8.53612 0.000671387 8.2252 0.000671387C7.91427 0.000671387 7.61604 0.124646 7.39595 0.345392L5.21665 2.53472C5.10252 2.64306 5.01116 2.77331 4.94799 2.91776C4.88482 3.06221 4.85112 3.21793 4.84887 3.3757C4.84663 3.53348 4.8759 3.6901 4.93494 3.8363C4.99398 3.98251 5.08159 4.11533 5.1926 4.2269C5.30361 4.33848 5.43575 4.42654 5.58122 4.48588C5.72668 4.54522 5.88251 4.57463 6.03949 4.57238C6.19646 4.57012 6.35139 4.53625 6.49511 4.47276C6.63883 4.40926 6.76842 4.31744 6.87621 4.20273L9.05444 2.0134C9.27439 1.79215 9.39795 1.49217 9.39795 1.1794C9.39795 0.866623 9.27439 0.566646 9.05444 0.345392Z" fill="url(#paint11_linear_2716:177)"/>
<path d="M4.22835 6.86511C4.06421 7.03023 3.85503 7.1427 3.62728 7.18831C3.39953 7.23391 3.16343 7.2106 2.94887 7.12132C2.7343 7.03204 2.55089 6.88081 2.42185 6.68675C2.29281 6.49269 2.22394 6.26452 2.22394 6.03111C2.22394 5.7977 2.29281 5.56953 2.42185 5.37547C2.55089 5.18141 2.7343 5.03017 2.94887 4.94089C3.16343 4.85161 3.39953 4.8283 3.62728 4.87391C3.85503 4.91952 4.06421 5.03199 4.22835 5.1971C4.44831 5.41836 4.57186 5.71833 4.57186 6.03111C4.57186 6.34388 4.44831 6.64386 4.22835 6.86511Z" fill="url(#paint12_linear_2716:177)"/>
<path d="M14.8292 28.428C21.6582 28.428 27.1942 22.8637 27.1942 16C27.1942 9.13616 21.6582 3.57196 14.8292 3.57196C8.00021 3.57196 2.4642 9.13616 2.4642 16C2.4642 22.8637 8.00021 28.428 14.8292 28.428Z" fill="url(#paint13_linear_2716:177)"/>
<path d="M23.2619 24.4761C27.9194 19.7949 27.9194 12.205 23.2619 7.52376C18.6044 2.8425 11.053 2.8425 6.39545 7.52376C1.7379 12.205 1.7379 19.7949 6.39545 24.4761C11.053 29.1574 18.6044 29.1574 23.2619 24.4761Z" fill="url(#paint14_linear_2716:177)"/>
<path d="M11.9158 8.29389H17.7429L18.1356 4.48375C15.9743 3.85507 13.68 3.85507 11.5187 4.48375L11.9158 8.29389Z" fill="url(#paint15_linear_2716:177)"/>
<path d="M22.5188 23.7357C26.7654 19.4675 26.7654 12.5473 22.5188 8.27908C18.2722 4.01085 11.3871 4.01085 7.14049 8.27908C2.8939 12.5473 2.8939 19.4675 7.14049 23.7357C11.3871 28.0039 18.2722 28.0039 22.5188 23.7357Z" fill="url(#paint16_linear_2716:177)"/>
<path d="M8.94879 6.81359C12.3639 4.2617 17.3362 4.23918 20.7791 6.85865C17.0203 4.73261 12.6927 4.73153 8.94879 6.81359Z" fill="#FFFCEF"/>
<path d="M15.8099 25.9856C21.2919 25.4405 25.2962 20.532 24.7539 15.0221C24.2115 9.51224 19.3279 5.48749 13.8459 6.0326C8.36398 6.5777 4.35964 11.4862 4.90198 16.9961C5.44432 22.506 10.328 26.5307 15.8099 25.9856Z" fill="url(#paint17_linear_2716:177)"/>
<path style="mix-blend-mode:multiply" d="M15.8099 25.9856C21.2919 25.4405 25.2962 20.532 24.7539 15.0221C24.2115 9.51224 19.3279 5.48749 13.8459 6.0326C8.36398 6.5777 4.35964 11.4862 4.90198 16.9961C5.44432 22.506 10.328 26.5307 15.8099 25.9856Z" fill="url(#paint18_linear_2716:177)"/>
<g style="mix-blend-mode:multiply">
<path d="M23.5572 15.0946C23.5572 14.6225 23.4568 14.1558 23.2627 13.7258C23.0686 13.2958 22.7853 12.9125 22.4317 12.6016C22.0782 12.2906 21.6626 12.0593 21.2128 11.923C20.763 11.7867 20.2894 11.7486 19.8238 11.8114C19.3582 11.8741 18.9113 12.0361 18.5131 12.2866C18.1149 12.5371 17.7746 12.8703 17.5149 13.2638C17.2553 13.6573 17.0824 14.1021 17.0078 14.5682C16.9331 15.0344 16.9585 15.5112 17.0822 15.9667C17.0974 16.0432 17.1181 16.1185 17.1441 16.192L17.9371 18.3824C17.8692 18.9767 17.6961 19.5539 17.4259 20.0869L14.9958 13.3784C14.9174 13.1619 14.7973 12.9631 14.6425 12.7933C14.4876 12.6235 14.301 12.486 14.0933 12.3887C13.8855 12.2914 13.6608 12.2362 13.4318 12.2262C13.2029 12.2161 12.9742 12.2516 12.7589 12.3304C12.5435 12.4092 12.3457 12.5299 12.1768 12.6855C12.0078 12.8411 11.871 13.0287 11.7742 13.2375C11.6774 13.4463 11.6224 13.6722 11.6125 13.9023C11.6025 14.1324 11.6377 14.3623 11.7162 14.5787L12.5699 16.9386C12.5945 18.4403 12.3298 19.4347 11.9798 20.0858L9.5518 13.3784C9.38687 12.95 9.06142 12.6037 8.64533 12.4139C8.22924 12.224 7.75566 12.2056 7.32625 12.3627C6.89684 12.5198 6.54583 12.8399 6.34856 13.2542C6.15129 13.6685 6.12348 14.144 6.27111 14.5787L8.72576 21.3569C8.81248 21.5987 8.95115 21.8182 9.1319 22C9.31266 22.1817 9.53105 22.3212 9.77153 22.4085C10.012 22.4957 10.2687 22.5286 10.5233 22.5048C10.7778 22.4811 11.0241 22.4012 11.2444 22.2708C11.6899 22.0795 12.0873 21.7908 12.4077 21.4256C12.8891 20.8892 13.2338 20.1952 13.4462 19.3553L14.1708 21.3569C14.2492 21.5739 14.3694 21.7732 14.5245 21.9433C14.6797 22.1135 14.8667 22.2512 15.0749 22.3486C15.2832 22.4459 15.5084 22.501 15.7379 22.5107C15.9673 22.5204 16.1964 22.4844 16.412 22.4049C16.5093 22.3685 16.6032 22.3237 16.6927 22.2708C17.1382 22.0795 17.5356 21.7908 17.856 21.4256C18.1697 21.068 18.4221 20.6606 18.603 20.2199L19.0726 21.5167C19.332 22.2322 20.0257 22.6355 20.6223 22.4178C21.2188 22.2 21.4921 21.4427 21.2327 20.7273L20.3917 18.4038C21.2426 18.3703 22.0474 18.007 22.6376 17.39C23.2277 16.7731 23.5573 15.9505 23.5572 15.0946Z" fill="#BA7000"/>
</g>
<path d="M23.5572 14.022C23.5572 13.5498 23.4568 13.0831 23.2627 12.6531C23.0686 12.2231 22.7853 11.8398 22.4317 11.5289C22.0782 11.218 21.6626 10.9866 21.2128 10.8503C20.763 10.714 20.2894 10.676 19.8238 10.7387C19.3582 10.8014 18.9113 10.9634 18.5131 11.2139C18.1149 11.4644 17.7746 11.7976 17.5149 12.1911C17.2553 12.5846 17.0824 13.0294 17.0078 13.4955C16.9331 13.9617 16.9585 14.4385 17.0822 14.894C17.0974 14.9705 17.1181 15.0458 17.1441 15.1193L17.9371 17.3097C17.8692 17.904 17.6961 18.4812 17.4259 19.0142L14.9958 12.3057C14.9174 12.0892 14.7973 11.8904 14.6425 11.7206C14.4876 11.5508 14.301 11.4134 14.0933 11.316C13.8855 11.2187 13.6608 11.1635 13.4318 11.1535C13.2029 11.1435 12.9742 11.1789 12.7589 11.2577C12.5435 11.3365 12.3457 11.4572 12.1768 11.6128C12.0078 11.7684 11.871 11.956 11.7742 12.1648C11.6774 12.3736 11.6224 12.5995 11.6125 12.8296C11.6025 13.0597 11.6377 13.2896 11.7162 13.506L12.5699 15.8659C12.5945 17.3676 12.3298 18.362 11.9798 19.0131L9.5518 12.3057C9.38687 11.8773 9.06142 11.5311 8.64533 11.3412C8.22924 11.1513 7.75566 11.1329 7.32625 11.29C6.89684 11.4471 6.54583 11.7672 6.34856 12.1815C6.15129 12.5958 6.12348 13.0713 6.27111 13.506L8.72576 20.2842C8.81248 20.526 8.95115 20.7455 9.1319 20.9273C9.31266 21.109 9.53105 21.2485 9.77153 21.3358C10.012 21.423 10.2687 21.4559 10.5233 21.4322C10.7778 21.4084 11.0241 21.3285 11.2444 21.1981C11.6899 21.0068 12.0873 20.7181 12.4077 20.3529C12.8891 19.8165 13.2338 19.1225 13.4462 18.2826L14.1708 20.2842C14.2492 20.5012 14.3694 20.7005 14.5245 20.8706C14.6797 21.0408 14.8667 21.1785 15.0749 21.2759C15.2832 21.3732 15.5084 21.4283 15.7379 21.438C15.9673 21.4477 16.1964 21.4117 16.412 21.3322C16.5093 21.2958 16.6032 21.251 16.6927 21.1981C17.1382 21.0068 17.5356 20.7181 17.856 20.3529C18.1697 19.9953 18.4221 19.5879 18.603 19.1472L19.0726 20.4441C19.332 21.1595 20.0257 21.5629 20.6223 21.3451C21.2188 21.1273 21.4921 20.37 21.2327 19.6546L20.3917 17.3312C21.2426 17.2976 22.0474 16.9343 22.6376 16.3173C23.2277 15.7004 23.5573 14.8778 23.5572 14.022Z" fill="url(#paint19_linear_2716:177)"/>
<path d="M20.2615 11.7822C21.043 11.7823 21.799 12.0615 22.3947 12.57C22.9903 13.0785 23.3868 13.7832 23.5134 14.5583C23.5873 14.1066 23.5673 13.6443 23.4546 13.2008C23.3419 12.7572 23.139 12.3419 22.8586 11.9811C22.5782 11.6204 22.2264 11.3219 21.8255 11.1047C21.4246 10.8874 20.9832 10.7561 20.5292 10.7189C20.0752 10.6817 19.6185 10.7395 19.1878 10.8886C18.7572 11.0378 18.362 11.275 18.0272 11.5854C17.6923 11.8958 17.4252 12.2725 17.2425 12.6919C17.0598 13.1113 16.9656 13.5642 16.9659 14.022C16.9661 14.2016 16.9807 14.381 17.0096 14.5583C17.1364 13.7833 17.5329 13.0787 18.1285 12.5702C18.7241 12.0618 19.48 11.7825 20.2615 11.7822Z" fill="white"/>
<path d="M12.7589 12.3357C12.9745 12.2562 13.2035 12.2203 13.433 12.2299C13.6624 12.2396 13.8877 12.2947 14.0959 12.3921C14.3041 12.4894 14.4912 12.6271 14.6463 12.7973C14.8015 12.9675 14.9217 13.1668 15.0001 13.3837L17.4302 20.0922C17.7004 19.5593 17.8735 18.982 17.9414 18.3877V17.3151C17.84 17.7162 17.5753 18.7482 17.4302 19.0195L15.0001 12.311C14.8502 11.8712 14.5326 11.5093 14.1172 11.3048C13.7018 11.1003 13.2226 11.07 12.785 11.2207C12.3474 11.3713 11.9873 11.6905 11.7838 12.108C11.5804 12.5255 11.5503 13.0072 11.7002 13.447C11.7807 13.1929 11.918 12.9607 12.1015 12.7681C12.2849 12.5755 12.5098 12.4276 12.7589 12.3357Z" fill="white"/>
<path d="M7.31484 12.3357C7.53043 12.2562 7.75951 12.2203 7.98896 12.23C8.2184 12.2396 8.44369 12.2947 8.6519 12.3921C8.86011 12.4895 9.04716 12.6272 9.20231 12.7973C9.35746 12.9675 9.47767 13.1668 9.55604 13.3837L11.9851 20.0922C12.3351 19.4411 12.5998 18.451 12.5753 16.945L12.5454 16.8635C12.4675 17.8289 12.2519 18.524 11.9851 19.0196L9.55177 12.3057C9.40189 11.8659 9.08432 11.5039 8.66892 11.2994C8.25352 11.0949 7.77431 11.0647 7.33671 11.2153C6.89912 11.366 6.53899 11.6852 6.33554 12.1027C6.13209 12.5202 6.10199 13.0018 6.25187 13.4417C6.33354 13.1881 6.47177 12.9567 6.65599 12.765C6.84021 12.5734 7.06556 12.4265 7.31484 12.3357Z" fill="white"/>
<path d="M20.3917 17.3312C20.2672 17.3507 20.1418 17.3633 20.016 17.3687L21.2316 20.7251C21.363 20.3798 21.363 19.9978 21.2316 19.6524L20.3917 17.3312Z" fill="white"/>
</g>
<defs>
<linearGradient id="paint0_linear_2716:177" x1="11.0445" y1="3.0486" x2="0.619857" y2="13.4204" gradientUnits="userSpaceOnUse">
<stop stop-color="#FADB8A"/>
<stop offset="0.82" stop-color="#EBB036"/>
<stop offset="1" stop-color="#E8A623"/>
</linearGradient>
<linearGradient id="paint1_linear_2716:177" x1="1826.63" y1="14618.5" x2="1826.63" y2="16140.6" gradientUnits="userSpaceOnUse">
<stop stop-color="#FADB8A"/>
<stop offset="0.82" stop-color="#EBB036"/>
<stop offset="1" stop-color="#E8A623"/>
</linearGradient>
<linearGradient id="paint2_linear_2716:177" x1="2760.51" y1="14886.5" x2="2760.51" y2="16404.9" gradientUnits="userSpaceOnUse">
<stop stop-color="#FADB8A"/>
<stop offset="0.82" stop-color="#EBB036"/>
<stop offset="1" stop-color="#E8A623"/>
</linearGradient>
<linearGradient id="paint3_linear_2716:177" x1="1475.17" y1="16237.4" x2="1475.17" y2="17754.6" gradientUnits="userSpaceOnUse">
<stop stop-color="#FADB8A"/>
<stop offset="0.82" stop-color="#EBB036"/>
<stop offset="1" stop-color="#E8A623"/>
</linearGradient>
<linearGradient id="paint4_linear_2716:177" x1="654.878" y1="5544.69" x2="654.878" y2="5669.52" gradientUnits="userSpaceOnUse">
<stop stop-color="#FADB8A"/>
<stop offset="0.82" stop-color="#EBB036"/>
<stop offset="1" stop-color="#E8A623"/>
</linearGradient>
<linearGradient id="paint5_linear_2716:177" x1="422.229" y1="4698.31" x2="422.229" y2="4822.62" gradientUnits="userSpaceOnUse">
<stop stop-color="#FADB8A"/>
<stop offset="0.82" stop-color="#EBB036"/>
<stop offset="1" stop-color="#E8A623"/>
</linearGradient>
<linearGradient id="paint6_linear_2716:177" x1="3239.51" y1="16004.6" x2="3239.51" y2="17529.4" gradientUnits="userSpaceOnUse">
<stop stop-color="#FADB8A"/>
<stop offset="0.82" stop-color="#EBB036"/>
<stop offset="1" stop-color="#E8A623"/>
</linearGradient>
<linearGradient id="paint7_linear_2716:177" x1="3246.36" y1="15345.8" x2="3246.36" y2="16871.7" gradientUnits="userSpaceOnUse">
<stop stop-color="#FADB8A"/>
<stop offset="0.82" stop-color="#EBB036"/>
<stop offset="1" stop-color="#E8A623"/>
</linearGradient>
<linearGradient id="paint8_linear_2716:177" x1="2270.56" y1="9841.84" x2="2270.56" y2="10400.1" gradientUnits="userSpaceOnUse">
<stop stop-color="#FADB8A"/>
<stop offset="0.82" stop-color="#EBB036"/>
<stop offset="1" stop-color="#E8A623"/>
</linearGradient>
<linearGradient id="paint9_linear_2716:177" x1="792.198" y1="3622.69" x2="792.198" y2="3674.75" gradientUnits="userSpaceOnUse">
<stop stop-color="#FADB8A"/>
<stop offset="0.82" stop-color="#EBB036"/>
<stop offset="1" stop-color="#E8A623"/>
</linearGradient>
<linearGradient id="paint10_linear_2716:177" x1="1651.56" y1="10412.7" x2="1651.56" y2="10969.2" gradientUnits="userSpaceOnUse">
<stop stop-color="#FADB8A"/>
<stop offset="0.82" stop-color="#EBB036"/>
<stop offset="1" stop-color="#E8A623"/>
</linearGradient>
<linearGradient id="paint11_linear_2716:177" x1="243.135" y1="6446.32" x2="243.135" y2="6679.85" gradientUnits="userSpaceOnUse">
<stop stop-color="#FADB8A"/>
<stop offset="0.82" stop-color="#EBB036"/>
<stop offset="1" stop-color="#E8A623"/>
</linearGradient>
<linearGradient id="paint12_linear_2716:177" x1="125.208" y1="3483.7" x2="125.208" y2="3535.83" gradientUnits="userSpaceOnUse">
<stop stop-color="#FADB8A"/>
<stop offset="0.82" stop-color="#EBB036"/>
<stop offset="1" stop-color="#E8A623"/>
</linearGradient>
<linearGradient id="paint13_linear_2716:177" x1="14.8292" y1="3.52154" x2="14.8292" y2="28.4194" gradientUnits="userSpaceOnUse">
<stop stop-color="white"/>
<stop offset="0.47" stop-color="#E0BA93"/>
<stop offset="1" stop-color="#BF6E1D"/>
</linearGradient>
<linearGradient id="paint14_linear_2716:177" x1="3317.24" y1="894.416" x2="3317.24" y2="6180.26" gradientUnits="userSpaceOnUse">
<stop stop-color="#FADB8A"/>
<stop offset="0.82" stop-color="#EBB036"/>
<stop offset="1" stop-color="#E8A623"/>
</linearGradient>
<linearGradient id="paint15_linear_2716:177" x1="11.6137" y1="6.1539" x2="18.0214" y2="6.1539" gradientUnits="userSpaceOnUse">
<stop stop-color="#F9D884"/>
<stop offset="0.5" stop-color="white"/>
<stop offset="0.61" stop-color="#FDF3D8"/>
<stop offset="0.72" stop-color="#FBE8B4"/>
<stop offset="0.83" stop-color="#FAE09B"/>
<stop offset="0.92" stop-color="#F9DB8B"/>
<stop offset="1" stop-color="#F9D986"/>
</linearGradient>
<linearGradient id="paint16_linear_2716:177" x1="14.8293" y1="5.0334" x2="14.8293" y2="26.9288" gradientUnits="userSpaceOnUse">
<stop stop-color="#E8A623"/>
<stop offset="0.18" stop-color="#EBB036"/>
<stop offset="1" stop-color="#FADB8A"/>
</linearGradient>
<linearGradient id="paint17_linear_2716:177" x1="14.8292" y1="5.94137" x2="14.8292" y2="26.0261" gradientUnits="userSpaceOnUse">
<stop stop-color="#FFD026"/>
<stop offset="0.43" stop-color="#F8BC23"/>
<stop offset="1" stop-color="#ED9A1D"/>
</linearGradient>
<linearGradient id="paint18_linear_2716:177" x1="14.8292" y1="5.94137" x2="14.8292" y2="26.0261" gradientUnits="userSpaceOnUse">
<stop stop-color="#FFD026"/>
<stop offset="0.43" stop-color="#F8BC23"/>
<stop offset="1" stop-color="#ED9A1D"/>
</linearGradient>
<linearGradient id="paint19_linear_2716:177" x1="14.8613" y1="10.5143" x2="14.8613" y2="21.949" gradientUnits="userSpaceOnUse">
<stop stop-color="#FFEEB3"/>
<stop offset="0.69" stop-color="#FFDC5F"/>
<stop offset="1" stop-color="#FFD438"/>
</linearGradient>
<clipPath id="clip0_2716:177">
<rect width="71.8049" height="17.1707" fill="white" transform="translate(34.3415 7.02435)"/>
</clipPath>
<clipPath id="clip1_2716:177">
<rect width="29.6585" height="32" fill="white"/>
</clipPath>
</defs>
</svg>
