<svg width="18" height="15" viewBox="0 0 18 15" fill="none" xmlns="http://www.w3.org/2000/svg">
<path d="M17.4727 7.84766C17.7891 7.53125 17.7891 7.00391 17.4727 6.65234L11.5664 0.746094C11.0039 0.21875 10.125 0.605469 10.125 1.34375V4.71875H5.34375C4.85156 4.71875 4.5 5.10547 4.5 5.5625V8.9375C4.5 9.42969 4.85156 9.78125 5.34375 9.78125H10.125V13.1562C10.125 13.9297 11.0391 14.2812 11.5664 13.7539L17.4727 7.84766ZM6.75 13.5781V12.1719C6.75 11.9609 6.53906 11.75 6.32812 11.75H3.375C2.74219 11.75 2.25 11.2578 2.25 10.625V3.875C2.25 3.27734 2.74219 2.75 3.375 2.75H6.32812C6.53906 2.75 6.75 2.57422 6.75 2.32812V0.921875C6.75 0.710938 6.53906 0.5 6.32812 0.5H3.375C1.51172 0.5 0 2.01172 0 3.875V10.625C0 12.4883 1.51172 14 3.375 14H6.32812C6.53906 14 6.75 13.8242 6.75 13.5781Z" fill="#8B8C8C"/>
</svg>
