<svg width="24" height="7" viewBox="0 0 24 7" fill="none" xmlns="http://www.w3.org/2000/svg">
<path d="M15.375 3.5C15.375 1.67188 13.8281 0.125 12 0.125C10.125 0.125 8.625 1.67188 8.625 3.5C8.625 5.375 10.125 6.875 12 6.875C13.8281 6.875 15.375 5.375 15.375 3.5ZM20.25 0.125C18.375 0.125 16.875 1.67188 16.875 3.5C16.875 5.375 18.375 6.875 20.25 6.875C22.0781 6.875 23.625 5.375 23.625 3.5C23.625 1.67188 22.0781 0.125 20.25 0.125ZM3.75 0.125C1.875 0.125 0.375 1.67188 0.375 3.5C0.375 5.375 1.875 6.875 3.75 6.875C5.57812 6.875 7.125 5.375 7.125 3.5C7.125 1.67188 5.57812 0.125 3.75 0.125Z" fill="#00468C"/>
</svg>
