<svg width="108" height="108" viewBox="0 0 108 108" fill="none" xmlns="http://www.w3.org/2000/svg">
<path d="M54.0002 100.646C80.4437 100.646 101.88 79.2097 101.88 52.7662C101.88 26.3227 80.4437 4.88599 54.0002 4.88599C27.5568 4.88599 6.12012 26.3227 6.12012 52.7662C6.12012 79.2097 27.5568 100.646 54.0002 100.646Z" fill="#ADFF00"/>
<path d="M101.671 57.2305L76.3527 52.7662L101.671 48.3019C101.428 45.6873 100.975 43.1326 100.328 40.656L75.0048 45.1212L97.2653 32.2691C96.1473 29.9189 94.8429 27.6743 93.372 25.5531L71.1232 38.3984L87.633 18.7227C85.792 16.9036 83.8062 15.2304 81.6918 13.7264L65.1764 33.4086L73.9679 9.25388C71.6317 8.17768 69.1948 7.28477 66.6755 6.59226L57.8816 30.7535V5.04398C56.601 4.94083 55.3069 4.88599 54.0001 4.88599C52.6933 4.88599 51.3992 4.94083 50.1186 5.04398V30.7535L41.3246 6.59226C38.8052 7.28477 36.3684 8.17746 34.0323 9.25388L42.824 33.4086L26.3086 13.7264C24.1942 15.2306 22.2086 16.9036 20.3673 18.7227L36.8772 38.3984L14.6286 25.5531C13.1577 27.6745 11.8533 29.9189 10.7353 32.2691L32.9958 45.1212L7.67312 40.6562C7.02512 43.1329 6.57287 45.6875 6.33008 48.3021L31.6481 52.7664L6.33008 57.2305C6.57308 59.8451 7.02512 62.3997 7.67312 64.8764L32.996 60.4112L10.7355 73.2633C11.8535 75.6135 13.1579 77.8581 14.6288 79.9793L36.8777 67.134L20.3678 86.8097C22.2088 88.6288 24.1946 90.302 26.309 91.806L42.8244 72.1238L34.0327 96.2785C36.3689 97.3547 38.8058 98.2476 41.3251 98.9401L50.1191 74.7789V100.488C51.3997 100.592 52.6938 100.646 54.0005 100.646C55.3073 100.646 56.6014 100.592 57.882 100.488V74.7791L66.676 98.9403C69.1954 98.2478 71.6324 97.3551 73.9683 96.2787L65.1764 72.124L81.6918 91.8062C83.806 90.302 85.7918 88.629 87.633 86.8099L71.1232 67.1342L93.372 79.9795C94.8429 77.8581 96.1473 75.6137 97.2653 73.2635L75.0048 60.4114L100.328 64.8766C100.975 62.3995 101.428 59.8451 101.671 57.2305Z" fill="#82E900"/>
<path d="M54.0001 93.4178C76.4513 93.4178 94.6516 75.2174 94.6516 52.7662C94.6516 30.3149 76.4513 12.1146 54.0001 12.1146C31.5489 12.1146 13.3486 30.3149 13.3486 52.7662C13.3486 75.2174 31.5489 93.4178 54.0001 93.4178Z" fill="#94FF0C"/>
<path d="M94.6515 52.7662C94.6515 75.1809 76.4149 93.4175 54.0002 93.4175C44.6008 93.4175 35.9353 90.2115 29.0425 84.8332C34.4332 87.6587 40.5628 89.2568 47.0606 89.2568C68.5376 89.2568 86.0106 71.7835 86.0106 50.3041C86.0106 31.4684 72.5707 15.7136 54.7784 12.1222C76.8346 12.5371 94.6515 30.6118 94.6515 52.7662Z" fill="#6EFF3C"/>
<path d="M54.0002 81.1437C69.6727 81.1437 82.3777 68.4386 82.3777 52.7662C82.3777 37.0937 69.6727 24.3887 54.0002 24.3887C38.3278 24.3887 25.6228 37.0937 25.6228 52.7662C25.6228 68.4386 38.3278 81.1437 54.0002 81.1437Z" fill="#2AD200"/>
<path d="M82.3768 52.7659C82.3768 68.4383 69.6726 81.1425 54.0002 81.1425C44.9695 81.1425 36.9239 76.9246 31.7271 70.349C36.1401 73.7234 41.6548 75.7286 47.6419 75.7286C62.1339 75.7286 73.8811 63.9812 73.8811 49.4893C73.8811 37.7106 66.1188 27.7418 55.4293 24.4274C70.4375 25.1701 82.3768 37.572 82.3768 52.7659Z" fill="#3EC200"/>
<path d="M33.3247 63.5675C35.4271 62.6152 36.4594 60.2594 35.815 58.0431C35.3279 56.3674 35.0666 54.5968 35.0666 52.766C35.0666 45.1758 39.5562 38.6191 46.0187 35.6037C48.0517 34.6551 49.0724 32.3468 48.4909 30.18L48.4675 30.0925C47.7188 27.3033 44.6337 25.8176 42.0166 27.0385C32.3339 31.5556 25.6235 41.3762 25.6235 52.766C25.6235 55.4814 26.0049 58.1076 26.717 60.5939C27.5146 63.3788 30.5998 64.8024 33.2384 63.6066C33.2671 63.5935 33.2958 63.5804 33.3247 63.5675Z" fill="#A0FF40"/>
<path d="M35.6851 47.9696C36.601 44.4754 38.4931 41.3734 41.0515 38.9723C42.808 37.3236 43.0154 34.6073 41.5403 32.7028L41.4821 32.6277C39.8076 30.4658 36.6225 30.1704 34.6251 32.0379C30.7738 35.6386 27.927 40.2995 26.55 45.5561C25.8096 48.3828 27.7857 51.1942 30.6983 51.4279C30.7297 51.4305 30.7611 51.433 30.7924 51.4355C33.0473 51.6165 35.1115 50.1579 35.6851 47.9696Z" fill="#6EFF3C"/>
<path opacity="0.4" d="M23.168 52.7662C23.168 39.9654 31.0084 28.9635 42.1391 24.3079C44.485 23.3266 45.6483 20.6747 44.8246 18.2689L44.7927 18.1759C43.8785 15.5058 40.8938 14.1841 38.2923 15.278C23.6544 21.4332 13.3489 35.9177 13.3489 52.7664C13.3489 62.4942 16.7853 71.4333 22.5065 78.4371C24.3233 80.6612 27.6684 80.822 29.6991 78.7913C29.7223 78.7681 29.7453 78.7451 29.7685 78.7219C31.5256 76.9648 31.681 74.1587 30.1094 72.2339C25.7725 66.9218 23.168 60.1431 23.168 52.7662Z" fill="white"/>
<path opacity="0.3" d="M19.7483 59.6503C21.9193 59.0166 23.3712 56.9665 23.229 54.7095C23.1885 54.0668 23.168 53.4187 23.168 52.7661C23.168 42.6674 28.0487 33.6901 35.5743 28.0638C37.4367 26.6714 38.0569 24.1631 37.0089 22.0871C36.9942 22.0577 36.9794 22.0286 36.9646 21.9993C35.5842 19.2624 32.0588 18.4288 29.609 20.2715C19.742 27.6938 13.3489 39.4962 13.3489 52.7661C13.3489 53.6042 13.3746 54.4363 13.425 55.2619C13.6168 58.396 16.6395 60.5579 19.6536 59.6779L19.7483 59.6503Z" fill="white"/>
<path d="M107.751 5.54917C108.083 5.33042 108.083 4.84463 107.751 4.62589C106.894 4.06142 106.08 3.40435 105.325 2.65467C104.57 1.905 103.908 1.09774 103.339 0.247236C103.118 -0.0822493 102.629 -0.0822493 102.409 0.247236C101.84 1.09774 101.178 1.905 100.422 2.65467C99.6669 3.40435 98.8534 4.06121 97.9963 4.62589C97.6643 4.84463 97.6643 5.33042 97.9963 5.54917C98.8534 6.11364 99.6669 6.77071 100.422 7.52038C101.178 8.27006 101.84 9.07732 102.409 9.92782C102.629 10.2573 103.118 10.2573 103.339 9.92782C103.908 9.07732 104.57 8.27006 105.325 7.52038C106.081 6.7705 106.894 6.11364 107.751 5.54917Z" fill="#ABFF40"/>
<path d="M107.751 5.54863C106.894 6.11332 106.081 6.76997 105.325 7.51985C104.569 8.26974 103.908 9.077 103.339 9.9275C103.118 10.2566 102.629 10.2566 102.409 9.9275C101.84 9.077 101.178 8.26995 100.422 7.51985C100.324 7.42219 100.224 7.326 100.123 7.23129C100.257 7.24247 100.391 7.24795 100.528 7.24795C103.121 7.24795 105.235 5.20417 105.322 2.65161C105.324 2.65309 105.324 2.65309 105.325 2.65435C106.081 3.40445 106.894 4.0611 107.751 4.62557C108.083 4.84452 108.083 5.32968 107.751 5.54863Z" fill="#6EFF3C"/>
<path d="M103.019 15.4917L100.53 14.7201C96.9366 13.6059 94.1226 10.792 93.0085 7.19823L92.2369 4.70937C92.1615 4.46637 91.9369 4.30078 91.6825 4.30078C91.4281 4.30078 91.2035 4.46637 91.1282 4.70937L90.3566 7.19823C89.2424 10.792 86.4285 13.6059 82.8347 14.7201L80.3461 15.4917C80.1031 15.567 79.9375 15.7916 79.9375 16.046C79.9375 16.3004 80.1031 16.5251 80.3461 16.6004L82.8349 17.372C86.4287 18.4862 89.2426 21.3001 90.3568 24.8938L91.1284 27.3827C91.2037 27.6257 91.4283 27.7913 91.6827 27.7913C91.9371 27.7913 92.1618 27.6257 92.2371 27.3827L93.0087 24.8938C94.1228 21.3001 96.9368 18.4862 100.531 17.372L103.019 16.6004C103.262 16.5251 103.428 16.3004 103.428 16.046C103.428 15.7916 103.262 15.567 103.019 15.4917Z" fill="#ABFF40"/>
<path d="M103.427 16.045C103.427 16.2996 103.262 16.5245 103.018 16.6002L100.532 17.372C96.9374 18.4852 94.1233 21.2995 93.01 24.8937L92.2382 27.3827C92.1622 27.6266 91.9376 27.7918 91.683 27.7918C91.4284 27.7918 91.2035 27.6266 91.1278 27.3827L90.356 24.8937C89.9794 23.6749 89.4053 22.5453 88.6685 21.5406C92.5822 20.8445 95.5507 17.4237 95.5507 13.3121C95.5507 12.6268 95.4695 11.9606 95.3124 11.3213C96.6828 12.8921 98.4785 14.0839 100.532 14.7206L103.018 15.4924C103.262 15.5683 103.427 15.7904 103.427 16.045Z" fill="#6EFF3C"/>
<path d="M26.7587 86.8121C27.0907 86.5934 27.0907 86.1076 26.7587 85.8888C25.9017 85.3242 25.0881 84.6673 24.3327 83.9176C23.5774 83.1679 22.9155 82.3607 22.3466 81.5102C22.1261 81.1807 21.6367 81.1807 21.4163 81.5102C20.8474 82.3607 20.1855 83.1679 19.4301 83.9176C18.6748 84.6673 17.8612 85.3242 17.0041 85.8888C16.6721 86.1076 16.6721 86.5934 17.0041 86.8121C17.8612 87.3768 18.6748 88.0337 19.4301 88.7833C20.1855 89.533 20.8474 90.3403 21.4163 91.1908C21.6367 91.5203 22.1261 91.5203 22.3466 91.1908C22.9155 90.3403 23.5774 89.533 24.3327 88.7833C25.0881 88.0337 25.9017 87.3768 26.7587 86.8121Z" fill="#ABFF40"/>
<path d="M26.759 86.8116C25.9022 87.3763 25.0888 88.0329 24.333 88.7828C23.5772 89.5329 22.9155 90.3399 22.3466 91.1904C22.126 91.5195 21.6372 91.5195 21.4166 91.1904C20.8477 90.3401 20.186 89.5329 19.4302 88.7828C19.3319 88.6851 19.2321 88.5889 19.1309 88.4942C19.2644 88.5054 19.3992 88.5109 19.5354 88.5109C22.1287 88.5109 24.2429 86.4671 24.3301 83.9146L24.3328 83.9173C25.0886 84.6674 25.902 85.324 26.7588 85.8885C27.0906 86.1077 27.0906 86.5928 26.759 86.8116Z" fill="#6EFF3C"/>
<path d="M23.0816 95.7001L20.5928 94.9284C16.999 93.8143 14.1851 91.0004 13.071 87.4066L12.2994 84.9177C12.2241 84.6747 11.9994 84.5092 11.745 84.5092C11.4906 84.5092 11.266 84.6747 11.1907 84.9177L10.4191 87.4066C9.30488 91.0004 6.49098 93.8143 2.89723 94.9284L0.408375 95.7001C0.165586 95.7754 0 96 0 96.2544C0 96.5088 0.165586 96.7334 0.408586 96.8087L2.89744 97.5804C6.49119 98.6945 9.3051 101.508 10.4193 105.102L11.1909 107.591C11.2662 107.834 11.4908 108 11.7452 108C11.9996 108 12.2243 107.834 12.2996 107.591L13.0712 105.102C14.1853 101.508 16.9993 98.6945 20.593 97.5804L23.0819 96.8087C23.3249 96.7334 23.4904 96.5088 23.4904 96.2544C23.49 96 23.3244 95.7754 23.0816 95.7001Z" fill="#ABFF40"/>
<path d="M23.4894 96.2534C23.4894 96.508 23.3243 96.7329 23.0804 96.8086L20.5941 97.5804C16.9999 98.6935 14.1858 101.508 13.0725 105.102L12.3007 107.591C12.2247 107.835 12.0001 108 11.7455 108C11.4909 108 11.266 107.835 11.1903 107.591L10.4185 105.102C10.0419 103.883 9.46776 102.754 8.73096 101.749C12.6447 101.053 15.6132 97.6321 15.6132 93.5205C15.6132 92.8352 15.532 92.169 15.3749 91.5297C16.7453 93.1005 18.541 94.2923 20.5941 94.9289L23.0804 95.7008C23.324 95.7767 23.4894 95.9988 23.4894 96.2534Z" fill="#6EFF3C"/>
<g style="mix-blend-mode:screen">
<path d="M73.3176 63.1167L55.6018 32.4318C55.3238 31.9505 54.8202 31.7296 54.3353 31.7693L53.461 32.9807L51.6682 60.4674L73.2193 64.598C73.5289 64.194 73.6081 63.6197 73.3176 63.1167Z" fill="#11CA01"/>
<path d="M72.1623 65.1179C72.6082 65.1179 72.9818 64.908 73.2195 64.5981L61.6303 57.6023L48.0112 56.1959L35.564 64.4242C35.785 64.8265 36.206 65.1179 36.7306 65.1179H72.1623Z" fill="#32FC00"/>
<path d="M54.3343 45.3935L54.3352 31.7709C53.9248 31.805 53.5261 32.026 53.291 32.4334L35.5752 63.1183C35.3241 63.5535 35.3523 64.0404 35.564 64.4259L47.9093 57.3844L54.3343 45.3935Z" fill="#56FF3A"/>
<path d="M53.2909 44.8201L46.3035 56.9225C45.79 57.812 46.4319 58.9236 47.4589 58.9236H61.4334C62.4605 58.9236 63.1024 57.812 62.5888 56.9225L55.6016 44.8201C55.0883 43.9307 53.8045 43.9307 53.2909 44.8201Z" fill="#9FFF7D"/>
</g>
</svg>
