<svg width="68" height="68" viewBox="0 0 68 68" fill="none" xmlns="http://www.w3.org/2000/svg">
<path d="M34 68C52.7777 68 68 52.7777 68 34C68 15.2223 52.7777 0 34 0C15.2223 0 0 15.2223 0 34C0 52.7777 15.2223 68 34 68Z" fill="url(#paint0_linear)"/>
<path d="M54.0547 34C54.0547 23.8701 46.5151 15.3072 36.6857 14.0312C36.0939 13.9543 35.539 14.333 35.3944 14.9115L34.2384 19.5355C34.0635 20.2356 34.5556 20.9271 35.2742 20.991C41.8517 21.5763 47.0042 27.2904 47.0042 34C47.0042 38.3794 44.8254 42.4377 41.2558 44.8233L39.7188 42.7739C39.1262 41.9838 37.8783 42.2357 37.6387 43.1939L35.2885 52.5945C35.103 53.3366 35.6655 54.0547 36.4286 54.0547H45.8292C46.7953 54.0547 47.3496 52.9484 46.7693 52.1746L45.4973 50.4786C50.7176 46.8265 54.0547 40.7315 54.0547 34ZM32.7258 47.009C26.1483 46.4237 20.9958 40.744 20.9958 34.0784C20.9958 29.7256 23.2236 25.555 26.7456 23.1786L28.2812 25.2261C28.874 26.0162 30.1217 25.7643 30.3613 24.8061L32.7115 15.4055C32.897 14.6634 32.3345 13.9453 31.5714 13.9453H22.1708C21.2047 13.9453 20.6504 15.0515 21.2307 15.8254L22.503 17.5216C17.1942 21.2406 13.9453 27.4691 13.9453 34.0784C13.9453 44.1324 21.4123 52.6834 31.3143 53.9688C31.9028 54.0454 32.4603 53.6697 32.6056 53.0885L33.7616 48.4643C33.9366 47.7644 33.4444 47.0729 32.7258 47.009Z" fill="url(#paint1_linear)"/>
<defs>
<linearGradient id="paint0_linear" x1="34" y1="68" x2="34" y2="0" gradientUnits="userSpaceOnUse">
<stop stop-color="#C3FFE8"/>
<stop offset="0.9973" stop-color="#F0FFF4"/>
</linearGradient>
<linearGradient id="paint1_linear" x1="34" y1="13.9453" x2="34" y2="54.0547" gradientUnits="userSpaceOnUse">
<stop stop-color="#00B59C"/>
<stop offset="1" stop-color="#9CFFAC"/>
</linearGradient>
</defs>
</svg>
