<svg width="25" height="24" viewBox="0 0 25 24" fill="none" xmlns="http://www.w3.org/2000/svg">
<rect x="0.5" width="24" height="24" rx="12" fill="#FF9C00"/>
<path d="M15.1719 14.5859C15.125 14.6328 15.125 14.6797 15.125 14.7266V17.375H6.875V9.125H12.5234C12.5703 9.125 12.6172 9.125 12.6641 9.07812L13.4141 8.32812C13.5312 8.21094 13.4375 8 13.2734 8H6.875C6.24219 8 5.75 8.51562 5.75 9.125V17.375C5.75 18.0078 6.24219 18.5 6.875 18.5H15.125C15.7344 18.5 16.25 18.0078 16.25 17.375V13.9766C16.25 13.8125 16.0391 13.7188 15.9219 13.8359L15.1719 14.5859ZM18.8281 9.875C19.3672 9.33594 19.3672 8.46875 18.8281 7.92969L17.8203 6.92188C17.2812 6.38281 16.4141 6.38281 15.875 6.92188L9.73438 13.0625L9.5 15.1953C9.42969 15.8047 9.94531 16.3203 10.5547 16.25L12.6875 16.0156L18.8281 9.875ZM16.5312 10.5781L12.1719 14.9375L10.625 15.125L10.8125 13.5781L15.1719 9.21875L16.5312 10.5781ZM18.0312 8.72656C18.1484 8.82031 18.1484 8.96094 18.0547 9.07812L17.3281 9.80469L15.9688 8.42188L16.6719 7.71875C16.7656 7.60156 16.9297 7.60156 17.0234 7.71875L18.0312 8.72656Z" fill="white"/>
</svg>
