<svg width="16" height="25" viewBox="0 0 16 25" fill="none" xmlns="http://www.w3.org/2000/svg">
<path d="M13.25 0.5H2.75C1.48438 0.5 0.5 1.53125 0.5 2.75V22.25C0.5 23.5156 1.48438 24.5 2.75 24.5H13.25C14.4688 24.5 15.5 23.5156 15.5 22.25V2.75C15.5 1.53125 14.4688 0.5 13.25 0.5ZM8 23C7.15625 23 6.5 22.3438 6.5 21.5C6.5 20.7031 7.15625 20 8 20C8.79688 20 9.5 20.7031 9.5 21.5C9.5 22.3438 8.79688 23 8 23ZM13.25 17.9375C13.25 18.2656 12.9688 18.5 12.6875 18.5H3.3125C2.98438 18.5 2.75 18.2656 2.75 17.9375V3.3125C2.75 3.03125 2.98438 2.75 3.3125 2.75H12.6875C12.9688 2.75 13.25 3.03125 13.25 3.3125V17.9375Z" fill="#00468C"/>
</svg>
