<svg width="17" height="19" viewBox="0 0 17 19" fill="none" xmlns="http://www.w3.org/2000/svg">
<path d="M15.8828 3.20312L9.13281 0.390625C8.92188 0.320312 8.71094 0.285156 8.5 0.285156C8.25391 0.285156 8.04297 0.320312 7.83203 0.390625L1.08203 3.20312C0.449219 3.48438 0.0625 4.08203 0.0625 4.75C0.0625 11.7461 4.07031 16.5625 7.83203 18.1445C8.25391 18.3203 8.71094 18.3203 9.13281 18.1445C12.1562 16.8789 16.9375 12.5547 16.9375 4.75C16.9375 4.08203 16.5156 3.48438 15.8828 3.20312ZM8.5 15.9648V2.57031L14.6523 5.13672C14.5469 10.4453 11.7695 14.3125 8.5 15.9648Z" fill="#1496BF"/>
</svg>
