<svg width="34" height="34" viewBox="0 0 34 34" fill="none" xmlns="http://www.w3.org/2000/svg">
<g clip-path="url(#clip0)">
<path d="M28.2793 8.3491V25.522C28.2793 27.007 27.0714 28.2148 25.5864 28.2148H8.41355C6.92855 28.2148 5.7207 27.007 5.7207 25.522V8.3491C5.7207 6.8641 6.92855 5.65625 8.41355 5.65625H25.5864C27.0714 5.65625 28.2793 6.8641 28.2793 8.3491Z" fill="#ECF9FD"/>
<path d="M28.2793 8.3491V25.522C28.2793 27.007 27.0714 28.2148 25.5864 28.2148H17V5.65625H25.5864C27.0714 5.65625 28.2793 6.8641 28.2793 8.3491Z" fill="#D9F3FC"/>
<path d="M32.4687 17.9668H1.53124C0.252231 17.9668 0.251845 16.0332 1.53124 16.0332H32.4687C33.7477 16.0332 33.7481 17.9668 32.4687 17.9668Z" fill="#FF9C00"/>
<path d="M32.4687 17.9668H17V16.0332H32.4687C33.7478 16.0332 33.7481 17.9668 32.4687 17.9668Z" fill="#FF9C00"/>
<path d="M31.5663 8.68555V4.0669C31.5663 3.1663 30.8336 2.43359 29.933 2.43359H25.3143C24.0361 2.43359 24.0343 0.5 25.3143 0.5H29.933C31.8998 0.5 33.4999 2.10011 33.4999 4.0669V8.68555C33.4999 9.96378 31.5663 9.96559 31.5663 8.68555Z" fill="#001737"/>
<path d="M29.933 33.5H25.3143C24.0361 33.5 24.0343 31.5664 25.3143 31.5664H29.933C30.8336 31.5664 31.5663 30.8337 31.5663 29.9331V25.3145C31.5663 24.0362 33.4999 24.0344 33.4999 25.3145V29.9331C33.4999 31.8999 31.8998 33.5 29.933 33.5Z" fill="#001737"/>
<path d="M0.5 8.68555V4.0669C0.5 2.10011 2.10011 0.5 4.06684 0.5H8.68555C9.96378 0.5 9.96559 2.43359 8.68555 2.43359H4.06684C3.1663 2.43359 2.43359 3.1663 2.43359 4.0669V8.68555C2.43359 9.96378 0.5 9.96559 0.5 8.68555H0.5Z" fill="#00468C"/>
<path d="M8.68555 33.5H4.06684C2.10011 33.5 0.5 31.8999 0.5 29.9331V25.3145C0.5 24.0362 2.43359 24.0344 2.43359 25.3145V29.9331C2.43359 30.8337 3.1663 31.5664 4.06684 31.5664H8.68555C9.96378 31.5664 9.96559 33.5 8.68555 33.5Z" fill="#00468C"/>
<path d="M25.5864 28.2148H22.5201C21.2418 28.2148 21.24 26.2813 22.5201 26.2813H25.5864C26.0052 26.2813 26.3458 25.9406 26.3458 25.5219V22.4556C26.3458 21.1773 28.2794 21.1755 28.2794 22.4556V25.5219C28.2794 27.0068 27.0713 28.2148 25.5864 28.2148Z" fill="#001737"/>
<path d="M26.3458 11.4155V8.34923C26.3458 7.93048 26.0051 7.58984 25.5864 7.58984H22.5201C21.2418 7.58984 21.24 5.65625 22.5201 5.65625H25.5864C27.0713 5.65625 28.2794 6.86429 28.2794 8.34923V11.4155C28.2794 12.6938 26.3458 12.6956 26.3458 11.4155Z" fill="#001737"/>
<path d="M5.7207 11.4155V8.34923C5.7207 6.86429 6.92881 5.65625 8.41369 5.65625H11.48C12.7583 5.65625 12.7601 7.58984 11.48 7.58984H8.41369C7.99493 7.58984 7.6543 7.93048 7.6543 8.34923V11.4155C7.6543 12.6938 5.7207 12.6956 5.7207 11.4155Z" fill="#00468C"/>
<path d="M11.48 28.2148H8.41369C6.92881 28.2148 5.7207 27.0068 5.7207 25.5219V22.4556C5.7207 21.1773 7.6543 21.1755 7.6543 22.4556V25.5219C7.6543 25.9406 7.995 26.2813 8.41369 26.2813H11.48C12.7583 26.2813 12.7601 28.2148 11.48 28.2148Z" fill="#00468C"/>
</g>
<defs>
<clipPath id="clip0">
<rect width="33" height="33" fill="white" transform="translate(0.5 0.5)"/>
</clipPath>
</defs>
</svg>
