<svg width="68" height="68" viewBox="0 0 68 68" fill="none" xmlns="http://www.w3.org/2000/svg">
<path d="M34 68C52.7777 68 68 52.7777 68 34C68 15.2223 52.7777 0 34 0C15.2223 0 0 15.2223 0 34C0 52.7777 15.2223 68 34 68Z" fill="url(#paint0_linear)"/>
<path d="M41.5041 20.9958H26.4957C25.7395 22.1467 24.7678 23.1387 23.6405 23.9106V34.0784C23.6405 41.4089 30.5793 45.2139 34.0047 46.6441C37.4272 45.2237 44.3593 41.4359 44.3593 34.0784V23.9106C43.2318 23.1387 42.2602 22.1467 41.5041 20.9958ZM33.9999 41.1288C29.557 41.1288 25.9426 37.4389 25.9426 32.9032C25.9426 28.3677 29.557 24.6776 33.9999 24.6776C38.4427 24.6776 42.0572 28.3676 42.0572 32.9032C42.0572 37.4388 38.4427 41.1288 33.9999 41.1288ZM50.1144 18.6457C48.2104 18.6457 46.6613 17.0643 46.6613 15.1204C46.6613 14.4715 46.146 13.9453 45.5102 13.9453H22.4894C21.8538 13.9453 21.3383 14.4714 21.3383 15.1204C21.3383 17.0643 19.7892 18.6457 17.8852 18.6457C17.2496 18.6457 16.7341 19.1717 16.7341 19.8208V34.0784C16.7341 37.5218 17.6418 40.7239 19.432 43.5957C20.8483 45.8677 22.8135 47.9292 25.2733 49.723C28.9755 52.4226 33.3693 54.0547 33.9999 54.0547C34.5977 54.0547 38.9707 52.4616 42.7262 49.723C45.186 47.9292 47.1514 45.8677 48.5676 43.5957C50.3579 40.7239 51.2655 37.5218 51.2655 34.0784V19.8207C51.2655 19.1718 50.7502 18.6457 50.1144 18.6457ZM46.6613 34.0784C46.6613 38.0792 45.0066 41.608 41.7431 44.5667C39.1045 46.9589 36.0205 48.3742 34.4171 49.0049C34.15 49.1099 33.8541 49.1097 33.5868 49.004C31.9882 48.3708 28.9122 46.9517 26.273 44.5615C22.9985 41.5959 21.3382 38.0688 21.3382 34.0784V23.2599C21.3382 22.841 21.5567 22.4537 21.9117 22.2434C23.1333 21.5199 24.1537 20.4781 24.8625 19.231C25.0684 18.8687 25.4478 18.6455 25.8581 18.6455H42.1413C42.5517 18.6455 42.931 18.8685 43.1369 19.231C43.8457 20.4782 44.8659 21.5199 46.0877 22.2434C46.4426 22.4537 46.661 22.841 46.661 23.2599V34.0784H46.6613ZM33.9999 27.0279C30.8265 27.0279 28.2447 29.6635 28.2447 32.9032C28.2447 36.1429 30.8265 38.7786 33.9999 38.7786C37.1733 38.7786 39.7551 36.1429 39.7551 32.9032C39.7551 29.6635 37.1733 27.0279 33.9999 27.0279ZM37.3461 31.9716L33.893 35.4968C33.4435 35.9557 32.7147 35.9557 32.2652 35.4968L30.5387 33.7342C30.0891 33.2754 30.0891 32.5314 30.5387 32.0724C30.9881 31.6135 31.717 31.6135 32.1664 32.0724L33.0791 33.004L35.7183 30.3097C36.1678 29.8508 36.8967 29.8508 37.3461 30.3097C37.7955 30.7687 37.7955 31.5127 37.3461 31.9716Z" fill="url(#paint1_linear)"/>
<defs>
<linearGradient id="paint0_linear" x1="34" y1="68" x2="34" y2="0" gradientUnits="userSpaceOnUse">
<stop stop-color="#C3FFE8"/>
<stop offset="0.9973" stop-color="#F0FFF4"/>
</linearGradient>
<linearGradient id="paint1_linear" x1="33.9999" y1="13.9453" x2="33.9999" y2="54.0547" gradientUnits="userSpaceOnUse">
<stop stop-color="#00B59C"/>
<stop offset="1" stop-color="#9CFFAC"/>
</linearGradient>
</defs>
</svg>
