<svg width="28" height="34" viewBox="0 0 28 34" fill="none" xmlns="http://www.w3.org/2000/svg">
<path d="M1.02555 19.1489C1.04636 19.1511 1.06716 19.1518 1.08797 19.1518C1.43302 19.1518 1.7336 18.9029 1.79386 18.5564C1.83547 18.3175 2.87567 12.6961 8.26101 12.6961H18.3043V15.5656C18.3043 15.8497 18.4714 16.1065 18.7318 16.222C18.9915 16.3368 19.2942 16.288 19.5044 16.0965L27.3956 8.92273C27.5448 8.78643 27.6301 8.59417 27.6301 8.39187C27.6301 8.18957 27.5448 7.99732 27.3956 7.86102L19.5044 0.68726C19.2942 0.495721 18.9908 0.446222 18.7318 0.561719C18.4714 0.677217 18.3043 0.934037 18.3043 1.21812V4.805H8.26101C3.98401 4.805 0.369873 8.09058 0.369873 11.9788V18.4351C0.369873 18.8075 0.654671 19.1174 1.02555 19.1489ZM1.80462 11.9788C1.80462 8.86821 4.76165 6.23975 8.26101 6.23975H19.0216C19.4184 6.23975 19.739 5.91836 19.739 5.52237V2.8401L25.8468 8.39187L19.739 13.9436V11.9788C19.739 11.5828 19.4184 11.2614 19.0216 11.2614H8.26101C4.91588 11.2614 2.94095 13.0519 1.80462 14.8289V11.9788Z" fill="#00468C"/>
<path d="M26.9745 14.8518C26.605 14.8167 26.27 15.0764 26.2062 15.4444C26.1638 15.6833 25.1244 21.3046 19.739 21.3046H10.4131V18.4351C10.4131 18.1568 10.2517 17.9035 9.99992 17.7852C9.74741 17.6675 9.45041 17.7055 9.23664 17.8842L0.628128 25.0579C0.464566 25.1942 0.369873 25.3958 0.369873 25.6089C0.369873 25.8219 0.464566 26.0235 0.628128 26.1598L9.23664 33.3336C9.36792 33.4433 9.53148 33.5 9.69576 33.5C9.79906 33.5 9.90308 33.4778 9.99992 33.4326C10.2517 33.3142 10.4131 33.061 10.4131 32.7826V29.1957H19.739C24.0167 29.1957 27.6301 25.9102 27.6301 22.022V15.5656C27.6301 15.1933 27.3454 14.8834 26.9745 14.8518ZM26.1954 22.022C26.1954 25.1325 23.2391 27.761 19.739 27.761H9.69576C9.29977 27.761 8.97838 28.0824 8.97838 28.4784V31.251L2.20779 25.6089L8.97838 19.9667V22.022C8.97838 22.418 9.29977 22.7394 9.69576 22.7394H19.739C23.0841 22.7394 25.0591 20.9488 26.1954 19.1719V22.022Z" fill="#1496BF"/>
</svg>
