<svg width="68" height="68" viewBox="0 0 68 68" fill="none" xmlns="http://www.w3.org/2000/svg">
<path d="M34 68C52.7777 68 68 52.7777 68 34C68 15.2223 52.7777 0 34 0C15.2223 0 0 15.2223 0 34C0 52.7777 15.2223 68 34 68Z" fill="url(#paint0_linear)"/>
<path d="M34 42.2256C33.352 42.2256 32.8249 42.7527 32.8249 43.4007C32.8249 44.0487 33.352 44.5759 34 44.5759C34.648 44.5759 35.1751 44.0487 35.1751 43.4007C35.1751 42.7527 34.648 42.2256 34 42.2256ZM34 23.4243C33.352 23.4243 32.8249 23.9514 32.8249 24.5994V34C32.8249 34.6479 33.352 35.1751 34 35.1751C34.648 35.1751 35.1751 34.648 35.1751 34V24.5994C35.1751 23.9514 34.648 23.4243 34 23.4243ZM53.7104 25.3489L42.651 14.2894C42.4307 14.0691 42.1318 13.9453 41.8201 13.9453H26.1799C25.8682 13.9453 25.5693 14.0691 25.349 14.2894L14.2896 25.3489C14.0692 25.5692 13.9453 25.8682 13.9453 26.1797V41.8201C13.9453 42.1318 14.0691 42.4307 14.2896 42.651L25.349 53.7104C25.5693 53.9309 25.8682 54.0547 26.1799 54.0547H41.8203C42.132 54.0547 42.4308 53.9309 42.6511 53.7104L53.7106 42.651C53.9309 42.4307 54.0548 42.1317 54.0548 41.8201V26.1797C54.0547 25.8682 53.9309 25.5692 53.7104 25.3489ZM34 46.9258C32.0562 46.9258 30.4748 45.3444 30.4748 43.4006C30.4748 41.4568 32.0562 39.8754 34 39.8754C35.9438 39.8754 37.5252 41.4568 37.5252 43.4006C37.5252 45.3444 35.9438 46.9258 34 46.9258ZM37.5252 34C37.5252 35.9438 35.9438 37.5252 34 37.5252C32.0562 37.5252 30.4748 35.9438 30.4748 34V24.5994C30.4748 22.6556 32.0562 21.0742 34 21.0742C35.9438 21.0742 37.5252 22.6556 37.5252 24.5994V34Z" fill="url(#paint1_linear)"/>
<defs>
<linearGradient id="paint0_linear" x1="34" y1="68" x2="34" y2="0" gradientUnits="userSpaceOnUse">
<stop stop-color="#FFC2CC"/>
<stop offset="1" stop-color="#FFF2F4"/>
</linearGradient>
<linearGradient id="paint1_linear" x1="34" y1="13.9453" x2="34" y2="54.0547" gradientUnits="userSpaceOnUse">
<stop stop-color="#FD3A84"/>
<stop offset="1" stop-color="#FFA68D"/>
</linearGradient>
</defs>
</svg>
