<svg width="68" height="68" viewBox="0 0 68 68" fill="none" xmlns="http://www.w3.org/2000/svg">
<circle cx="34" cy="34" r="34" fill="#E1FFF0"/>
<path d="M34 20C26.2788 20 20 26.2788 20 34C20 41.7212 26.2788 48 34 48C41.7212 48 48 41.7212 48 34C48 26.2788 41.7212 20 34 20Z" fill="url(#paint0_linear)"/>
<path d="M54.9773 27.4602C54.7625 26.7812 54.0406 26.4031 53.3617 26.618C52.6828 26.8328 52.3047 27.5547 52.5195 28.2336C53.1211 30.1156 53.4219 32.0836 53.4219 34.0859C53.4219 44.7508 44.7508 53.4219 34.0859 53.4219C30.0641 53.4219 26.2312 52.193 23.0258 49.95C23.6102 50.0102 24.1773 49.6578 24.375 49.0734C24.5984 48.3945 24.2375 47.6641 23.5586 47.4406L18.093 45.6188C17.6289 45.4641 17.1219 45.5844 16.7781 45.9281C16.4344 46.2719 16.3141 46.7875 16.4688 47.2516L18.2906 52.7172C18.4711 53.2586 18.9695 53.6023 19.5109 53.6023C19.6484 53.6023 19.7859 53.5852 19.9148 53.5336C20.5938 53.3102 20.9547 52.5797 20.7312 51.9008L20.5336 51.2992C24.3492 54.3242 29.093 56 34.0859 56C39.9383 56 45.4383 53.7227 49.5805 49.5805C53.7227 45.4383 56 39.9383 56 34.0859C56 31.8258 55.6562 29.5914 54.9773 27.4602ZM14.5781 33.9141C14.5781 23.2492 23.2492 14.5781 33.9141 14.5781C37.9359 14.5781 41.7688 15.807 44.9742 18.05C44.3898 17.9898 43.8227 18.3422 43.625 18.9266C43.4016 19.6055 43.7625 20.3359 44.4414 20.5594L49.907 22.3813C50.0445 22.4242 50.182 22.45 50.3109 22.45C50.6461 22.45 50.9813 22.3211 51.2219 22.0719C51.5656 21.7281 51.6859 21.2125 51.5312 20.757L49.7094 15.2914C49.4859 14.6125 48.7555 14.2516 48.0766 14.475C47.3977 14.6984 47.0367 15.4289 47.2602 16.1078L47.4578 16.7094C43.6508 13.6758 38.907 12 33.9141 12C28.0617 12 22.5617 14.2773 18.4195 18.4195C14.2773 22.5617 12 28.0617 12 33.9141C12 36.1742 12.3437 38.4086 13.0227 40.5398C13.1945 41.0898 13.7016 41.4422 14.2516 41.4422C14.3805 41.4422 14.5094 41.425 14.6383 41.382C15.3172 41.1672 15.6953 40.4453 15.4805 39.7664C14.8789 37.8758 14.5781 35.9078 14.5781 33.9141Z" fill="url(#paint1_linear)"/>
<path d="M32 40C31.4881 40 30.9761 39.825 30.5857 39.4669L26.5857 35.7989C25.8048 35.0828 25.8048 33.9212 26.5857 33.2051C27.3666 32.489 28.6334 32.489 29.4143 33.2051L32 35.5761L38.5857 29.5371C39.3666 28.821 40.6334 28.821 41.4143 29.5371C42.1952 30.2532 42.1952 31.4148 41.4143 32.1309L33.423 39.459C33.0239 39.817 32.5119 40 32 40Z" fill="#D2FFC9"/>
<defs>
<linearGradient id="paint0_linear" x1="34" y1="48" x2="34" y2="20" gradientUnits="userSpaceOnUse">
<stop stop-color="#5BD600"/>
<stop offset="1" stop-color="#27EFFF"/>
</linearGradient>
<linearGradient id="paint1_linear" x1="34" y1="56" x2="34" y2="12" gradientUnits="userSpaceOnUse">
<stop stop-color="#92FF3E"/>
<stop offset="1" stop-color="#68FF9D"/>
</linearGradient>
</defs>
</svg>
