<svg width="69" height="68" viewBox="0 0 69 68" fill="none" xmlns="http://www.w3.org/2000/svg">
<g clip-path="url(#clip0)">
<path d="M2.49219 12.0859C1.37643 12.0859 0.5 12.9624 0.5 14.0781V61.8906C0.5 63.0064 1.37643 63.8828 2.49219 63.8828H66.5078C67.6236 63.8828 68.5 63.0064 68.5 61.8906V14.0781C68.5 12.9624 67.6236 12.0859 66.5078 12.0859H2.49219Z" fill="url(#paint0_linear)"/>
<path d="M28.5234 35.9922C28.5234 31.5973 24.9496 28.0234 20.5547 28.0234C16.1598 28.0234 12.5859 31.5973 12.5859 35.9922C12.5859 40.3871 16.1598 43.9609 20.5547 43.9609C24.9496 43.9609 28.5234 40.3871 28.5234 35.9922ZM36.4922 34C36.4922 35.1011 37.3832 35.9922 38.4844 35.9922H58.4062C59.5074 35.9922 60.3984 35.1011 60.3984 34C60.3984 32.8989 59.5074 32.0078 58.4062 32.0078H38.4844C37.3832 32.0078 36.4922 32.8989 36.4922 34ZM58.4062 39.9766H38.4844C37.3832 39.9766 36.4922 40.8676 36.4922 41.9688C36.4922 43.0699 37.3832 43.9609 38.4844 43.9609H58.4062C59.5074 43.9609 60.3984 43.0699 60.3984 41.9688C60.3984 40.8676 59.5074 39.9766 58.4062 39.9766ZM54.4219 47.9453H42.4688C41.3676 47.9453 40.4766 48.8364 40.4766 49.9375C40.4766 51.0386 41.3676 51.9297 42.4688 51.9297H54.4219C55.523 51.9297 56.4141 51.0386 56.4141 49.9375C56.4141 48.8364 55.523 47.9453 54.4219 47.9453ZM22.5469 43.9609H20.5547H18.5625C13.0703 43.9609 8.60156 48.4297 8.60156 53.9219C8.60156 55.023 9.4926 55.9141 10.5938 55.9141H30.5156C31.6168 55.9141 32.5078 55.023 32.5078 53.9219C32.5078 48.4297 28.0391 43.9609 22.5469 43.9609ZM26.5312 24.0391H42.4688C43.5845 24.0391 44.4609 23.1626 44.4609 22.0469C44.4609 20.9311 43.5845 20.0547 42.4688 20.0547H40.4766V6.10938C40.4766 4.99362 39.6001 4.11719 38.4844 4.11719H30.5156C29.3999 4.11719 28.5234 4.99362 28.5234 6.10938V20.0547H26.5312C25.4155 20.0547 24.5391 20.9311 24.5391 22.0469C24.5391 23.1626 25.4155 24.0391 26.5312 24.0391Z" fill="url(#paint1_linear)"/>
</g>
<defs>
<linearGradient id="paint0_linear" x1="34.5" y1="63.8828" x2="34.5" y2="12.0859" gradientUnits="userSpaceOnUse">
<stop stop-color="#5558FF"/>
<stop offset="1" stop-color="#00C0FF"/>
</linearGradient>
<linearGradient id="paint1_linear" x1="34.5" y1="55.9141" x2="34.5" y2="4.11719" gradientUnits="userSpaceOnUse">
<stop stop-color="#ADDCFF"/>
<stop offset="0.5028" stop-color="#EAF6FF"/>
<stop offset="1" stop-color="#EAF6FF"/>
</linearGradient>
<clipPath id="clip0">
<rect width="68" height="68" fill="white" transform="translate(0.5)"/>
</clipPath>
</defs>
</svg>
