<svg width="69" height="68" viewBox="0 0 69 68" fill="none" xmlns="http://www.w3.org/2000/svg">
<g clip-path="url(#clip0)">
<path d="M34.5 68C53.2777 68 68.5 52.7777 68.5 34C68.5 15.2223 53.2777 0 34.5 0C15.7223 0 0.5 15.2223 0.5 34C0.5 52.7777 15.7223 68 34.5 68Z" fill="url(#paint0_linear)"/>
<path d="M34.5 68C53.2777 68 68.5 52.7777 68.5 34C68.5 15.2223 53.2777 0 34.5 0C15.7223 0 0.5 15.2223 0.5 34C0.5 52.7777 15.7223 68 34.5 68Z" fill="url(#paint1_radial)"/>
<path d="M56.8696 37.1544C55.5138 37.1756 54.1581 37.1949 52.8025 37.2123C52.7301 41.2402 52.6059 45.2681 52.4299 49.2961C53.7581 49.2538 55.0862 49.2068 56.4143 49.1552C57.5134 49.1116 58.4588 48.1812 58.518 47.082C58.6592 44.4257 58.7696 41.7695 58.8493 39.1132C58.8827 38.014 57.993 37.1375 56.8696 37.1544Z" fill="url(#paint2_linear)"/>
<path d="M54.515 47.2218C54.6325 44.5452 54.7246 41.8688 54.791 39.1922C54.819 38.0844 53.9258 37.1987 52.8024 37.2123C50.7688 37.2383 48.7353 37.2601 46.7016 37.2773C44.644 39.3242 42.5896 41.3792 40.5518 43.433C42.5483 45.457 44.5198 47.4672 46.4533 49.4546C48.4455 49.4124 50.4377 49.3595 52.4298 49.2962C53.529 49.2605 54.4655 48.3296 54.515 47.2218Z" fill="url(#paint3_linear)"/>
<path d="M12.1306 37.1543C11.0072 37.1377 10.1175 38.0138 10.1511 39.1133C10.2308 41.7695 10.3411 44.4258 10.4823 47.082C10.5417 48.1812 11.4869 49.1116 12.5861 49.1552C23.8751 49.5943 35.1642 49.694 46.4532 49.4546C46.5706 45.3954 46.6534 41.3364 46.7016 37.2773C35.178 37.3757 23.6544 37.3346 12.1306 37.1543Z" fill="url(#paint4_linear)"/>
<path d="M34.5 7.99292C30.6683 7.99425 27.482 11.2395 27.4282 15.1682C27.3982 17.8852 27.3772 20.6023 27.3652 23.3192C28.7243 23.315 30.0832 23.3118 31.4423 23.3099C31.4475 20.5883 31.4565 17.8667 31.4693 15.145C31.479 13.4544 32.8368 12.0768 34.5 12.0768C36.1632 12.0768 37.5213 13.4544 37.5308 15.145C37.5124 11.2075 37.4838 7.99677 34.5 7.99292Z" fill="url(#paint5_linear)"/>
<path d="M34.5 7.99292C36.1422 7.99319 37.5078 11.2065 37.5308 15.1451C37.5437 17.8667 37.5526 20.5885 37.5577 23.3101C38.9168 23.3119 40.2758 23.315 41.6348 23.3194C41.6227 20.6024 41.6018 17.8853 41.5719 15.1684C41.5181 11.2394 38.3318 7.99412 34.5 7.99292Z" fill="url(#paint6_linear)"/>
<path d="M14.3279 43.207C14.3667 44.3148 15.3025 45.2396 16.4115 45.2682C17.5207 45.2971 18.3918 44.4125 18.3622 43.2965C18.3323 42.1805 17.4056 41.261 16.2873 41.2403C15.1691 41.2196 14.289 42.0991 14.3279 43.207Z" fill="url(#paint7_linear)"/>
<path d="M27.3899 19.2436C26.2684 19.2501 25.3496 20.1681 25.3403 21.2916C25.3144 24.5928 25.3058 27.894 25.314 31.1951C25.317 32.3189 26.2348 33.2332 27.3611 33.2362C28.7208 33.2397 30.0807 33.2422 31.4406 33.2438C31.4334 28.5717 31.4375 23.8995 31.4529 19.2274C30.0985 19.2306 28.7442 19.2361 27.3899 19.2436Z" fill="url(#paint8_linear)"/>
<path d="M22.3967 43.3659C22.4202 44.4861 23.3417 45.4106 24.4508 45.4266C25.56 45.4426 26.4456 44.5406 26.4311 43.4155C26.4165 42.2905 25.5001 41.3714 24.3818 41.3597C23.2636 41.3487 22.3732 42.2452 22.3967 43.3659Z" fill="url(#paint9_linear)"/>
<path d="M30.4656 43.4455C30.474 44.5724 31.381 45.4913 32.4902 45.4946C33.5993 45.4977 34.4993 44.583 34.5001 43.4554C34.5007 42.3276 33.5947 41.4137 32.4764 41.4113C31.3583 41.4092 30.4574 42.3184 30.4656 43.4455Z" fill="url(#paint10_linear)"/>
<path d="M38.5345 43.4456C38.5277 44.5729 39.4203 45.4816 40.5296 45.472C41.6387 45.4622 42.553 44.5402 42.5689 43.4158C42.5849 42.2913 41.6892 41.3876 40.571 41.3943C39.4527 41.401 38.5414 42.3182 38.5345 43.4456Z" fill="url(#paint11_linear)"/>
<path d="M34.5502 19.2239C33.5178 19.2239 32.4853 19.2251 31.4528 19.2275C30.3313 19.2304 29.4166 20.1474 29.4113 21.2738C29.397 24.5829 29.3921 27.8919 29.3967 31.201C29.3984 32.3274 30.3143 33.2423 31.4404 33.2438C34.8399 33.2475 38.2395 33.245 41.639 33.2362C42.7652 33.2329 43.683 32.3186 43.686 31.1951C43.6875 30.5886 43.6885 29.9821 43.6888 29.3756C40.6447 26.0041 37.5809 22.6087 34.5502 19.2239Z" fill="url(#paint12_linear)"/>
<path d="M43.6889 29.3757C43.6905 26.6811 43.6808 23.9863 43.6598 21.2917C43.6506 20.1682 42.7317 19.2505 41.6102 19.2437C39.2569 19.2306 36.9036 19.2241 34.5503 19.2239C34.547 24.5044 38.5513 28.8467 43.6889 29.3757Z" fill="url(#paint13_linear)"/>
</g>
<defs>
<linearGradient id="paint0_linear" x1="10.4584" y1="58.0416" x2="58.5417" y2="9.95828" gradientUnits="userSpaceOnUse">
<stop stop-color="#364AFF"/>
<stop offset="1" stop-color="#FC54FF"/>
</linearGradient>
<radialGradient id="paint1_radial" cx="0" cy="0" r="1" gradientUnits="userSpaceOnUse" gradientTransform="translate(33.9892 26.6296) scale(41.6948)">
<stop stop-color="#8D00DB" stop-opacity="0.66"/>
<stop offset="0.0401" stop-color="#9606DE" stop-opacity="0.634"/>
<stop offset="0.2345" stop-color="#BA22EA" stop-opacity="0.505"/>
<stop offset="0.4294" stop-color="#D738F3" stop-opacity="0.377"/>
<stop offset="0.6228" stop-color="#EC48FA" stop-opacity="0.249"/>
<stop offset="0.8138" stop-color="#F851FE" stop-opacity="0.123"/>
<stop offset="1" stop-color="#FC54FF" stop-opacity="0"/>
</radialGradient>
<linearGradient id="paint2_linear" x1="33.3139" y1="64.879" x2="58.6581" y2="39.5347" gradientUnits="userSpaceOnUse">
<stop stop-color="#B31DE7"/>
<stop offset="1" stop-color="#FDA0FF"/>
</linearGradient>
<linearGradient id="paint3_linear" x1="29.1946" y1="64.0548" x2="59.4812" y2="33.7681" gradientUnits="userSpaceOnUse">
<stop stop-color="#B31DE7"/>
<stop offset="1" stop-color="#FDA0FF"/>
</linearGradient>
<linearGradient id="paint4_linear" x1="-16.5708" y1="88.7358" x2="46.0299" y2="26.1351" gradientUnits="userSpaceOnUse">
<stop stop-color="#FDA0FF"/>
<stop offset="1" stop-color="white"/>
</linearGradient>
<linearGradient id="paint5_linear" x1="17.7478" y1="29.319" x2="43.8553" y2="3.4913" gradientUnits="userSpaceOnUse">
<stop stop-color="#FDA0FF"/>
<stop offset="1" stop-color="white"/>
</linearGradient>
<linearGradient id="paint6_linear" x1="18.7446" y1="34.979" x2="41.3409" y2="12.3826" gradientUnits="userSpaceOnUse">
<stop stop-color="#FDA0FF"/>
<stop offset="1" stop-color="white"/>
</linearGradient>
<linearGradient id="paint7_linear" x1="14.0647" y1="45.5353" x2="21.3139" y2="38.286" gradientUnits="userSpaceOnUse">
<stop stop-color="#FC54FF"/>
<stop offset="0.4062" stop-color="#FD9BFF"/>
<stop offset="1" stop-color="white"/>
</linearGradient>
<linearGradient id="paint8_linear" x1="22.1352" y1="33.1054" x2="53.0768" y2="2.16365" gradientUnits="userSpaceOnUse">
<stop stop-color="#FC54FF"/>
<stop offset="0.4062" stop-color="#FD9BFF"/>
<stop offset="1" stop-color="white"/>
</linearGradient>
<linearGradient id="paint9_linear" x1="22.0922" y1="45.7133" x2="29.4648" y2="38.3406" gradientUnits="userSpaceOnUse">
<stop stop-color="#FC54FF"/>
<stop offset="0.4062" stop-color="#FD9BFF"/>
<stop offset="1" stop-color="white"/>
</linearGradient>
<linearGradient id="paint10_linear" x1="30.1263" y1="45.8054" x2="37.6022" y2="38.3295" gradientUnits="userSpaceOnUse">
<stop stop-color="#FC54FF"/>
<stop offset="0.4062" stop-color="#FD9BFF"/>
<stop offset="1" stop-color="white"/>
</linearGradient>
<linearGradient id="paint11_linear" x1="38.1666" y1="45.8118" x2="45.7252" y2="38.2533" gradientUnits="userSpaceOnUse">
<stop stop-color="#FC54FF"/>
<stop offset="0.4062" stop-color="#FD9BFF"/>
<stop offset="1" stop-color="white"/>
</linearGradient>
<linearGradient id="paint12_linear" x1="23.8072" y1="38.9742" x2="53.2498" y2="9.53141" gradientUnits="userSpaceOnUse">
<stop stop-color="#FC54FF"/>
<stop offset="0.4062" stop-color="#FD9BFF"/>
<stop offset="1" stop-color="white"/>
</linearGradient>
<linearGradient id="paint13_linear" x1="23.2584" y1="40.161" x2="49.9537" y2="13.4657" gradientUnits="userSpaceOnUse">
<stop stop-color="#FC54FF"/>
<stop offset="0.4062" stop-color="#FD9BFF"/>
<stop offset="1" stop-color="white"/>
</linearGradient>
<clipPath id="clip0">
<rect width="68" height="68" fill="white" transform="translate(0.5)"/>
</clipPath>
</defs>
</svg>
