<svg width="172" height="52" viewBox="0 0 172 52" fill="none" xmlns="http://www.w3.org/2000/svg">
<g clip-path="url(#clip0_2005:0)">
<path d="M74.6807 11.0699C74.9707 11.0648 75.2574 11.1252 75.5141 11.2456C75.7708 11.3659 75.9892 11.5423 76.1489 11.7582C76.3225 11.9657 76.4334 12.2095 76.4709 12.4662C76.5084 12.7229 76.4714 12.9839 76.3633 13.2241L72.4336 22.9469C72.2422 23.4493 71.8738 23.883 71.3834 24.1834C70.8955 24.4872 70.3135 24.6476 69.7186 24.6423H69.6757C69.0337 24.647 68.4085 24.4587 67.9011 24.1078C67.3936 23.7569 67.0334 23.2638 66.8785 22.7079L65.2495 17.0195L63.6134 22.7079C63.4539 23.2616 63.0925 23.7522 62.5861 24.1024C62.0797 24.4526 61.457 24.6425 60.8162 24.6423H60.7876C60.1951 24.6463 59.6158 24.4859 59.13 24.1834C58.6346 23.8832 58.2592 23.4502 58.0583 22.9469L54.1143 13.2305C54.011 12.9869 53.979 12.7239 54.0215 12.4662C54.0641 12.2086 54.1796 11.9649 54.3572 11.7582C54.5148 11.5426 54.7312 11.3663 54.9862 11.2459C55.2412 11.1255 55.5263 11.0649 55.8148 11.0699H55.8612C56.248 11.0682 56.6246 11.1802 56.933 11.3886C57.2368 11.587 57.4611 11.8675 57.5724 12.1884L59.2514 16.8698C59.8564 18.546 60.3517 20.1458 60.7376 21.669H60.8054C61.0317 20.7172 61.845 17.6495 63.2454 12.4657C63.3461 12.0665 63.5985 11.7107 63.9599 11.4587C64.3196 11.2046 64.7657 11.0675 65.2245 11.0699H65.2602C65.7194 11.0654 66.1663 11.2028 66.5249 11.4587C66.883 11.7133 67.1347 12.068 67.2394 12.4657C68.654 17.6495 69.4709 20.7172 69.69 21.669H69.7579C70.1437 20.1394 70.6355 18.5396 71.2333 16.8698L72.9338 12.1884C73.047 11.8649 73.2729 11.582 73.5787 11.3808C73.8845 11.1797 74.2543 11.0708 74.6342 11.0699H74.6807Z" fill="#FFEEB3"/>
<path d="M77.51 19.6041C77.4951 18.9451 77.627 18.29 77.8981 17.6767C78.1691 17.0635 78.5739 16.5044 79.089 16.0318C79.5696 15.559 80.1573 15.1827 80.8132 14.9278C81.4691 14.6729 82.1782 14.5452 82.8936 14.5531C83.4475 14.5207 83.9986 14.6465 84.4669 14.9124C84.9352 15.1783 85.2964 15.5704 85.4979 16.0318C85.4998 15.7249 85.6375 15.4312 85.8811 15.2145C86.1246 14.9978 86.4543 14.8758 86.7983 14.875H87.7164C88.0645 14.8758 88.3982 14.9991 88.645 15.218C88.8918 15.437 89.0318 15.734 89.0346 16.0445V24.0114C89.0365 24.0952 89.0187 24.1785 88.9824 24.2559C88.9461 24.3333 88.8921 24.403 88.8238 24.4607C88.6905 24.5804 88.5093 24.648 88.3201 24.6487H86.8411C86.6197 24.6487 86.316 24.4671 85.9373 24.1006C85.7836 23.9536 85.5781 23.858 85.355 23.8297C85.1312 23.803 84.9041 23.8495 84.7156 23.9604C83.9249 24.4193 83.3176 24.6487 82.8936 24.6487C82.1786 24.6567 81.4698 24.5293 80.814 24.2749C80.1582 24.0206 79.5702 23.6451 79.089 23.1733C78.574 22.7012 78.1693 22.1427 77.8982 21.53C77.6272 20.9173 77.4952 20.2627 77.51 19.6041ZM80.8681 19.5244C80.8486 20.2105 81.0848 20.883 81.5397 21.4365C81.722 21.6765 81.9667 21.8737 82.2528 22.0113C82.5389 22.1489 82.858 22.2228 83.183 22.2268C83.5668 22.2787 83.959 22.2469 84.3262 22.1344C85.0835 21.9018 85.4765 21.3728 85.4979 20.541V18.0649C85.3823 17.836 85.2127 17.6321 85.0006 17.4671C84.7885 17.3021 84.5389 17.1799 84.269 17.1089C83.9099 16.9798 83.5236 16.9218 83.1369 16.9388C82.7502 16.9559 82.3722 17.0476 82.0291 17.2077C81.6381 17.3942 81.3333 17.6978 81.1682 18.0649C80.9634 18.4872 80.8611 18.9433 80.8681 19.4033V19.5244Z" fill="#FFEEB3"/>
<path d="M102.202 23.1764C102.201 23.5824 102.018 23.9711 101.695 24.2573C101.373 24.5435 100.936 24.7037 100.481 24.7029H100.441C99.9874 24.702 99.5524 24.541 99.2311 24.255C98.9098 23.969 98.7284 23.5813 98.7265 23.1764V19.4129C98.7265 18.289 98.3764 17.5741 97.6763 17.2682C97.3119 17.111 96.907 17.0437 96.5037 17.0734C96.1003 17.1031 95.7133 17.2287 95.3828 17.4371C94.7064 17.8195 94.3134 18.2359 94.2039 18.6863C94.1877 18.7653 94.177 18.8451 94.1717 18.9253V23.1764C94.1698 23.5813 93.9885 23.969 93.6672 24.255C93.3459 24.541 92.9109 24.702 92.457 24.7029H92.4034C91.9495 24.702 91.5144 24.541 91.1932 24.255C90.8719 23.969 90.6905 23.5813 90.6886 23.1764V15.8118C90.6861 15.6799 90.7136 15.5489 90.7695 15.4268C90.8254 15.3046 90.9085 15.1939 91.0137 15.1012C91.1186 15.0051 91.2442 14.9291 91.383 14.8776C91.5218 14.8261 91.6708 14.8002 91.8211 14.8016H93.1072C93.2538 14.8001 93.3991 14.8259 93.5339 14.8775C93.6686 14.9291 93.7898 15.0053 93.8895 15.1012C93.994 15.1917 94.0768 15.3003 94.1326 15.4203C94.1885 15.5402 94.2164 15.6691 94.2146 15.7991C95.6245 15.0597 96.4974 14.6603 96.8332 14.6009C98.5408 14.2886 99.8947 14.6911 100.895 15.8086C101.76 16.7859 102.195 18.0532 102.202 19.6104V23.1764Z" fill="#FFEEB3"/>
<path d="M115.374 23.1764C115.372 23.5813 115.191 23.969 114.869 24.255C114.548 24.541 114.113 24.702 113.659 24.7029H113.627C113.174 24.7012 112.74 24.5398 112.419 24.2539C112.099 23.968 111.918 23.5807 111.916 23.1764V19.4129C111.916 18.289 111.559 17.5741 110.844 17.2682C110.48 17.111 110.075 17.0437 109.672 17.0734C109.268 17.1031 108.881 17.2287 108.551 17.4371C107.858 17.8174 107.462 18.2338 107.365 18.6863C107.348 18.7653 107.338 18.8451 107.333 18.9253V23.1764C107.331 23.5813 107.149 23.969 106.828 24.255C106.507 24.541 106.072 24.702 105.618 24.7029H105.561C105.107 24.7012 104.673 24.5398 104.353 24.2539C104.032 23.968 103.851 23.5807 103.849 23.1764V15.8118C103.846 15.6798 103.873 15.5484 103.929 15.4261C103.984 15.3038 104.068 15.1932 104.175 15.1012C104.278 15.0049 104.403 14.9287 104.542 14.8772C104.68 14.8256 104.828 14.7999 104.978 14.8016H106.264C106.411 14.8001 106.556 14.8259 106.691 14.8775C106.826 14.9291 106.947 15.0053 107.047 15.1012C107.151 15.1917 107.234 15.3003 107.29 15.4203C107.346 15.5402 107.374 15.6691 107.372 15.7991C108.782 15.0597 109.655 14.6603 109.99 14.6009C111.698 14.2886 113.052 14.6911 114.052 15.8086C114.917 16.7859 115.354 18.0532 115.363 19.6104L115.374 23.1764Z" fill="#FFEEB3"/>
<path d="M116.592 19.6042C116.577 18.9451 116.709 18.29 116.98 17.6768C117.251 17.0636 117.656 16.5044 118.171 16.0318C118.651 15.5593 119.238 15.1831 119.894 14.9282C120.549 14.6733 121.257 14.5455 121.972 14.5532C122.527 14.5205 123.078 14.6463 123.547 14.9121C124.016 15.178 124.378 15.5702 124.58 16.0318C124.582 15.725 124.72 15.4312 124.963 15.2146C125.207 14.9979 125.537 14.8759 125.88 14.875H126.795C127.144 14.875 127.478 14.9979 127.726 15.217C127.973 15.436 128.114 15.7335 128.117 16.0446V24.0114C128.119 24.0956 128.101 24.1791 128.064 24.2566C128.027 24.334 127.972 24.4036 127.902 24.4608C127.838 24.5208 127.76 24.5685 127.674 24.6008C127.588 24.6331 127.496 24.6495 127.402 24.6488H125.923C125.698 24.6488 125.398 24.4671 125.016 24.1007C124.864 23.9539 124.659 23.8583 124.437 23.8298C124.213 23.8031 123.986 23.8495 123.798 23.9605C123.008 24.4193 122.397 24.6488 121.972 24.6488C121.258 24.6563 120.55 24.5286 119.895 24.2743C119.239 24.02 118.652 23.6448 118.171 23.1733C117.656 22.7013 117.251 22.1427 116.98 21.53C116.709 20.9173 116.577 20.2627 116.592 19.6042ZM119.95 19.5245C119.931 20.2106 120.167 20.8831 120.622 21.4365C120.804 21.6766 121.049 21.8738 121.335 22.0114C121.621 22.149 121.94 22.2229 122.265 22.2269C122.648 22.2787 123.039 22.247 123.405 22.1344C124.165 21.9029 124.556 21.3717 124.58 20.5411V18.065C124.464 17.8363 124.294 17.6326 124.082 17.4676C123.87 17.3027 123.621 17.1803 123.351 17.1089C122.992 16.9799 122.606 16.9218 122.219 16.9389C121.832 16.956 121.454 17.0477 121.111 17.2077C120.72 17.3943 120.415 17.6978 120.25 18.065C120.046 18.4872 119.943 18.9434 119.95 19.4034V19.5245Z" fill="#FFEEB3"/>
<path d="M139.27 19.8527V23.0777C139.27 23.5003 139.082 23.9055 138.747 24.2044C138.412 24.5032 137.957 24.6711 137.484 24.6711H137.452C136.978 24.6711 136.523 24.5032 136.188 24.2044C135.854 23.9055 135.665 23.5003 135.665 23.0777V12.5933C135.661 12.3817 135.705 12.1716 135.796 11.9759C135.886 11.7802 136.02 11.6032 136.19 11.4556C136.36 11.3068 136.562 11.1898 136.784 11.1115C137.005 11.0332 137.242 10.9953 137.48 10.9999H141.721C141.945 11.0007 142.17 11.0145 142.392 11.0413L142.492 11.0604C143.656 11.2128 144.719 11.7371 145.482 12.5359C146.269 13.3256 146.699 14.3476 146.69 15.404C146.671 16.3484 146.345 17.2675 145.75 18.049C145.377 18.6053 144.845 19.0627 144.207 19.3736C143.57 19.6846 142.85 19.8379 142.124 19.8176L139.27 19.8527ZM139.27 17.4084H141.035C141.329 17.4125 141.62 17.3603 141.889 17.2553C142.159 17.1503 142.4 16.995 142.596 16.7998C142.807 16.6049 142.972 16.3748 143.083 16.1227C143.194 15.8706 143.248 15.6015 143.242 15.3307C143.252 14.7861 143.019 14.2602 142.596 13.868C142.401 13.6725 142.16 13.517 141.892 13.4119C141.623 13.3069 141.332 13.2548 141.038 13.2593H139.273L139.27 17.4084Z" fill="#FFEEB3"/>
<path d="M148.087 19.6042C148.072 18.9452 148.205 18.2903 148.476 17.6772C148.747 17.0641 149.151 16.5049 149.666 16.0318C150.146 15.5591 150.734 15.1828 151.39 14.9279C152.046 14.6729 152.755 14.5452 153.47 14.5532C154.025 14.5205 154.576 14.6463 155.045 14.9121C155.514 15.178 155.876 15.5702 156.078 16.0318C156.079 15.7253 156.216 15.4315 156.459 15.2148C156.702 14.998 157.031 14.8759 157.375 14.875H158.293C158.641 14.875 158.976 14.998 159.223 15.2172C159.47 15.4363 159.609 15.7338 159.611 16.0446V24.0114C159.613 24.0953 159.595 24.1786 159.559 24.256C159.523 24.3333 159.469 24.4031 159.4 24.4608C159.267 24.5805 159.086 24.6481 158.897 24.6488H157.418C157.196 24.6488 156.893 24.4671 156.514 24.1007C156.361 23.953 156.155 23.8573 155.932 23.8298C155.708 23.8034 155.481 23.8498 155.292 23.9605C154.501 24.4193 153.894 24.6488 153.47 24.6488C152.755 24.6567 152.046 24.5293 151.391 24.275C150.735 24.0207 150.147 23.6452 149.666 23.1733C149.151 22.7009 148.747 22.1422 148.476 21.5296C148.205 20.917 148.073 20.2626 148.087 19.6042ZM151.445 19.5245C151.427 20.2104 151.663 20.8824 152.116 21.4365C152.299 21.6762 152.544 21.8731 152.83 22.0107C153.116 22.1482 153.435 22.2224 153.76 22.2269C154.143 22.2787 154.536 22.247 154.903 22.1344C155.664 21.9018 156.053 21.3728 156.078 20.5411V18.065C155.962 17.836 155.791 17.632 155.579 17.4671C155.366 17.3021 155.116 17.1799 154.846 17.1089C154.487 16.9799 154.101 16.9219 153.715 16.939C153.329 16.956 152.952 17.0477 152.609 17.2077C152.217 17.3934 151.912 17.6972 151.748 18.065C151.541 18.4865 151.437 18.943 151.445 19.4034V19.5245Z" fill="#FFEEB3"/>
<path d="M169.389 14.8241C169.642 14.821 169.893 14.8727 170.119 14.975C170.346 15.0772 170.541 15.2269 170.688 15.4111C170.835 15.5953 170.93 15.8086 170.964 16.0328C170.999 16.2569 170.972 16.4851 170.886 16.6979C168.637 22.4596 167.482 25.4275 167.42 25.6017C167.089 26.6372 166.366 27.5382 165.373 28.1511C164.848 28.4759 164.252 28.6988 163.623 28.8053C162.995 28.9118 162.349 28.8995 161.726 28.7693C161.53 28.7321 161.34 28.6754 161.158 28.6004C160.913 28.5182 160.704 28.3686 160.561 28.1732C160.417 27.9778 160.348 27.7469 160.361 27.5138V27.5074C160.358 27.3533 160.391 27.2004 160.457 27.0579C160.522 26.9154 160.62 26.7864 160.744 26.6788C160.86 26.5671 161.002 26.4785 161.16 26.4187C161.317 26.3589 161.487 26.3292 161.658 26.3315C161.977 26.3243 162.29 26.2558 162.576 26.1307C163.291 25.812 163.648 25.1078 163.648 23.986V23.935C163.381 22.7113 162.36 20.3361 160.583 16.8094C160.464 16.5966 160.411 16.3591 160.431 16.1219C160.45 15.8846 160.541 15.6565 160.694 15.4615C160.833 15.2595 161.029 15.0941 161.263 14.9821C161.497 14.8701 161.761 14.8156 162.026 14.8241H162.305C162.639 14.8213 162.965 14.9153 163.234 15.0918C163.506 15.2611 163.707 15.5067 163.805 15.7897L165.984 21.6884C166.208 20.7897 166.836 18.8341 167.867 15.8216C167.963 15.5325 168.162 15.2795 168.435 15.1014C168.706 14.9205 169.036 14.8232 169.375 14.8241H169.389Z" fill="#FFEEB3"/>
<path d="M64.2405 37.9518C64.2912 38.0645 64.3089 38.1868 64.2919 38.3072C64.2749 38.4277 64.2238 38.5423 64.1434 38.6402C64.0667 38.7409 63.9631 38.8229 63.8419 38.8789C63.7207 38.9348 63.5858 38.9629 63.4494 38.9606C63.2749 38.9591 63.1052 38.9092 62.964 38.8177C62.8196 38.7236 62.7138 38.5897 62.6631 38.4367L62.2894 37.5189H60.0034L59.6831 38.441C59.6373 38.5973 59.5306 38.7339 59.3821 38.8264C59.2418 38.9199 59.0719 38.9714 58.8968 38.9736H58.8094C58.67 38.9786 58.5313 38.9525 58.406 38.8976C58.2807 38.8428 58.1727 38.761 58.0917 38.6595C58.0108 38.5581 57.9595 38.4403 57.9424 38.3167C57.9254 38.1931 57.9431 38.0677 57.994 37.9518L59.717 33.4534C59.8115 33.2035 59.9907 32.986 60.2298 32.8309C60.4689 32.6758 60.7561 32.5907 61.0517 32.5875C61.3441 32.5838 61.6301 32.6642 61.8671 32.817C62.1069 32.9628 62.2874 33.1739 62.3816 33.4188L64.2405 37.9518ZM61.8429 36.2546C61.5614 35.4753 61.3575 34.7263 61.1488 34.0119H61.1197C60.9886 34.5791 60.7605 35.3108 60.4451 36.2676L61.8429 36.2546Z" fill="#FAB923"/>
<path d="M66.774 38.2288C66.7754 38.3275 66.7546 38.4255 66.713 38.5169C66.6713 38.6084 66.6095 38.6915 66.5313 38.7613C66.4539 38.8325 66.3611 38.8888 66.2584 38.9268C66.1557 38.9647 66.0455 38.9836 65.9343 38.9821C65.8203 38.9875 65.7062 38.9719 65.5991 38.9363C65.4921 38.9007 65.3944 38.846 65.312 38.7753C65.2297 38.7047 65.1645 38.6198 65.1204 38.5258C65.0763 38.4318 65.0544 38.3307 65.0559 38.2288V33.3797C65.0546 33.2809 65.0754 33.1827 65.117 33.0911C65.1587 32.9995 65.2204 32.9161 65.2986 32.846C65.3768 32.7759 65.4698 32.7204 65.5723 32.6826C65.6748 32.6449 65.7847 32.6258 65.8955 32.6264H66.3809C66.5187 32.6221 66.6555 32.6503 66.7773 32.708C66.8991 32.7658 67.0018 32.8511 67.0749 32.9554L70.0938 36.852V33.3797C70.0925 33.2809 70.1133 33.1827 70.155 33.0911C70.1966 32.9995 70.2584 32.9161 70.3365 32.846C70.4147 32.7759 70.5077 32.7204 70.6102 32.6826C70.7127 32.6449 70.8226 32.6258 70.9334 32.6264C71.0445 32.625 71.1548 32.6438 71.2575 32.6818C71.3601 32.7198 71.453 32.7761 71.5304 32.8472C71.6086 32.9171 71.6704 33.0002 71.712 33.0916C71.7537 33.1831 71.7745 33.281 71.7731 33.3797V37.7829C71.779 37.9437 71.7471 38.1038 71.6794 38.253C71.6116 38.4021 71.5096 38.537 71.3799 38.6488C71.2583 38.7616 71.1119 38.851 70.95 38.9113C70.788 38.9717 70.6139 39.0017 70.4384 38.9995C70.2086 39.006 69.9812 38.9561 69.7809 38.8554C69.5807 38.7546 69.4153 38.6068 69.3027 38.428L66.7497 34.7262L66.774 38.2288Z" fill="#FAB923"/>
<path d="M74.1028 36.9083L72.2827 33.6872C72.2211 33.5755 72.1923 33.4517 72.199 33.3273C72.2056 33.203 72.2475 33.0822 72.3207 32.9762C72.394 32.8703 72.4961 32.7826 72.6176 32.7214C72.7391 32.6603 72.8761 32.6276 73.0156 32.6264H73.1127C73.2799 32.6175 73.4457 32.6587 73.5837 32.7434C73.7218 32.8281 73.8241 32.9515 73.8747 33.094C74.5444 34.6397 74.9279 35.5315 75.0346 35.7653L76.2189 33.094C76.2711 32.9516 76.3745 32.8285 76.5132 32.7439C76.6519 32.6594 76.818 32.6181 76.9857 32.6264C77.1283 32.6223 77.2694 32.6532 77.3935 32.7158C77.5176 32.7784 77.62 32.8703 77.6895 32.9815C77.7642 33.0895 77.8038 33.2139 77.8038 33.3408C77.8038 33.4677 77.7642 33.5922 77.6895 33.7002L75.8112 36.8564V38.2202C75.8125 38.3202 75.7914 38.4195 75.7493 38.5121C75.7071 38.6048 75.6447 38.6891 75.5656 38.76C75.4865 38.831 75.3924 38.8871 75.2888 38.9253C75.1851 38.9634 75.074 38.9828 74.9618 38.9822C74.8497 38.9822 74.7386 38.9625 74.6349 38.9242C74.5313 38.8859 74.4371 38.8298 74.3578 38.759C74.2785 38.6882 74.2156 38.6042 74.1726 38.5118C74.1297 38.4193 74.1076 38.3202 74.1076 38.2202L74.1028 36.9083Z" fill="#FAB923"/>
<path d="M78.034 33.2717C78.0136 33.195 78.0128 33.1151 78.0318 33.0381C78.0507 32.9611 78.0889 32.8889 78.1435 32.8269C78.1981 32.7649 78.2676 32.7147 78.347 32.68C78.4264 32.6453 78.5135 32.627 78.6019 32.6266H83.0137C83.1025 32.625 83.1905 32.6427 83.27 32.6781C83.3494 32.7136 83.4181 32.7657 83.4699 32.83C83.5246 32.8897 83.5623 32.9601 83.5801 33.0354C83.5978 33.1108 83.595 33.1888 83.5719 33.263C83.5447 33.3781 83.4702 33.48 83.3632 33.5488C83.263 33.6208 83.1375 33.6591 83.0089 33.657H81.6887V38.2073C81.6906 38.3095 81.6692 38.4109 81.6259 38.5054C81.5825 38.5999 81.518 38.6856 81.4363 38.7572C81.3557 38.8296 81.2596 38.8869 81.1537 38.9255C81.0479 38.9642 80.9343 38.9835 80.8199 38.9823C80.7049 38.9831 80.5907 38.9637 80.4841 38.925C80.3775 38.8864 80.2805 38.8294 80.1987 38.7572C80.1164 38.6858 80.0512 38.6003 80.0069 38.5058C79.9627 38.4113 79.9405 38.3097 79.9415 38.2073V33.6743H78.6019C78.4718 33.6764 78.3448 33.6381 78.2427 33.5661C78.1415 33.4934 78.0698 33.3929 78.0389 33.2803L78.034 33.2717Z" fill="#FAB923"/>
<path d="M85.9695 38.1855C85.9708 38.2856 85.9491 38.3849 85.9057 38.4773C85.8623 38.5696 85.7981 38.6531 85.7171 38.7224C85.6401 38.7955 85.5468 38.8533 85.4431 38.8921C85.3394 38.9309 85.2277 38.9498 85.1153 38.9475C84.8887 38.9475 84.6715 38.8672 84.5113 38.7243C84.3511 38.5814 84.2611 38.3876 84.2611 38.1855V33.3581C84.2598 33.2577 84.281 33.1581 84.3234 33.0651C84.3659 32.9721 84.4288 32.8877 84.5084 32.8167C84.5879 32.7457 84.6826 32.6896 84.7869 32.6517C84.8911 32.6139 85.0027 32.5949 85.1153 32.5961C85.2272 32.5941 85.3384 32.6126 85.442 32.6506C85.5455 32.6886 85.6392 32.7452 85.7171 32.8169C85.7983 32.887 85.8625 32.9712 85.9059 33.0643C85.9493 33.1573 85.9709 33.2573 85.9695 33.3581V38.1855Z" fill="#FAB923"/>
<path d="M88.304 38.2721C88.3046 38.3614 88.2853 38.4498 88.2472 38.5323C88.2091 38.6148 88.1529 38.6897 88.082 38.7526C88.011 38.8154 87.9267 38.8651 87.834 38.8986C87.7413 38.932 87.642 38.9487 87.542 38.9475C87.4423 38.9495 87.3434 38.9327 87.2514 38.8984C87.1594 38.8641 87.0766 38.813 87.0081 38.7484C86.9361 38.687 86.8792 38.613 86.8407 38.5311C86.8023 38.4491 86.7833 38.361 86.7848 38.2721V33.843C86.7842 33.6791 86.8199 33.5167 86.8899 33.3652C86.96 33.2136 87.0629 33.076 87.1928 32.9601C87.3228 32.8442 87.4771 32.7523 87.647 32.6899C87.8169 32.6274 87.9989 32.5956 88.1827 32.5961C88.4862 32.5932 88.7821 32.6817 89.0223 32.8472C89.2633 33.0072 89.4348 33.2367 89.5077 33.4967L90.7113 37.1941L91.8859 33.501C91.964 33.2419 92.1343 33.0125 92.3712 32.8472C92.6128 32.6807 92.9105 32.5922 93.2157 32.5961C93.4035 32.5897 93.5908 32.6172 93.7663 32.6771C93.9419 32.7369 94.102 32.8278 94.2371 32.9443C94.3723 33.0608 94.4796 33.2005 94.5526 33.3549C94.6256 33.5094 94.6629 33.6754 94.6621 33.843V38.2721C94.6608 38.4509 94.5806 38.622 94.4389 38.7485C94.2972 38.8749 94.1053 38.9464 93.9049 38.9475C93.8053 38.9481 93.7066 38.931 93.6144 38.8973C93.5223 38.8636 93.4385 38.8138 93.3681 38.751C93.2977 38.6882 93.2419 38.6135 93.2041 38.5313C93.1663 38.4491 93.1471 38.361 93.1478 38.2721V34.289L91.8956 38.1639C91.8276 38.391 91.6732 38.59 91.4588 38.7267C91.2528 38.8714 90.9978 38.9493 90.7356 38.9475C90.4721 38.9486 90.2158 38.8708 90.0076 38.7267C89.7961 38.5883 89.6438 38.3898 89.5756 38.1639L88.3283 34.289L88.304 38.2721Z" fill="#FAB923"/>
<path d="M99.5156 37.8047C99.6005 37.8038 99.6847 37.8183 99.7632 37.8473C99.8416 37.8763 99.9126 37.9193 99.9718 37.9735C100.037 38.029 100.088 38.0965 100.12 38.1713C100.153 38.2461 100.167 38.3264 100.161 38.4065C100.161 38.5592 100.093 38.7057 99.972 38.8137C99.851 38.9217 99.6868 38.9823 99.5156 38.9823H96.4336C96.2985 38.9829 96.1647 38.9595 96.0398 38.9135C95.915 38.8676 95.8016 38.7999 95.7063 38.7145C95.611 38.6291 95.5357 38.5277 95.4848 38.4161C95.4338 38.3045 95.4083 38.185 95.4095 38.0645V33.5444C95.4054 33.4238 95.4296 33.3036 95.4806 33.1918C95.5316 33.0799 95.6082 32.9789 95.7056 32.895C95.8006 32.809 95.914 32.7409 96.0391 32.6948C96.1641 32.6487 96.2983 32.6255 96.4336 32.6266H99.3457C99.4437 32.6249 99.5407 32.6436 99.6292 32.6811C99.7176 32.7187 99.7951 32.7741 99.8553 32.843C99.9167 32.9106 99.96 32.9899 99.9819 33.0746C100.004 33.1594 100.004 33.2475 99.9815 33.3323C99.9527 33.463 99.8716 33.5799 99.7534 33.6613C99.6379 33.744 99.4938 33.7883 99.3457 33.7869H97.1325V34.7177H99.2195C99.3045 34.7166 99.3888 34.7309 99.4673 34.76C99.5457 34.789 99.6167 34.8321 99.6758 34.8866C99.7384 34.9384 99.7881 35.0014 99.8216 35.0716C99.855 35.1417 99.8715 35.2174 99.8699 35.2936C99.8707 35.3703 99.8539 35.4464 99.8205 35.5171C99.7871 35.5878 99.7378 35.6517 99.6758 35.7049C99.6167 35.7593 99.5457 35.8024 99.4673 35.8315C99.3888 35.8605 99.3045 35.8749 99.2195 35.8737H97.1325V37.7744L99.5156 37.8047Z" fill="#FAB923"/>
<path d="M108.558 36.4018C108.71 36.2532 108.916 36.1567 109.14 36.1291C109.307 36.1186 109.473 36.1668 109.601 36.2633C109.73 36.352 109.818 36.4798 109.849 36.6226C109.868 36.6965 109.87 36.7733 109.855 36.8479C109.839 36.9226 109.805 36.9933 109.756 37.0556C109.618 37.2626 109.456 37.4557 109.271 37.6314L109.504 37.8565C109.595 37.9425 109.657 38.0504 109.681 38.167C109.705 38.2836 109.69 38.4038 109.638 38.5131C109.587 38.6223 109.501 38.7158 109.391 38.7822C109.281 38.8486 109.151 38.885 109.019 38.887H108.994C108.877 38.8886 108.76 38.8687 108.652 38.8284C108.543 38.7882 108.445 38.7286 108.363 38.6532L108.13 38.4367C107.519 38.8188 106.785 39.0147 106.039 38.9952C105.307 39.0343 104.585 38.8324 104.01 38.428C103.806 38.2774 103.643 38.088 103.532 37.8737C103.421 37.6595 103.366 37.4258 103.369 37.1898C103.369 36.3975 103.855 35.7914 104.825 35.3627V35.3368C104.457 35.0074 104.247 34.5635 104.238 34.0985C104.237 33.8829 104.289 33.6697 104.388 33.4732C104.488 33.2768 104.634 33.1017 104.816 32.9599C105.292 32.5856 105.914 32.3928 106.548 32.423C107.078 32.4023 107.6 32.5427 108.029 32.8213C108.216 32.9489 108.366 33.1144 108.467 33.3041C108.569 33.4938 108.618 33.7023 108.611 33.9123C108.611 34.5834 108.126 35.1289 107.106 35.5403V35.5792L107.592 36.0122C107.791 36.207 107.941 36.3542 108.048 36.4451C108.085 36.4821 108.131 36.5108 108.182 36.5289C108.233 36.5469 108.289 36.5538 108.344 36.549C108.399 36.5459 108.453 36.5314 108.501 36.5066C108.549 36.4818 108.59 36.4474 108.621 36.4062L108.558 36.4018ZM106.077 37.9518C106.288 37.9528 106.497 37.9129 106.689 37.8349C106.725 37.8207 106.755 37.7985 106.778 37.7704C106.801 37.7423 106.816 37.7093 106.82 37.6747C106.828 37.6414 106.826 37.6066 106.813 37.5745C106.8 37.5423 106.777 37.514 106.747 37.4929C106.64 37.4063 106.218 37.0166 105.48 36.3369C105.33 36.4126 105.204 36.5209 105.113 36.6519C105.022 36.7828 104.97 36.9321 104.961 37.0859C104.959 37.2003 104.985 37.3137 105.037 37.4184C105.089 37.523 105.166 37.6164 105.262 37.692C105.486 37.87 105.778 37.9632 106.077 37.9518ZM106.393 33.3149C106.3 33.3125 106.208 33.3292 106.124 33.3638C106.04 33.3983 105.966 33.4497 105.908 33.514C105.799 33.6374 105.741 33.7901 105.743 33.947C105.754 34.2299 105.878 34.4999 106.092 34.709C106.11 34.7339 106.134 34.755 106.162 34.7707C106.19 34.7864 106.222 34.7962 106.255 34.7995C106.288 34.8029 106.322 34.7996 106.353 34.7899C106.384 34.7802 106.413 34.7644 106.437 34.7436C106.603 34.6606 106.745 34.5429 106.85 34.4004C106.955 34.2579 107.02 34.0949 107.038 33.9253C107.045 33.7693 106.99 33.6162 106.883 33.4924C106.827 33.4256 106.754 33.3724 106.669 33.3376C106.584 33.3028 106.491 33.2876 106.398 33.2932L106.393 33.3149Z" fill="#FAB923"/>
<path d="M119.415 37.9517C119.466 38.0646 119.483 38.1873 119.465 38.3079C119.448 38.4285 119.395 38.543 119.313 38.6401C119.238 38.741 119.135 38.8233 119.015 38.8794C118.894 38.9354 118.76 38.9633 118.624 38.9605C118.449 38.959 118.28 38.9091 118.138 38.8176C117.994 38.7224 117.887 38.5891 117.833 38.4367L117.493 37.5058H115.212L114.891 38.428C114.837 38.5888 114.72 38.7269 114.561 38.8176C114.422 38.9125 114.251 38.9642 114.076 38.9648H113.989C113.849 38.9722 113.709 38.9483 113.582 38.8952C113.455 38.8421 113.345 38.7615 113.263 38.6608C113.18 38.56 113.126 38.4424 113.107 38.3186C113.088 38.1947 113.104 38.0686 113.154 37.9517L114.891 33.4447C114.985 33.1971 115.165 32.983 115.406 32.8342C115.642 32.6764 115.931 32.5926 116.226 32.5961C116.517 32.5917 116.802 32.6723 117.037 32.8256C117.278 32.9709 117.46 33.182 117.556 33.4274L119.415 37.9517ZM116.988 36.2546C116.707 35.4753 116.479 34.7262 116.294 34.0119H116.265C116.129 34.579 115.906 35.3107 115.585 36.2676L116.988 36.2546Z" fill="#FAB923"/>
<path d="M121.934 38.2288C121.934 38.3277 121.912 38.4257 121.87 38.5171C121.827 38.6085 121.765 38.6915 121.686 38.7615C121.608 38.8314 121.515 38.8869 121.412 38.9248C121.31 38.9626 121.2 38.9821 121.089 38.9821C120.865 38.9821 120.651 38.9028 120.492 38.7615C120.334 38.6202 120.245 38.4286 120.245 38.2288V33.3797C120.245 33.1799 120.334 32.9883 120.492 32.847C120.651 32.7058 120.865 32.6264 121.089 32.6264H121.575C121.713 32.6222 121.851 32.6504 121.973 32.7081C122.096 32.7658 122.199 32.851 122.274 32.9554L125.288 36.852V33.3797C125.286 33.2806 125.307 33.1822 125.35 33.0906C125.392 32.9991 125.455 32.9162 125.535 32.8472C125.613 32.7766 125.706 32.7207 125.808 32.6828C125.911 32.6449 126.021 32.6257 126.132 32.6264C126.243 32.6239 126.354 32.6423 126.457 32.6803C126.56 32.7183 126.652 32.7752 126.729 32.8472C126.809 32.9162 126.872 32.9991 126.914 33.0906C126.957 33.1822 126.978 33.2806 126.977 33.3797V37.7828C126.977 38.0994 126.836 38.4032 126.586 38.6278C126.336 38.8525 125.997 38.9798 125.642 38.9821H125.618C125.387 38.9894 125.159 38.94 124.957 38.8392C124.756 38.7384 124.59 38.5901 124.477 38.4106L121.929 34.7089L121.934 38.2288Z" fill="#FAB923"/>
<path d="M129.258 36.9083L127.443 33.6872C127.381 33.5755 127.352 33.4517 127.359 33.3273C127.365 33.203 127.407 33.0822 127.481 32.9762C127.554 32.8703 127.656 32.7826 127.777 32.7214C127.899 32.6603 128.036 32.6276 128.175 32.6264H128.272C128.44 32.6175 128.605 32.6587 128.744 32.7434C128.882 32.8281 128.984 32.9515 129.034 33.094C129.701 34.6382 130.088 35.5287 130.194 35.7653L131.359 33.094C131.411 32.9516 131.515 32.8285 131.654 32.7439C131.792 32.6594 131.958 32.6181 132.126 32.6264C132.268 32.6221 132.409 32.653 132.532 32.7156C132.655 32.7783 132.757 32.8704 132.825 32.9815C132.905 33.0871 132.949 33.2105 132.953 33.3377C132.958 33.4648 132.922 33.5905 132.849 33.7002L130.966 36.8564V38.2202C130.969 38.3201 130.949 38.4196 130.907 38.5125C130.866 38.6054 130.804 38.69 130.725 38.7611C130.646 38.8322 130.552 38.8884 130.449 38.9264C130.345 38.9644 130.234 38.9834 130.122 38.9822H130.093C129.866 38.9822 129.649 38.9019 129.488 38.759C129.328 38.6161 129.238 38.4223 129.238 38.2202L129.258 36.9083Z" fill="#FAB923"/>
<path d="M142.804 32.6264C142.94 32.6237 143.075 32.6521 143.196 32.7089C143.316 32.7658 143.419 32.8491 143.493 32.9511C143.574 33.0478 143.626 33.1615 143.644 33.2813C143.662 33.4011 143.645 33.5229 143.595 33.6352L141.741 38.1855C141.653 38.4203 141.483 38.6236 141.255 38.7657C141.03 38.9073 140.76 38.983 140.484 38.9822C140.183 38.9843 139.89 38.8942 139.654 38.7267C139.41 38.5669 139.238 38.3353 139.168 38.073L138.402 35.4103L137.64 38.073C137.569 38.3348 137.397 38.5662 137.154 38.7267C136.92 38.8935 136.629 38.9837 136.329 38.9822C136.05 38.9828 135.778 38.9066 135.55 38.764C135.321 38.6214 135.148 38.4194 135.053 38.1855L133.179 33.6222C133.129 33.5099 133.112 33.3881 133.13 33.2683C133.148 33.1485 133.2 33.0349 133.281 32.9382C133.358 32.8379 133.462 32.7567 133.583 32.7022C133.704 32.6476 133.839 32.6216 133.975 32.6264C134.153 32.6284 134.326 32.68 134.47 32.7739C134.613 32.8678 134.72 32.9994 134.776 33.1503L135.582 35.354C135.863 36.1391 136.095 36.8881 136.276 37.6011H136.31C136.41 37.1508 136.79 35.7076 137.45 33.2715C137.497 33.0843 137.616 32.9175 137.785 32.7996C137.954 32.6805 138.163 32.6163 138.377 32.6178C138.592 32.6149 138.802 32.6792 138.969 32.7996C139.138 32.9189 139.258 33.085 139.309 33.2715C139.956 35.6961 140.337 37.1392 140.45 37.6011H140.484C140.663 36.8867 140.896 36.1377 141.173 35.354L141.964 33.1633C142.019 33.012 142.126 32.8801 142.27 32.7866C142.41 32.692 142.58 32.6404 142.755 32.6394L142.804 32.6264Z" fill="#FAB923"/>
<path d="M145.993 34.5097H148.419V33.3581C148.418 33.2577 148.439 33.1581 148.482 33.0651C148.524 32.9721 148.587 32.8877 148.667 32.8167C148.746 32.7457 148.841 32.6896 148.945 32.6517C149.049 32.6139 149.161 32.5949 149.273 32.5961C149.385 32.5946 149.496 32.6134 149.6 32.6513C149.703 32.6893 149.797 32.7456 149.875 32.8169C149.957 32.8866 150.022 32.9706 150.065 33.0638C150.109 33.157 150.13 33.2572 150.128 33.3581V38.1855C150.125 38.3869 150.034 38.5794 149.875 38.7218C149.715 38.8643 149.499 38.9453 149.273 38.9475C149.047 38.9475 148.83 38.8672 148.669 38.7243C148.509 38.5814 148.419 38.3876 148.419 38.1855V35.787H145.993V38.2072C145.994 38.3073 145.972 38.4066 145.929 38.4989C145.885 38.5913 145.821 38.6747 145.74 38.744C145.663 38.8171 145.57 38.875 145.466 38.9138C145.362 38.9525 145.251 38.9714 145.138 38.9692C144.913 38.9669 144.697 38.8859 144.537 38.7435C144.377 38.6011 144.287 38.4086 144.284 38.2072V33.3581C144.284 33.156 144.374 32.9622 144.534 32.8193C144.694 32.6764 144.912 32.5961 145.138 32.5961C145.25 32.5941 145.361 32.6126 145.465 32.6506C145.569 32.6886 145.662 32.7452 145.74 32.8169C145.821 32.887 145.886 32.9712 145.929 33.0643C145.972 33.1573 145.994 33.2573 145.993 33.3581V34.5097Z" fill="#FAB923"/>
<path d="M154.87 37.8046C154.954 37.8032 155.037 37.8176 155.115 37.8466C155.193 37.8757 155.263 37.9189 155.321 37.9735C155.388 38.028 155.44 38.0952 155.473 38.1702C155.507 38.2451 155.521 38.3259 155.515 38.4064C155.517 38.4833 155.5 38.5596 155.467 38.6304C155.433 38.7013 155.384 38.7651 155.321 38.8177C155.263 38.8723 155.193 38.9155 155.115 38.9445C155.037 38.9736 154.954 38.9879 154.87 38.9866H151.788C151.653 38.9871 151.519 38.9638 151.394 38.9178C151.269 38.8718 151.156 38.8042 151.06 38.7188C150.965 38.6334 150.89 38.5319 150.839 38.4203C150.788 38.3087 150.762 38.1892 150.764 38.0687V33.5444C150.759 33.4237 150.784 33.3036 150.835 33.1917C150.886 33.0799 150.962 32.9788 151.06 32.8949C151.155 32.8089 151.268 32.7409 151.393 32.6948C151.518 32.6486 151.652 32.6254 151.788 32.6265H154.7C154.794 32.6281 154.886 32.6484 154.97 32.6858C155.054 32.7233 155.127 32.777 155.185 32.843C155.246 32.9106 155.29 32.9898 155.312 33.0746C155.333 33.1594 155.333 33.2475 155.311 33.3322C155.282 33.4629 155.201 33.5798 155.083 33.6613C154.968 33.7439 154.823 33.7882 154.675 33.7868H152.462V34.7177H154.549C154.634 34.7165 154.718 34.7309 154.797 34.7599C154.875 34.7889 154.946 34.832 155.005 34.8865C155.068 34.9383 155.118 35.0014 155.151 35.0715C155.185 35.1416 155.201 35.2173 155.2 35.2935C155.2 35.3702 155.184 35.4463 155.15 35.517C155.117 35.5878 155.068 35.6517 155.005 35.7048C154.946 35.7593 154.875 35.8024 154.797 35.8314C154.718 35.8604 154.634 35.8748 154.549 35.8736H152.462V37.7743L154.87 37.8046Z" fill="#FAB923"/>
<path d="M161.587 37.8695C161.697 38.0361 161.729 38.2348 161.675 38.4223C161.621 38.6097 161.487 38.7705 161.3 38.8696C161.112 38.966 160.889 38.9923 160.679 38.9429C160.469 38.8934 160.29 38.7722 160.179 38.6055L158.922 36.7048H157.951V38.2202C157.951 38.4177 157.864 38.6071 157.707 38.7467C157.55 38.8864 157.338 38.9649 157.117 38.9649C156.895 38.9637 156.683 38.8851 156.526 38.7458C156.369 38.6065 156.28 38.4177 156.277 38.2202V33.3321C156.276 33.2325 156.298 33.1337 156.34 33.0415C156.383 32.9493 156.445 32.8656 156.524 32.7951C156.603 32.7246 156.697 32.6689 156.801 32.631C156.904 32.5931 157.015 32.5739 157.126 32.5745H159.111C159.217 32.5755 159.323 32.5841 159.427 32.6005H159.471C160.017 32.6775 160.515 32.9254 160.875 33.2998C161.235 33.6742 161.434 34.1507 161.436 34.644C161.428 35.0851 161.275 35.5143 160.995 35.8779C160.888 36.0332 160.751 36.1708 160.592 36.2849L161.587 37.8695ZM157.922 35.5748H158.728C158.865 35.5758 159.001 35.5508 159.126 35.5015C159.252 35.4523 159.364 35.3799 159.456 35.2891C159.555 35.1989 159.634 35.0919 159.686 34.9745C159.739 34.857 159.764 34.7314 159.762 34.605C159.764 34.4779 159.739 34.3517 159.686 34.2335C159.634 34.1153 159.556 34.0076 159.456 33.9166C159.365 33.8243 159.253 33.7502 159.128 33.6995C159.002 33.6487 158.866 33.6224 158.728 33.6222H157.903L157.922 35.5748Z" fill="#FAB923"/>
<path d="M166.411 37.8047C166.495 37.8033 166.579 37.8176 166.657 37.8467C166.734 37.8758 166.804 37.919 166.862 37.9735C166.929 38.028 166.981 38.0953 167.015 38.1702C167.049 38.2452 167.063 38.3259 167.057 38.4065C167.058 38.4833 167.042 38.5597 167.008 38.6305C166.975 38.7013 166.925 38.7652 166.862 38.8178C166.804 38.8724 166.734 38.9156 166.657 38.9446C166.579 38.9737 166.495 38.988 166.411 38.9866H163.329C163.194 38.9872 163.06 38.9639 162.935 38.9179C162.81 38.8719 162.697 38.8042 162.602 38.7188C162.507 38.6334 162.431 38.532 162.38 38.4204C162.329 38.3088 162.304 38.1893 162.305 38.0688V33.5444C162.301 33.4238 162.325 33.3036 162.376 33.1918C162.427 33.0799 162.504 32.9789 162.601 32.895C162.696 32.809 162.809 32.7409 162.935 32.6948C163.06 32.6487 163.194 32.6255 163.329 32.6266H166.241C166.339 32.6249 166.436 32.6436 166.525 32.6811C166.613 32.7187 166.691 32.7741 166.751 32.843C166.812 32.9106 166.855 32.9899 166.877 33.0746C166.899 33.1594 166.899 33.2475 166.877 33.3323C166.848 33.463 166.767 33.5799 166.649 33.6613C166.533 33.744 166.389 33.7883 166.241 33.7869H164.028V34.7177H166.115C166.2 34.7166 166.284 34.7309 166.363 34.76C166.441 34.789 166.512 34.8321 166.571 34.8866C166.634 34.9384 166.684 35.0014 166.717 35.0716C166.75 35.1417 166.767 35.2174 166.765 35.2936C166.766 35.3703 166.749 35.4464 166.716 35.5171C166.683 35.5878 166.633 35.6517 166.571 35.7049C166.512 35.7593 166.441 35.8024 166.363 35.8315C166.284 35.8605 166.2 35.8749 166.115 35.8737H164.028V37.7744L166.411 37.8047Z" fill="#FAB923"/>
</g>
<g clip-path="url(#clip1_2005:0)">
<path d="M17.7629 4.96993C17.4067 4.61759 16.9236 4.41968 16.42 4.41968C15.9164 4.41968 15.4333 4.61759 15.0771 4.96993L1.05016 18.8534C0.86544 19.026 0.717589 19.2336 0.615351 19.4638C0.513113 19.6941 0.458566 19.9422 0.454936 20.1937C0.451307 20.4451 0.498669 20.6948 0.59422 20.9278C0.689771 21.1608 0.831571 21.3725 1.01123 21.5503C1.19089 21.7281 1.40476 21.8685 1.64018 21.963C1.8756 22.0576 2.1278 22.1045 2.38185 22.1009C2.6359 22.0973 2.88664 22.0433 3.11924 21.9421C3.35183 21.8409 3.56156 21.6946 3.73602 21.5118L17.7629 7.62832C18.1189 7.27569 18.3189 6.79761 18.3189 6.29912C18.3189 5.80064 18.1189 5.32255 17.7629 4.96993Z" fill="url(#paint0_linear_2005:0)"/>
<path d="M39.2913 3.28072C38.935 2.92839 38.452 2.73047 37.9483 2.73047C37.4447 2.73047 36.9617 2.92839 36.6054 3.28072L22.5768 17.1642C22.2195 17.5167 22.0183 17.9953 22.0175 18.4946C22.0166 18.994 22.2163 19.4732 22.5725 19.8268C22.9286 20.1805 23.4121 20.3796 23.9166 20.3804C24.4212 20.3812 24.9053 20.1836 25.2626 19.8311L39.2913 5.94766C39.4688 5.7729 39.6097 5.56512 39.7059 5.33628C39.802 5.10743 39.8515 4.86203 39.8515 4.61419C39.8515 4.36634 39.802 4.12094 39.7059 3.8921C39.6097 3.66326 39.4688 3.45548 39.2913 3.28072Z" fill="url(#paint1_linear_2005:0)"/>
<path d="M46.4109 16.7829C46.0546 16.4306 45.5716 16.2327 45.068 16.2327C44.5643 16.2327 44.0813 16.4306 43.725 16.7829L29.6981 30.6681C29.3586 31.0239 29.1726 31.4967 29.1797 31.9861C29.1867 32.4755 29.3863 32.9429 29.736 33.289C30.0856 33.6351 30.5578 33.8326 31.0523 33.8396C31.5467 33.8466 32.0245 33.6625 32.384 33.3265L46.4109 19.4413C46.7669 19.0887 46.9668 18.6106 46.9668 18.1121C46.9668 17.6136 46.7669 17.1355 46.4109 16.7829Z" fill="url(#paint2_linear_2005:0)"/>
<path d="M17.2724 17.7661C16.9161 17.4137 16.4331 17.2158 15.9295 17.2158C15.4258 17.2158 14.9428 17.4137 14.5865 17.7661L0.55616 31.6512C0.222368 32.0081 0.0412319 32.4791 0.0507738 32.9653C0.0603156 33.4515 0.259793 33.9152 0.607334 34.2589C0.954875 34.6027 1.42345 34.7998 1.9147 34.809C2.40596 34.8181 2.88168 34.6385 3.24202 34.3079L17.2724 20.4245C17.6284 20.0718 17.8283 19.5937 17.8283 19.0953C17.8283 18.5968 17.6284 18.1187 17.2724 17.7661Z" fill="url(#paint3_linear_2005:0)"/>
<path d="M8.85042 39.4296C8.49415 39.0773 8.01112 38.8794 7.50749 38.8794C7.00385 38.8794 6.52083 39.0773 6.16456 39.4296L4.46495 41.1119C4.27172 41.2823 4.1157 41.49 4.00646 41.7222C3.89723 41.9545 3.83708 42.2063 3.82972 42.4624C3.82235 42.7185 3.86792 42.9733 3.96363 43.2113C4.05934 43.4493 4.20317 43.6655 4.3863 43.8465C4.56943 44.0275 4.78799 44.1696 5.02859 44.264C5.26918 44.3584 5.52672 44.4032 5.78542 44.3956C6.04413 44.388 6.29853 44.3281 6.53302 44.2197C6.76751 44.1113 6.97716 43.9566 7.14909 43.7651L8.85042 42.0829C9.20481 41.7305 9.40377 41.2535 9.40377 40.7563C9.40377 40.259 9.20481 39.7821 8.85042 39.4296Z" fill="url(#paint4_linear_2005:0)"/>
<path d="M28.5859 2.8398C28.2296 2.48747 27.7466 2.28955 27.2429 2.28955C26.7393 2.28955 26.2563 2.48747 25.9 2.8398L24.2004 4.52373C24.0129 4.69573 23.8625 4.9034 23.758 5.1343C23.6535 5.36521 23.5972 5.6146 23.5924 5.86756C23.5876 6.12052 23.6344 6.37183 23.7301 6.60646C23.8257 6.84108 23.9682 7.05419 24.149 7.23303C24.3298 7.41188 24.5452 7.55277 24.7823 7.64727C25.0194 7.74178 25.2734 7.78796 25.5289 7.78305C25.7845 7.77813 26.0364 7.72223 26.2697 7.61868C26.5029 7.51513 26.7126 7.36607 26.8863 7.18041L28.5859 5.49819C28.9418 5.14557 29.1418 4.66748 29.1418 4.169C29.1418 3.67051 28.9418 3.19243 28.5859 2.8398Z" fill="url(#paint5_linear_2005:0)"/>
<path d="M40.1203 33.3369C39.7641 32.9845 39.281 32.7866 38.7774 32.7866C38.2738 32.7866 37.7907 32.9845 37.4345 33.3369L23.4076 47.2203C23.2228 47.393 23.075 47.6006 22.9727 47.8308C22.8705 48.061 22.816 48.3092 22.8123 48.5606C22.8087 48.8121 22.8561 49.0617 22.9516 49.2947C23.0472 49.5277 23.189 49.7394 23.3686 49.9172C23.5483 50.0951 23.7621 50.2354 23.9976 50.33C24.233 50.4246 24.4852 50.4714 24.7392 50.4678C24.9933 50.4643 25.244 50.4103 25.4766 50.3091C25.7092 50.2079 25.919 50.0615 26.0934 49.8787L40.1203 35.9953C40.4763 35.6426 40.6763 35.1645 40.6763 34.6661C40.6763 34.1676 40.4763 33.6895 40.1203 33.3369Z" fill="url(#paint6_linear_2005:0)"/>
<path d="M47.4438 26.0797C47.0876 25.7279 46.605 25.5303 46.1017 25.5303C45.5985 25.5303 45.1159 25.7279 44.7597 26.0797L30.731 39.9648C30.5436 40.1368 30.3931 40.3445 30.2886 40.5754C30.1842 40.8063 30.1278 41.0557 30.123 41.3087C30.1182 41.5616 30.1651 41.8129 30.2607 42.0476C30.3563 42.2822 30.4988 42.4953 30.6796 42.6741C30.8604 42.853 31.0758 42.9939 31.313 43.0884C31.5501 43.1829 31.804 43.2291 32.0596 43.2242C32.3151 43.2192 32.5671 43.1633 32.8003 43.0598C33.0335 42.9562 33.2432 42.8072 33.4169 42.6215L47.4438 28.7381C47.7998 28.3854 47.9998 27.9073 47.9998 27.4089C47.9998 26.9104 47.7998 26.4323 47.4438 26.0797Z" fill="url(#paint7_linear_2005:0)"/>
<path d="M45.8685 36.6413C45.5123 36.289 45.0293 36.0911 44.5256 36.0911C44.022 36.0911 43.539 36.289 43.1827 36.6413L35.9732 43.7771C35.7885 43.9497 35.6406 44.1573 35.5384 44.3875C35.4361 44.6178 35.3816 44.8659 35.378 45.1174C35.3743 45.3688 35.4217 45.6185 35.5173 45.8515C35.6128 46.0845 35.7546 46.2962 35.9343 46.474C36.1139 46.6518 36.3278 46.7922 36.5632 46.8867C36.7986 46.9813 37.0508 47.0282 37.3049 47.0246C37.5589 47.021 37.8097 46.967 38.0423 46.8658C38.2749 46.7646 38.4846 46.6183 38.6591 46.4355L45.8685 39.2997C46.2245 38.9471 46.4245 38.469 46.4245 37.9705C46.4245 37.472 46.2245 36.9939 45.8685 36.6413Z" fill="url(#paint8_linear_2005:0)"/>
<path d="M33.2597 51.0001C34.3081 51.0001 35.158 50.1589 35.158 49.1213C35.158 48.0836 34.3081 47.2424 33.2597 47.2424C32.2114 47.2424 31.3615 48.0836 31.3615 49.1213C31.3615 50.1589 32.2114 51.0001 33.2597 51.0001Z" fill="url(#paint9_linear_2005:0)"/>
<path d="M24.3541 36.703C23.9979 36.3512 23.5152 36.1536 23.012 36.1536C22.5088 36.1536 22.0261 36.3512 21.6699 36.703L14.4639 43.8387C14.2873 44.0133 14.1472 44.2205 14.0515 44.4487C13.9559 44.6768 13.9066 44.9214 13.9064 45.1684C13.9062 45.4154 13.9552 45.6601 14.0506 45.8883C14.146 46.1166 14.2858 46.324 14.4622 46.4988C14.6385 46.6736 14.8479 46.8123 15.0784 46.907C15.3089 47.0016 15.556 47.0504 15.8056 47.0506C16.0552 47.0508 16.3023 47.0023 16.5329 46.9079C16.7636 46.8135 16.9732 46.6751 17.1497 46.5005L24.3541 39.3614C24.71 39.0087 24.91 38.5306 24.91 38.0322C24.91 37.5337 24.71 37.0556 24.3541 36.703Z" fill="url(#paint10_linear_2005:0)"/>
<path d="M14.6539 0.550619C14.2977 0.198806 13.815 0.0012207 13.3118 0.0012207C12.8086 0.0012207 12.326 0.198806 11.9698 0.550619L8.44274 4.03986C8.25802 4.21253 8.11017 4.42011 8.00793 4.65033C7.90569 4.88055 7.85114 5.12873 7.84751 5.38018C7.84388 5.63163 7.89125 5.88125 7.9868 6.11426C8.08235 6.34728 8.22415 6.55896 8.40381 6.73678C8.58347 6.9146 8.79733 7.05495 9.03276 7.14952C9.26818 7.24409 9.52038 7.29097 9.77443 7.28738C10.0285 7.28379 10.2792 7.2298 10.5118 7.12861C10.7444 7.02741 10.9541 6.88107 11.1286 6.69825L14.6539 3.20901C15.0099 2.85638 15.2098 2.37829 15.2098 1.87981C15.2098 1.38133 15.0099 0.903243 14.6539 0.550619Z" fill="url(#paint11_linear_2005:0)"/>
<path d="M6.84332 10.9414C6.57767 11.2046 6.23913 11.3838 5.87053 11.4565C5.50193 11.5292 5.11984 11.492 4.77257 11.3498C4.42531 11.2075 4.12848 10.9664 3.91964 10.6571C3.7108 10.3479 3.59933 9.98422 3.59933 9.61222C3.59933 9.24022 3.7108 8.87658 3.91964 8.56729C4.12848 8.25801 4.42531 8.01698 4.77257 7.87469C5.11984 7.7324 5.50193 7.69525 5.87053 7.76794C6.23913 7.84062 6.57767 8.01988 6.84332 8.28303C7.1993 8.63565 7.39926 9.11374 7.39926 9.61222C7.39926 10.1107 7.1993 10.5888 6.84332 10.9414Z" fill="url(#paint12_linear_2005:0)"/>
<path d="M24 45.3071C35.0522 45.3071 44.0118 36.4392 44.0118 25.5C44.0118 14.5608 35.0522 5.69287 24 5.69287C12.9477 5.69287 3.98816 14.5608 3.98816 25.5C3.98816 36.4392 12.9477 45.3071 24 45.3071Z" fill="url(#paint13_linear_2005:0)"/>
<path d="M37.6476 39.0089C45.1854 31.5481 45.1854 19.4519 37.6476 11.9911C30.1097 4.53033 17.8884 4.53033 10.3505 11.9911C2.81267 19.4519 2.81267 31.5481 10.3505 39.0089C17.8884 46.4697 30.1097 46.4697 37.6476 39.0089Z" fill="url(#paint14_linear_2005:0)"/>
<path d="M19.2847 13.2184H28.7154L29.351 7.146C25.8532 6.14404 22.14 6.14404 18.6422 7.146L19.2847 13.2184Z" fill="url(#paint15_linear_2005:0)"/>
<path d="M36.4449 37.8289C43.3177 31.0265 43.3177 19.9975 36.4449 13.195C29.5721 6.39249 18.4292 6.39249 11.5564 13.195C4.68361 19.9975 4.68361 31.0265 11.5564 37.8289C18.4292 44.6314 29.5721 44.6314 36.4449 37.8289Z" fill="url(#paint16_linear_2005:0)"/>
<path d="M14.4829 10.8593C20.0101 6.79218 28.0573 6.75628 33.6294 10.9311C27.546 7.54268 20.5421 7.54097 14.4829 10.8593Z" fill="#FFFCEF"/>
<path d="M25.587 41.4146C34.4591 40.5458 40.9399 32.7229 40.0621 23.9415C39.1844 15.1601 31.2806 8.74572 22.4085 9.61448C13.5364 10.4832 7.05566 18.3062 7.9334 27.0876C8.81113 35.8689 16.7149 42.2834 25.587 41.4146Z" fill="url(#paint17_linear_2005:0)"/>
<path style="mix-blend-mode:multiply" d="M25.587 41.4146C34.4591 40.5458 40.9399 32.7229 40.0621 23.9415C39.1844 15.1601 31.2806 8.74572 22.4085 9.61448C13.5364 10.4832 7.05566 18.3062 7.9334 27.0876C8.81113 35.8689 16.7149 42.2834 25.587 41.4146Z" fill="url(#paint18_linear_2005:0)"/>
<g style="mix-blend-mode:multiply">
<path d="M38.1254 24.0571C38.1255 23.3046 37.963 22.5607 37.6488 21.8755C37.3347 21.1902 36.8761 20.5793 36.3039 20.0838C35.7318 19.5882 35.0592 19.2195 34.3312 19.0023C33.6033 18.7851 32.8368 18.7244 32.0833 18.8244C31.3297 18.9243 30.6065 19.1826 29.962 19.5818C29.3175 19.981 28.7667 20.512 28.3465 21.1392C27.9263 21.7663 27.6465 22.4752 27.5257 23.2181C27.4049 23.9611 27.446 24.721 27.6462 25.447C27.6708 25.5689 27.7042 25.6889 27.7464 25.806L29.0298 29.2969C28.9199 30.244 28.6397 31.1641 28.2024 32.0135L24.2695 21.3218C24.1426 20.9768 23.9483 20.66 23.6976 20.3894C23.447 20.1188 23.145 19.8996 22.8088 19.7445C22.4727 19.5894 22.1089 19.5014 21.7384 19.4854C21.3678 19.4695 20.9977 19.5259 20.6492 19.6515C20.3007 19.7771 19.9806 19.9695 19.7071 20.2175C19.4337 20.4656 19.2123 20.7645 19.0556 21.0972C18.8989 21.43 18.81 21.79 18.7939 22.1568C18.7777 22.5235 18.8348 22.8898 18.9617 23.2348L20.3435 26.9959C20.3832 29.3893 19.9548 30.974 19.3883 32.0117L15.4588 21.3218C15.1919 20.6391 14.6652 20.0872 13.9918 19.7846C13.3184 19.482 12.5519 19.4527 11.857 19.7031C11.162 19.9535 10.5939 20.4636 10.2746 21.1239C9.95537 21.7842 9.91037 22.542 10.1493 23.2348L14.1219 34.0376C14.2623 34.4229 14.4867 34.7728 14.7793 35.0625C15.0718 35.3521 15.4252 35.5744 15.8144 35.7135C16.2037 35.8526 16.6191 35.905 17.0311 35.8671C17.4431 35.8292 17.8416 35.7018 18.1982 35.4941C18.9192 35.1893 19.5624 34.729 20.0809 34.147C20.8599 33.2922 21.4178 32.1861 21.7615 30.8475L22.9343 34.0376C23.0612 34.3834 23.2557 34.701 23.5068 34.9722C23.7579 35.2434 24.0606 35.4629 24.3976 35.618C24.7346 35.7732 25.0992 35.861 25.4705 35.8764C25.8419 35.8918 26.2126 35.8345 26.5615 35.7078C26.7189 35.6498 26.8709 35.5783 27.0158 35.4941C27.7368 35.1893 28.3799 34.729 28.8985 34.147C29.4062 33.5771 29.8148 32.9278 30.1076 32.2254L30.8675 34.2923C31.2873 35.4326 32.41 36.0754 33.3755 35.7284C34.341 35.3813 34.7832 34.1744 34.3635 33.0341L33.0024 29.3311C34.3794 29.2777 35.682 28.6986 36.6371 27.7154C37.5922 26.7321 38.1256 25.4211 38.1254 24.0571Z" fill="#BA7000"/>
</g>
<path d="M38.1254 22.3476C38.1255 21.5951 37.963 20.8513 37.6488 20.166C37.3347 19.4807 36.8761 18.8698 36.3039 18.3743C35.7318 17.8788 35.0592 17.51 34.3312 17.2928C33.6033 17.0756 32.8368 17.0149 32.0833 17.1149C31.3297 17.2148 30.6065 17.4731 29.962 17.8723C29.3175 18.2716 28.7667 18.8026 28.3465 19.4297C27.9263 20.0569 27.6465 20.7657 27.5257 21.5087C27.4049 22.2516 27.446 23.0116 27.6462 23.7375C27.6708 23.8594 27.7042 23.9794 27.7464 24.0965L29.0298 27.5875C28.9199 28.5346 28.6397 29.4546 28.2024 30.304L24.2695 19.6123C24.1426 19.2674 23.9483 18.9505 23.6976 18.6799C23.447 18.4093 23.145 18.1902 22.8088 18.0351C22.4727 17.88 22.1089 17.7919 21.7384 17.776C21.3678 17.76 20.9977 17.8164 20.6492 17.9421C20.3007 18.0677 19.9806 18.26 19.7071 18.508C19.4337 18.7561 19.2123 19.055 19.0556 19.3878C18.8989 19.7205 18.81 20.0805 18.7939 20.4473C18.7777 20.8141 18.8348 21.1804 18.9617 21.5253L20.3435 25.2864C20.3832 27.6798 19.9548 29.2646 19.3883 30.3023L15.4588 19.6123C15.1919 18.9296 14.6652 18.3778 13.9918 18.0751C13.3184 17.7725 12.5519 17.7432 11.857 17.9936C11.162 18.244 10.5939 18.7541 10.2746 19.4144C9.95537 20.0747 9.91037 20.8326 10.1493 21.5253L14.1219 32.3281C14.2623 32.7134 14.4867 33.0633 14.7793 33.353C15.0718 33.6427 15.4252 33.8649 15.8144 34.004C16.2037 34.1431 16.6191 34.1955 17.0311 34.1576C17.4431 34.1197 17.8416 33.9924 18.1982 33.7847C18.9192 33.4798 19.5624 33.0196 20.0809 32.4375C20.8599 31.5827 21.4178 30.4767 21.7615 29.1381L22.9343 32.3281C23.0612 32.6739 23.2557 32.9915 23.5068 33.2627C23.7579 33.5339 24.0606 33.7534 24.3976 33.9086C24.7346 34.0637 25.0992 34.1515 25.4705 34.167C25.8419 34.1824 26.2126 34.1251 26.5615 33.9984C26.7189 33.9404 26.8709 33.8688 27.0158 33.7847C27.7368 33.4798 28.3799 33.0196 28.8985 32.4375C29.4062 31.8677 29.8148 31.2183 30.1076 30.516L30.8675 32.5828C31.2873 33.7231 32.41 34.3659 33.3755 34.0189C34.341 33.6718 34.7832 32.4649 34.3635 31.3246L33.0024 27.6217C34.3794 27.5682 35.682 26.9891 36.6371 26.0059C37.5922 25.0226 38.1256 23.7116 38.1254 22.3476Z" fill="url(#paint19_linear_2005:0)"/>
<path d="M32.7916 18.7781C34.0564 18.7782 35.2801 19.2232 36.2441 20.0336C37.2081 20.844 37.8497 21.9671 38.0545 23.2025C38.1743 22.4825 38.1419 21.7459 37.9595 21.0389C37.7771 20.332 37.4487 19.6701 36.9948 19.0951C36.541 18.5202 35.9717 18.0445 35.3228 17.6983C34.674 17.352 33.9596 17.1426 33.2249 17.0834C32.4902 17.0241 31.751 17.1162 31.054 17.3539C30.3571 17.5916 29.7175 17.9697 29.1756 18.4644C28.6337 18.959 28.2013 19.5595 27.9056 20.2279C27.61 20.8963 27.4576 21.6181 27.4579 22.3477C27.4583 22.634 27.482 22.9199 27.5287 23.2025C27.7339 21.9673 28.3756 20.8444 29.3396 20.034C30.3035 19.2236 31.5269 18.7786 32.7916 18.7781Z" fill="white"/>
<path d="M20.6492 19.6602C20.9981 19.5335 21.3689 19.4763 21.7402 19.4917C22.1115 19.5071 22.4761 19.5949 22.8131 19.7501C23.1501 19.9052 23.4528 20.1247 23.7039 20.3959C23.955 20.6671 24.1495 20.9847 24.2764 21.3305L28.2093 32.0222C28.6466 31.1728 28.9268 30.2528 29.0366 29.3057V27.5961C28.8726 28.2355 28.4442 29.8801 28.2093 30.3126L24.2764 19.6209C24.0338 18.92 23.5199 18.3431 22.8476 18.0172C22.1753 17.6913 21.3997 17.6431 20.6915 17.8831C19.9833 18.1232 19.4004 18.6319 19.0712 19.2973C18.7419 19.9628 18.6932 20.7304 18.9358 21.4314C19.0661 21.0264 19.2882 20.6563 19.5852 20.3494C19.8822 20.0424 20.2461 19.8067 20.6492 19.6602Z" fill="white"/>
<path d="M11.8385 19.6602C12.1874 19.5335 12.5582 19.4763 12.9295 19.4917C13.3008 19.5071 13.6654 19.5949 14.0024 19.7501C14.3394 19.9052 14.6421 20.1247 14.8932 20.3959C15.1443 20.6671 15.3389 20.9847 15.4657 21.3305L19.3969 32.0222C19.9634 30.9845 20.3918 29.4065 20.3521 27.0063L20.3037 26.8764C20.1776 28.415 19.8287 29.5228 19.3969 30.3126L15.4588 19.6124C15.2162 18.9114 14.7023 18.3345 14.03 18.0086C13.3577 17.6827 12.5821 17.6345 11.8739 17.8746C11.1657 18.1147 10.5828 18.6234 10.2536 19.2888C9.92431 19.9542 9.8756 20.7219 10.1182 21.4228C10.2503 21.0187 10.474 20.6499 10.7722 20.3444C11.0703 20.039 11.4351 19.805 11.8385 19.6602Z" fill="white"/>
<path d="M33.0023 27.6216C32.801 27.6528 32.598 27.6727 32.3943 27.6814L34.3617 33.0307C34.5743 32.4802 34.5743 31.8715 34.3617 31.3211L33.0023 27.6216Z" fill="white"/>
</g>
<defs>
<linearGradient id="paint0_linear_2005:0" x1="17.8746" y1="4.8589" x2="1.26105" y2="21.6442" gradientUnits="userSpaceOnUse">
<stop stop-color="#FADB8A"/>
<stop offset="0.82" stop-color="#EBB036"/>
<stop offset="1" stop-color="#E8A623"/>
</linearGradient>
<linearGradient id="paint1_linear_2005:0" x1="2956.26" y1="23298.2" x2="2956.26" y2="25724" gradientUnits="userSpaceOnUse">
<stop stop-color="#FADB8A"/>
<stop offset="0.82" stop-color="#EBB036"/>
<stop offset="1" stop-color="#E8A623"/>
</linearGradient>
<linearGradient id="paint2_linear_2005:0" x1="4467.66" y1="23725.3" x2="4467.66" y2="26145.2" gradientUnits="userSpaceOnUse">
<stop stop-color="#FADB8A"/>
<stop offset="0.82" stop-color="#EBB036"/>
<stop offset="1" stop-color="#E8A623"/>
</linearGradient>
<linearGradient id="paint3_linear_2005:0" x1="2387.45" y1="25878.4" x2="2387.45" y2="28296.4" gradientUnits="userSpaceOnUse">
<stop stop-color="#FADB8A"/>
<stop offset="0.82" stop-color="#EBB036"/>
<stop offset="1" stop-color="#E8A623"/>
</linearGradient>
<linearGradient id="paint4_linear_2005:0" x1="1059.87" y1="8836.85" x2="1059.87" y2="9035.8" gradientUnits="userSpaceOnUse">
<stop stop-color="#FADB8A"/>
<stop offset="0.82" stop-color="#EBB036"/>
<stop offset="1" stop-color="#E8A623"/>
</linearGradient>
<linearGradient id="paint5_linear_2005:0" x1="683.344" y1="7487.94" x2="683.344" y2="7686.05" gradientUnits="userSpaceOnUse">
<stop stop-color="#FADB8A"/>
<stop offset="0.82" stop-color="#EBB036"/>
<stop offset="1" stop-color="#E8A623"/>
</linearGradient>
<linearGradient id="paint6_linear_2005:0" x1="5242.89" y1="25507.3" x2="5242.89" y2="27937.4" gradientUnits="userSpaceOnUse">
<stop stop-color="#FADB8A"/>
<stop offset="0.82" stop-color="#EBB036"/>
<stop offset="1" stop-color="#E8A623"/>
</linearGradient>
<linearGradient id="paint7_linear_2005:0" x1="5253.97" y1="24457.4" x2="5253.97" y2="26889.3" gradientUnits="userSpaceOnUse">
<stop stop-color="#FADB8A"/>
<stop offset="0.82" stop-color="#EBB036"/>
<stop offset="1" stop-color="#E8A623"/>
</linearGradient>
<linearGradient id="paint8_linear_2005:0" x1="3674.72" y1="15685.4" x2="3674.72" y2="16575.2" gradientUnits="userSpaceOnUse">
<stop stop-color="#FADB8A"/>
<stop offset="0.82" stop-color="#EBB036"/>
<stop offset="1" stop-color="#E8A623"/>
</linearGradient>
<linearGradient id="paint9_linear_2005:0" x1="1282.11" y1="5773.67" x2="1282.11" y2="5856.64" gradientUnits="userSpaceOnUse">
<stop stop-color="#FADB8A"/>
<stop offset="0.82" stop-color="#EBB036"/>
<stop offset="1" stop-color="#E8A623"/>
</linearGradient>
<linearGradient id="paint10_linear_2005:0" x1="2672.92" y1="16595.3" x2="2672.92" y2="17482.1" gradientUnits="userSpaceOnUse">
<stop stop-color="#FADB8A"/>
<stop offset="0.82" stop-color="#EBB036"/>
<stop offset="1" stop-color="#E8A623"/>
</linearGradient>
<linearGradient id="paint11_linear_2005:0" x1="393.496" y1="10273.8" x2="393.496" y2="10646" gradientUnits="userSpaceOnUse">
<stop stop-color="#FADB8A"/>
<stop offset="0.82" stop-color="#EBB036"/>
<stop offset="1" stop-color="#E8A623"/>
</linearGradient>
<linearGradient id="paint12_linear_2005:0" x1="202.64" y1="5552.14" x2="202.64" y2="5635.22" gradientUnits="userSpaceOnUse">
<stop stop-color="#FADB8A"/>
<stop offset="0.82" stop-color="#EBB036"/>
<stop offset="1" stop-color="#E8A623"/>
</linearGradient>
<linearGradient id="paint13_linear_2005:0" x1="24" y1="5.61252" x2="24" y2="45.2934" gradientUnits="userSpaceOnUse">
<stop stop-color="white"/>
<stop offset="0.47" stop-color="#E0BA93"/>
<stop offset="1" stop-color="#BF6E1D"/>
</linearGradient>
<linearGradient id="paint14_linear_2005:0" x1="5368.7" y1="1425.48" x2="5368.7" y2="9849.79" gradientUnits="userSpaceOnUse">
<stop stop-color="#FADB8A"/>
<stop offset="0.82" stop-color="#EBB036"/>
<stop offset="1" stop-color="#E8A623"/>
</linearGradient>
<linearGradient id="paint15_linear_2005:0" x1="18.7959" y1="9.80781" x2="29.1662" y2="9.80781" gradientUnits="userSpaceOnUse">
<stop stop-color="#F9D884"/>
<stop offset="0.5" stop-color="white"/>
<stop offset="0.61" stop-color="#FDF3D8"/>
<stop offset="0.72" stop-color="#FBE8B4"/>
<stop offset="0.83" stop-color="#FAE09B"/>
<stop offset="0.92" stop-color="#F9DB8B"/>
<stop offset="1" stop-color="#F9D986"/>
</linearGradient>
<linearGradient id="paint16_linear_2005:0" x1="24" y1="8.02219" x2="24" y2="42.918" gradientUnits="userSpaceOnUse">
<stop stop-color="#E8A623"/>
<stop offset="0.18" stop-color="#EBB036"/>
<stop offset="1" stop-color="#FADB8A"/>
</linearGradient>
<linearGradient id="paint17_linear_2005:0" x1="23.9997" y1="9.46909" x2="23.9997" y2="41.4792" gradientUnits="userSpaceOnUse">
<stop stop-color="#FFD026"/>
<stop offset="0.43" stop-color="#F8BC23"/>
<stop offset="1" stop-color="#ED9A1D"/>
</linearGradient>
<linearGradient id="paint18_linear_2005:0" x1="23.9997" y1="9.46909" x2="23.9997" y2="41.4792" gradientUnits="userSpaceOnUse">
<stop stop-color="#FFD026"/>
<stop offset="0.43" stop-color="#F8BC23"/>
<stop offset="1" stop-color="#ED9A1D"/>
</linearGradient>
<linearGradient id="paint19_linear_2005:0" x1="24.0518" y1="16.7573" x2="24.0518" y2="34.9814" gradientUnits="userSpaceOnUse">
<stop stop-color="#FFEEB3"/>
<stop offset="0.69" stop-color="#FFDC5F"/>
<stop offset="1" stop-color="#FFD438"/>
</linearGradient>
<clipPath id="clip0_2005:0">
<rect width="117" height="28" fill="white" transform="translate(54 11)"/>
</clipPath>
<clipPath id="clip1_2005:0">
<rect width="48" height="51" fill="white"/>
</clipPath>
</defs>
</svg>
